<svg width="94" height="28" viewBox="0 0 94 28" fill="none" xmlns="http://www.w3.org/2000/svg">
<rect width="94" height="28" fill="#C8C8C8"/>
<g clip-path="url(#clip0_1418_10066)">
<rect width="1440" height="3984" transform="translate(-1208 -3814)" fill="#F6F6F7"/>
<rect x="-1208" y="-325" width="1440" height="495" fill="#2B1845"/>
<g clip-path="url(#clip1_1418_10066)">
<path d="M90.3668 0.611567C92.0257 0.611567 93.3756 1.93378 93.3756 3.55871V24.4407C93.3756 26.0662 92.0257 27.3884 90.3668 27.3884H3.6332C1.97425 27.3884 0.624369 26.0662 0.624369 24.4407V3.55871C0.624369 1.93378 1.97425 0.611567 3.6332 0.611567H90.3662M90.3662 0H3.6332C1.62648 0 0 1.59313 0 3.55871V24.4407C0 26.4063 1.62648 28 3.6332 28H90.3662C92.3729 28 93.9994 26.4069 93.9994 24.4407V3.55871C93.9994 1.59313 92.3729 0 90.3662 0Z" fill="white"/>
<path d="M9.89738 11.441C8.37267 14.0328 9.34169 17.9664 11.0281 20.3509C11.8698 21.5435 12.722 22.6137 13.889 22.6137C13.9108 22.6137 13.9327 22.6137 13.9558 22.6125C14.504 22.5911 14.9005 22.426 15.2838 22.2657C15.714 22.0859 16.1592 21.9006 16.8572 21.9006C17.5553 21.9006 17.9449 22.0804 18.3545 22.2535C18.7584 22.4247 19.1743 22.6021 19.7886 22.5905C21.1036 22.5666 21.9109 21.4114 22.6226 20.3925C23.3656 19.329 23.739 18.296 23.8645 17.901L23.8695 17.8851C23.8932 17.8147 23.8595 17.7383 23.7908 17.7077C23.7908 17.7077 23.7821 17.704 23.7802 17.7034C23.5486 17.6105 21.5175 16.728 21.4963 14.3227C21.4763 12.3681 23.0197 11.334 23.3294 11.1462L23.3438 11.137C23.3775 11.1162 23.4006 11.0826 23.4087 11.0441C23.4168 11.0056 23.4087 10.9658 23.3856 10.9334C22.3205 9.4063 20.6877 9.17635 20.0303 9.14883C19.9354 9.13966 19.8367 9.13477 19.7381 9.13477C18.9657 9.13477 18.2265 9.42037 17.6321 9.64971C17.2219 9.8081 16.8672 9.94509 16.6237 9.94509C16.349 9.94509 15.9925 9.80627 15.5804 9.64665C15.0284 9.43199 14.4028 9.1892 13.741 9.1892C13.7254 9.1892 13.7098 9.18919 13.6942 9.18981C12.1545 9.21182 10.6997 10.0747 9.89801 11.4404L9.89738 11.441Z" fill="white"/>
<path d="M20.0318 4.94641C19.0996 4.98371 17.9814 5.54574 17.3133 6.31265C16.7451 6.95663 16.1901 8.03176 16.3362 9.11485C16.3455 9.18273 16.4017 9.23472 16.4717 9.24022C16.5347 9.24511 16.5984 9.24756 16.6627 9.24756C17.5743 9.24756 18.5577 8.75342 19.2289 7.95838C19.9357 7.1187 20.2928 6.04111 20.1848 5.07545C20.176 4.99961 20.108 4.94335 20.0318 4.94641Z" fill="white"/>
<path d="M30.7578 5.50378H32.5254C32.9893 5.50378 33.4008 5.59735 33.7604 5.78511C34.12 5.97286 34.3998 6.23216 34.5996 6.56363C34.7994 6.8951 34.8993 7.27121 34.8993 7.69197C34.8993 8.11273 34.7994 8.48884 34.5996 8.82031C34.3998 9.15178 34.12 9.41109 33.7604 9.59823C33.4008 9.78598 32.9893 9.87955 32.5254 9.87955H30.7578V5.50378ZM32.4998 9.59211C32.9125 9.59211 33.2759 9.512 33.5912 9.35115C33.9059 9.19092 34.1488 8.96648 34.3186 8.67904C34.4884 8.39161 34.574 8.06258 34.574 7.69136C34.574 7.32014 34.489 6.99112 34.3186 6.70368C34.1481 6.41624 33.9059 6.19241 33.5912 6.03157C33.2765 5.87134 32.9125 5.79122 32.4998 5.79122H31.0831V9.5915H32.4998V9.59211Z" fill="white"/>
<path d="M36.3767 9.69147C36.1238 9.54958 35.9246 9.35266 35.7798 9.10069C35.6349 8.84873 35.5625 8.56435 35.5625 8.24756C35.5625 7.93076 35.6349 7.64639 35.7798 7.39442C35.9246 7.14245 36.1232 6.94553 36.3767 6.80365C36.6295 6.66176 36.9136 6.59082 37.2289 6.59082C37.5442 6.59082 37.8277 6.66176 38.0812 6.80365C38.3341 6.94553 38.5332 7.14245 38.6781 7.39442C38.823 7.64639 38.8954 7.93076 38.8954 8.24756C38.8954 8.56435 38.823 8.84873 38.6781 9.10069C38.5332 9.35266 38.3347 9.54958 38.0812 9.69147C37.8283 9.83335 37.5442 9.90429 37.2289 9.90429C36.9136 9.90429 36.6302 9.83335 36.3767 9.69147ZM37.9145 9.44745C38.1168 9.33064 38.276 9.16858 38.3934 8.96003C38.5101 8.75149 38.5688 8.5142 38.5688 8.24756C38.5688 7.98091 38.5101 7.74362 38.3934 7.53508C38.276 7.32654 38.1168 7.16447 37.9145 7.04766C37.7122 6.93085 37.4837 6.87275 37.2283 6.87275C36.9729 6.87275 36.7444 6.93085 36.5421 7.04766C36.3398 7.16447 36.1806 7.32715 36.0632 7.53508C35.9459 7.74362 35.8878 7.98091 35.8878 8.24756C35.8878 8.5142 35.9465 8.7521 36.0632 8.96003C36.18 9.16858 36.3398 9.33125 36.5421 9.44745C36.7444 9.56426 36.9729 9.62236 37.2283 9.62236C37.4837 9.62236 37.7122 9.56426 37.9145 9.44745Z" fill="white"/>
<path d="M44.5491 6.61621L43.2854 9.87892H42.9857L41.8624 7.04737L40.733 9.87892H40.4395L39.1758 6.61621H39.4823L40.5925 9.52911L41.7282 6.61621H42.0029L43.1324 9.52299L44.2556 6.61621H44.5491Z" fill="white"/>
<path d="M47.9058 6.94798C48.148 7.18526 48.2698 7.52713 48.2698 7.97296V9.87922H47.9507V7.99742C47.9507 7.63048 47.8558 7.35161 47.6667 7.15958C47.4775 6.96816 47.2127 6.87214 46.8718 6.87214C46.4804 6.87214 46.1719 6.98712 45.9465 7.21584C45.7211 7.44518 45.6081 7.75341 45.6081 8.14114V9.87861H45.2891V6.61589H45.5956V7.32225C45.7105 7.09292 45.8816 6.91373 46.1095 6.78469C46.3368 6.65565 46.6065 6.59082 46.9168 6.59082C47.3339 6.59082 47.6635 6.70946 47.9058 6.94736V6.94798Z" fill="white"/>
<path d="M49.5859 5.24121H49.905V9.87934H49.5859V5.24121Z" fill="white"/>
<path d="M51.7009 9.69147C51.4474 9.54958 51.2489 9.35266 51.104 9.10069C50.9591 8.84873 50.8867 8.56435 50.8867 8.24756C50.8867 7.93076 50.9591 7.64639 51.104 7.39442C51.2489 7.14245 51.4474 6.94553 51.7009 6.80365C51.9538 6.66176 52.2379 6.59082 52.5525 6.59082C52.8672 6.59082 53.1513 6.66176 53.4048 6.80365C53.6577 6.94553 53.8568 7.14245 54.0017 7.39442C54.1465 7.64639 54.2184 7.93076 54.2184 8.24756C54.2184 8.56435 54.1459 8.84873 54.0017 9.10069C53.8568 9.35266 53.6583 9.54958 53.4048 9.69147C53.1513 9.83335 52.8678 9.90429 52.5525 9.90429C52.2372 9.90429 51.9538 9.83335 51.7009 9.69147ZM53.2387 9.44745C53.441 9.33064 53.6002 9.16858 53.7176 8.96003C53.8344 8.75149 53.8931 8.5142 53.8931 8.24756C53.8931 7.98091 53.8344 7.74362 53.7176 7.53508C53.6002 7.32654 53.441 7.16447 53.2387 7.04766C53.0364 6.93085 52.8079 6.87275 52.5525 6.87275C52.2972 6.87275 52.0686 6.93085 51.8664 7.04766C51.6641 7.16447 51.5048 7.32715 51.3875 7.53508C51.2701 7.74362 51.212 7.98091 51.212 8.24756C51.212 8.5142 51.2707 8.7521 51.3875 8.96003C51.5042 9.16858 51.6641 9.33125 51.8664 9.44745C52.0686 9.56426 52.2972 9.62236 52.5525 9.62236C52.8079 9.62236 53.0364 9.56426 53.2387 9.44745Z" fill="white"/>
<path d="M57.2684 6.90064C57.4894 7.10674 57.5999 7.41007 57.5999 7.81004V9.87897H57.2934V9.29737C57.1872 9.48879 57.0317 9.63801 56.8276 9.74443C56.6234 9.85084 56.3787 9.90405 56.0939 9.90405C55.7237 9.90405 55.4315 9.81843 55.2167 9.6478C55.0019 9.47717 54.8945 9.25212 54.8945 8.97263C54.8945 8.69314 54.9932 8.48215 55.1911 8.31336C55.389 8.14457 55.705 8.06017 56.1389 8.06017H57.2815V7.79781C57.2815 7.49386 57.1972 7.26269 57.0292 7.10368C56.8613 6.94528 56.6153 6.86639 56.2919 6.86639C56.0708 6.86639 55.8592 6.9037 55.6569 6.97892C55.4546 7.05414 55.2835 7.15383 55.143 7.2792L54.9832 7.05414C55.1493 6.90859 55.3491 6.79484 55.5832 6.7135C55.8174 6.63216 56.0621 6.5918 56.3168 6.5918C56.7296 6.5918 57.0467 6.69515 57.2678 6.90125L57.2684 6.90064ZM56.8438 9.46066C57.0374 9.3359 57.1828 9.15426 57.2809 8.91698V8.30419H56.1451C55.8174 8.30419 55.5801 8.36228 55.4334 8.47909C55.2866 8.5959 55.213 8.75613 55.213 8.9604C55.213 9.16466 55.2935 9.34079 55.4552 9.46372C55.6169 9.58664 55.8442 9.64841 56.1383 9.64841C56.4149 9.64841 56.6496 9.58603 56.8432 9.46066H56.8438Z" fill="white"/>
<path d="M61.8827 5.24121V9.87934H61.5699V9.1106C61.4382 9.36501 61.2527 9.56071 61.0149 9.69831C60.7764 9.83592 60.5066 9.90441 60.2044 9.90441C59.9022 9.90441 59.6132 9.83347 59.3622 9.69159C59.1112 9.5497 58.9145 9.354 58.7721 9.10387C58.6298 8.85374 58.5586 8.56875 58.5586 8.24768C58.5586 7.9266 58.6298 7.64039 58.7721 7.38842C58.9145 7.13646 59.1112 6.94076 59.3622 6.80071C59.6132 6.66127 59.8941 6.59155 60.2044 6.59155C60.5147 6.59155 60.7695 6.66005 61.0055 6.79765C61.2415 6.93525 61.4276 7.12667 61.5637 7.37252V5.24121H61.8827ZM60.9093 9.44818C61.1116 9.33137 61.2709 9.16931 61.3882 8.96076C61.505 8.75222 61.5637 8.51493 61.5637 8.24829C61.5637 7.98164 61.505 7.74436 61.3882 7.53581C61.2709 7.32727 61.1116 7.1652 60.9093 7.04839C60.707 6.93158 60.4785 6.87348 60.2232 6.87348C59.9678 6.87348 59.7393 6.93158 59.537 7.04839C59.3347 7.1652 59.1755 7.32788 59.0581 7.53581C58.9407 7.74436 58.8826 7.98164 58.8826 8.24829C58.8826 8.51493 58.9413 8.75283 59.0581 8.96076C59.1748 9.16931 59.3347 9.33199 59.537 9.44818C59.7393 9.56499 59.9678 9.62309 60.2232 9.62309C60.4785 9.62309 60.707 9.56499 60.9093 9.44818Z" fill="white"/>
<path d="M65.3181 9.69147C65.0652 9.54958 64.866 9.35266 64.7212 9.10069C64.5763 8.84873 64.5039 8.56435 64.5039 8.24756C64.5039 7.93076 64.5763 7.64639 64.7212 7.39442C64.866 7.14245 65.0646 6.94553 65.3181 6.80365C65.571 6.66176 65.855 6.59082 66.1704 6.59082C66.4857 6.59082 66.7691 6.66176 67.022 6.80365C67.2749 6.94553 67.474 7.14245 67.6189 7.39442C67.7637 7.64639 67.8355 7.93076 67.8355 8.24756C67.8355 8.56435 67.7631 8.84873 67.6189 9.10069C67.474 9.35266 67.2755 9.54958 67.022 9.69147C66.7691 9.83335 66.485 9.90429 66.1704 9.90429C65.8557 9.90429 65.5716 9.83335 65.3181 9.69147ZM66.8559 9.44745C67.0582 9.33064 67.2174 9.16858 67.3348 8.96003C67.4516 8.75149 67.5102 8.5142 67.5102 8.24756C67.5102 7.98091 67.4516 7.74362 67.3348 7.53508C67.2174 7.32654 67.0582 7.16447 66.8559 7.04766C66.6536 6.93085 66.4251 6.87275 66.1697 6.87275C65.9144 6.87275 65.6858 6.93085 65.4835 7.04766C65.2812 7.16447 65.122 7.32715 65.0047 7.53508C64.8873 7.74362 64.8292 7.98091 64.8292 8.24756C64.8292 8.5142 64.8879 8.7521 65.0047 8.96003C65.1214 9.16858 65.2812 9.33125 65.4835 9.44745C65.6858 9.56426 65.9144 9.62236 66.1697 9.62236C66.4251 9.62236 66.6536 9.56426 66.8559 9.44745Z" fill="white"/>
<path d="M71.4409 6.94798C71.6832 7.18526 71.805 7.52713 71.805 7.97296V9.87922H71.4859V7.99742C71.4859 7.63048 71.391 7.35161 71.2018 7.15958C71.0126 6.96816 70.7479 6.87214 70.407 6.87214C70.0155 6.87214 69.7071 6.98712 69.4817 7.21584C69.2563 7.44518 69.1433 7.75341 69.1433 8.14114V9.87861H68.8242V6.61589H69.1308V7.32225C69.2457 7.09292 69.4167 6.91373 69.6446 6.78469C69.8719 6.65565 70.1416 6.59082 70.4519 6.59082C70.869 6.59082 71.1987 6.70946 71.4409 6.94736V6.94798Z" fill="white"/>
<path d="M76.4125 9.6729C76.3313 9.74812 76.2308 9.805 76.109 9.84475C75.9879 9.8845 75.8611 9.90407 75.7294 9.90407C75.4397 9.90407 75.2168 9.82579 75.0595 9.66984C74.9021 9.51328 74.8234 9.29617 74.8234 9.01668V6.88537H74.2109V6.61689H74.8234V5.90442H75.1425V6.61689H76.202V6.88537H75.1425V8.9855C75.1425 9.19771 75.1943 9.35977 75.2986 9.46986C75.4029 9.58055 75.5571 9.63559 75.7612 9.63559C75.9654 9.63559 76.1421 9.57505 76.2782 9.45457L76.4125 9.67351V9.6729Z" fill="white"/>
<path d="M79.9175 6.94773C80.1598 7.18502 80.2815 7.52688 80.2815 7.97272V9.87897H79.9625V7.99718C79.9625 7.63024 79.8676 7.35136 79.6784 7.15933C79.4892 6.96791 79.2245 6.8719 78.8836 6.8719C78.4921 6.8719 78.1836 6.98687 77.9582 7.2156C77.7328 7.44493 77.6198 7.75316 77.6198 8.1409V9.87836H77.3008V5.24023H77.6198V7.29694C77.7347 7.07188 77.9045 6.89819 78.1306 6.77527C78.356 6.65234 78.6219 6.59058 78.9285 6.59058C79.3456 6.59058 79.6753 6.70922 79.9175 6.94712V6.94773Z" fill="white"/>
<path d="M84.413 8.32278H81.5478C81.5566 8.57719 81.6221 8.80286 81.7457 9.00101C81.8694 9.19915 82.0361 9.35205 82.2465 9.46029C82.4569 9.56854 82.6942 9.62297 82.9583 9.62297C83.1749 9.62297 83.376 9.58444 83.5614 9.50739C83.7462 9.43033 83.9004 9.31658 84.0241 9.16674L84.2089 9.37284C84.064 9.54408 83.8823 9.67495 83.6632 9.76669C83.444 9.85842 83.2068 9.90429 82.9514 9.90429C82.6192 9.90429 82.3239 9.83335 82.0642 9.69147C81.8044 9.54958 81.6015 9.35388 81.4548 9.10375C81.3081 8.85362 81.2344 8.56863 81.2344 8.24756C81.2344 7.92648 81.3037 7.64639 81.4417 7.39442C81.5797 7.14245 81.7701 6.94553 82.013 6.80365C82.2552 6.66176 82.5274 6.59082 82.8296 6.59082C83.1318 6.59082 83.4028 6.66054 83.6432 6.79998C83.8836 6.93941 84.0728 7.1345 84.2114 7.38463C84.3494 7.63477 84.4187 7.91792 84.4187 8.23471L84.4124 8.32217L84.413 8.32278ZM82.1984 7.01953C82.0111 7.12166 81.8612 7.26538 81.7482 7.45068C81.6352 7.63599 81.5703 7.84576 81.5534 8.07876H84.1059C84.0934 7.84515 84.0291 7.63721 83.9142 7.45374C83.7993 7.27027 83.6482 7.12655 83.4609 7.02259C83.2736 6.91862 83.0632 6.86603 82.829 6.86603C82.5949 6.86603 82.3845 6.9174 82.1972 7.01892L82.1984 7.01953Z" fill="white"/>
<path d="M35.4839 19.5518H31.6671L30.9148 21.2826H29.4531L32.8884 13.8049H34.2845L37.7304 21.2826H36.2475L35.4839 19.5518ZM35.015 18.462L33.5752 15.1932L32.1467 18.462H35.015Z" fill="white"/>
<path d="M43.3199 15.8779C43.7669 16.1201 44.1178 16.462 44.3726 16.9035C44.6267 17.3451 44.7541 17.8545 44.7541 18.4312C44.7541 19.0079 44.6267 19.5192 44.3726 19.9638C44.1178 20.409 43.7676 20.7527 43.3199 20.9949C42.8728 21.2371 42.3658 21.3582 41.7983 21.3582C41.0128 21.3582 40.3916 21.1019 39.9333 20.5888V23.3556H38.5703V15.5789H39.8684V16.3268C40.0938 16.0565 40.3716 15.8535 40.7025 15.7177C41.0334 15.5825 41.3987 15.5146 41.7983 15.5146C42.3652 15.5146 42.8722 15.6357 43.3199 15.8779ZM42.8835 19.7235C43.2069 19.3963 43.3686 18.9651 43.3686 18.4312C43.3686 17.8973 43.2069 17.4662 42.8835 17.1384C42.56 16.8112 42.1473 16.6473 41.646 16.6473C41.3188 16.6473 41.0241 16.7207 40.7625 16.8662C40.5009 17.0124 40.2936 17.2203 40.1406 17.4912C39.9876 17.7622 39.9115 18.0753 39.9115 18.4312C39.9115 18.7871 39.9876 19.1009 40.1406 19.3712C40.2936 19.6421 40.5002 19.85 40.7625 19.9962C41.0241 20.1424 41.3188 20.2152 41.646 20.2152C42.1473 20.2152 42.56 20.0513 42.8835 19.7241V19.7235Z" fill="white"/>
<path d="M50.8004 15.8779C51.2474 16.1201 51.5983 16.462 51.853 16.9035C52.1072 17.3451 52.2345 17.8545 52.2345 18.4312C52.2345 19.0079 52.1072 19.5192 51.853 19.9638C51.5983 20.409 51.248 20.7527 50.8004 20.9949C50.3533 21.2371 49.8463 21.3582 49.2788 21.3582C48.4933 21.3582 47.8721 21.1019 47.4138 20.5888V23.3556H46.0508V15.5789H47.3488V16.3268C47.5742 16.0565 47.8521 15.8535 48.183 15.7177C48.5139 15.5825 48.8792 15.5146 49.2788 15.5146C49.8457 15.5146 50.3527 15.6357 50.8004 15.8779ZM50.3639 19.7235C50.6873 19.3963 50.8491 18.9651 50.8491 18.4312C50.8491 17.8973 50.6873 17.4662 50.3639 17.1384C50.0405 16.8112 49.6278 16.6473 49.1264 16.6473C48.7993 16.6473 48.5046 16.7207 48.2429 16.8662C47.9813 17.0124 47.774 17.2203 47.6211 17.4912C47.4681 17.7622 47.3919 18.0753 47.3919 18.4312C47.3919 18.7871 47.4681 19.1009 47.6211 19.3712C47.774 19.6421 47.9807 19.85 48.2429 19.9962C48.5046 20.1424 48.7993 20.2152 49.1264 20.2152C49.6278 20.2152 50.0405 20.0513 50.3639 19.7241V19.7235Z" fill="white"/>
<path d="M57.3343 21.1437C56.7855 20.9798 56.3509 20.7627 56.0312 20.4924L56.522 19.4136C56.8348 19.6558 57.2182 19.8533 57.6727 20.0062C58.1273 20.1597 58.583 20.2361 59.0413 20.2361C59.6083 20.2361 60.0316 20.1475 60.3119 19.9689C60.5916 19.7909 60.7315 19.5561 60.7315 19.2638C60.7315 19.0503 60.6535 18.8736 60.4967 18.7347C60.34 18.5959 60.1421 18.4877 59.9023 18.4088C59.6626 18.3305 59.3354 18.2418 58.9208 18.1415C58.3389 18.0064 57.8681 17.8712 57.5085 17.7354C57.1489 17.6003 56.8398 17.3881 56.5813 17.1C56.3235 16.8114 56.1942 16.4218 56.1942 15.9301C56.1942 15.5173 56.3085 15.1412 56.5376 14.803C56.7668 14.4648 57.112 14.1957 57.5734 13.9963C58.0349 13.797 58.6005 13.6973 59.2692 13.6973C59.7344 13.6973 60.1927 13.7541 60.6435 13.8679C61.0943 13.9816 61.4832 14.1455 61.8104 14.359L61.3634 15.4378C61.0287 15.2458 60.6797 15.0996 60.3163 14.9999C59.9529 14.9002 59.6001 14.8507 59.2586 14.8507C58.6986 14.8507 58.2827 14.943 58.0099 15.1283C57.737 15.3136 57.6009 15.5595 57.6009 15.8653C57.6009 16.0787 57.679 16.2536 57.8357 16.3888C57.9918 16.5239 58.1903 16.631 58.4301 16.7092C58.6698 16.7875 58.997 16.8768 59.4116 16.9765C59.9785 17.1049 60.4437 17.2382 60.8077 17.3771C61.1711 17.5159 61.482 17.7281 61.7399 18.0125C61.9977 18.2975 62.127 18.6822 62.127 19.1659C62.127 19.5787 62.0127 19.953 61.7836 20.2875C61.5544 20.622 61.2073 20.8893 60.7421 21.0887C60.277 21.288 59.7094 21.3877 59.0407 21.3877C58.4519 21.3877 57.8831 21.3058 57.3337 21.1419L57.3343 21.1437Z" fill="white"/>
<path d="M66.9033 20.9734C66.7435 21.1019 66.5487 21.1979 66.3202 21.2621C66.091 21.3263 65.8494 21.3581 65.5947 21.3581C64.9547 21.3581 64.4608 21.1942 64.1118 20.867C63.7628 20.5398 63.5886 20.0622 63.5886 19.4353V16.69H62.6289V15.6216H63.5886V14.3184H64.9516V15.6216H66.5112V16.69H64.9516V19.4035C64.9516 19.6812 65.0202 19.8934 65.1589 20.039C65.2968 20.1851 65.4966 20.2579 65.7589 20.2579C66.0642 20.2579 66.3189 20.1796 66.5225 20.0231L66.904 20.974L66.9033 20.9734Z" fill="white"/>
<path d="M68.853 20.9839C68.3804 20.735 68.0114 20.3876 67.746 19.9424C67.4806 19.4972 67.3477 18.9932 67.3477 18.4306C67.3477 17.868 67.48 17.3659 67.746 16.9243C68.0114 16.4828 68.3804 16.1372 68.853 15.8883C69.3257 15.6394 69.8564 15.5146 70.4451 15.5146C71.0339 15.5146 71.5759 15.6394 72.0485 15.8883C72.5212 16.1378 72.8902 16.4828 73.1555 16.9243C73.4209 17.3659 73.5533 17.868 73.5533 18.4306C73.5533 18.9932 73.4203 19.4972 73.1555 19.9424C72.8902 20.3876 72.5212 20.735 72.0485 20.9839C71.5759 21.2334 71.0414 21.3576 70.4451 21.3576C69.8489 21.3576 69.3257 21.2328 68.853 20.9839ZM71.6883 19.7235C72.0154 19.3963 72.179 18.9651 72.179 18.4312C72.179 17.8973 72.0154 17.4662 71.6883 17.1384C71.3611 16.8112 70.9465 16.6473 70.4451 16.6473C69.9438 16.6473 69.5311 16.8112 69.2076 17.1384C68.8842 17.4662 68.7225 17.8967 68.7225 18.4312C68.7225 18.9657 68.8842 19.3963 69.2076 19.7235C69.5311 20.0513 69.9438 20.2145 70.4451 20.2145C70.9465 20.2145 71.3611 20.0506 71.6883 19.7235Z" fill="white"/>
<path d="M78.233 15.5146V16.7861C78.1169 16.7647 78.0114 16.7543 77.9164 16.7543C77.3857 16.7543 76.9712 16.906 76.6733 17.2081C76.3749 17.5108 76.2263 17.9469 76.2263 18.5168V21.2836H74.8633V15.5795H76.1613V16.4124C76.5541 15.8143 77.2446 15.5153 78.2336 15.5153L78.233 15.5146Z" fill="white"/>
<path d="M84.7882 18.8581H80.2185C80.2984 19.2782 80.5075 19.6109 80.8453 19.8568C81.1837 20.1026 81.6033 20.2256 82.1047 20.2256C82.7447 20.2256 83.2716 20.0188 83.6862 19.606L84.4167 20.4286C84.1551 20.735 83.8242 20.9662 83.4246 21.1227C83.0244 21.2793 82.5742 21.3576 82.0722 21.3576C81.4322 21.3576 80.8691 21.2328 80.382 20.9839C79.895 20.735 79.5185 20.3876 79.2532 19.9424C78.9878 19.4972 78.8555 18.9932 78.8555 18.4306C78.8555 17.868 78.9847 17.375 79.2426 16.9298C79.5004 16.4846 79.8588 16.1378 80.3165 15.8883C80.7748 15.6394 81.2905 15.5146 81.8649 15.5146C82.4393 15.5146 82.9388 15.6376 83.3865 15.8834C83.8336 16.1293 84.1826 16.4748 84.4336 16.9194C84.6846 17.3646 84.8101 17.879 84.8101 18.463C84.8101 18.5554 84.8026 18.6875 84.7882 18.8581ZM80.7585 16.9622C80.457 17.2148 80.2734 17.5518 80.2078 17.9719H83.512C83.4539 17.5591 83.2754 17.224 82.9775 16.9677C82.6791 16.7115 82.3089 16.5831 81.8649 16.5831C81.421 16.5831 81.0595 16.7097 80.7579 16.9622H80.7585Z" fill="white"/>
</g>
<rect x="-131.75" y="-93.75" width="238.5" height="147.5" rx="4.75" stroke="#D9D9D9" stroke-width="0.5"/>
</g>
<defs>
<clipPath id="clip0_1418_10066">
<rect width="1440" height="3984" fill="white" transform="translate(-1208 -3814)"/>
</clipPath>
<clipPath id="clip1_1418_10066">
<rect width="94" height="28" fill="white"/>
</clipPath>
</defs>
</svg>
