<svg width="132" height="40" viewBox="0 0 132 40" fill="none" xmlns="http://www.w3.org/2000/svg">
<rect width="132" height="40" fill="#C8C8C8"/>
<g clip-path="url(#clip0_1418_10066)">
<rect width="1440" height="3984" transform="translate(-401 -3559)" fill="#F6F6F7"/>
<rect x="-401" y="-70" width="1440" height="495" fill="#2B1845"/>
<rect x="-276" y="-245" width="1191" height="344" rx="15" fill="#F7F3FF"/>
<g clip-path="url(#clip1_1418_10066)">
<path d="M126.449 0.873668C128.77 0.873668 130.659 2.76254 130.659 5.08387V34.9153C130.659 37.2375 128.77 39.1263 126.449 39.1263H5.08387C2.76254 39.1263 0.873668 37.2375 0.873668 34.9153V5.08387C0.873668 2.76254 2.76254 0.873668 5.08387 0.873668H126.448M126.448 0H5.08387C2.2759 0 0 2.2759 0 5.08387V34.9153C0 37.7232 2.2759 40 5.08387 40H126.448C129.256 40 131.532 37.7241 131.532 34.9153V5.08387C131.532 2.2759 129.256 0 126.448 0Z" fill="black"/>
<path d="M13.8495 16.3444C11.716 20.047 13.072 25.6664 15.4317 29.0729C16.6095 30.7765 17.802 32.3054 19.4349 32.3054C19.4655 32.3054 19.4961 32.3054 19.5284 32.3037C20.2955 32.2731 20.8502 32.0372 21.3867 31.8083C21.9886 31.5515 22.6115 31.2867 23.5883 31.2867C24.5651 31.2867 25.1102 31.5436 25.6834 31.7908C26.2486 32.0355 26.8305 32.2888 27.6902 32.2722C29.5301 32.2382 30.6598 30.5878 31.6558 29.1323C32.6954 27.613 33.2179 26.1373 33.3935 25.573L33.4005 25.5502C33.4337 25.4498 33.3865 25.3406 33.2904 25.2969C33.2904 25.2969 33.2782 25.2916 33.2755 25.2908C32.9514 25.158 30.1094 23.8973 30.0797 20.4611C30.0517 17.6689 32.2114 16.1915 32.6447 15.9233L32.6648 15.9102C32.712 15.8805 32.7443 15.8324 32.7557 15.7774C32.7671 15.7224 32.7557 15.6656 32.7234 15.6193C31.2329 13.4377 28.9483 13.1092 28.0283 13.0699C27.8955 13.0568 27.7575 13.0498 27.6194 13.0498C26.5387 13.0498 25.5043 13.4578 24.6725 13.7854C24.0985 14.0117 23.6023 14.2074 23.2616 14.2074C22.8771 14.2074 22.3783 14.0091 21.8017 13.7811C21.0293 13.4744 20.1539 13.1276 19.2278 13.1276C19.206 13.1276 19.1842 13.1276 19.1623 13.1284C17.0078 13.1599 14.9722 14.3926 13.8504 16.3435L13.8495 16.3444Z" fill="black"/>
<path d="M28.0286 7.06658C26.7242 7.11987 25.1595 7.92277 24.2246 9.01835C23.4296 9.93832 22.6529 11.4742 22.8573 13.0215C22.8705 13.1185 22.9491 13.1927 23.0469 13.2006C23.1352 13.2076 23.2243 13.2111 23.3143 13.2111C24.5898 13.2111 25.9659 12.5052 26.9051 11.3694C27.894 10.1698 28.3938 8.63044 28.2426 7.25092C28.2304 7.14259 28.1352 7.06221 28.0286 7.06658Z" fill="black"/>
<path d="M43.0391 7.86255H45.5124C46.1616 7.86255 46.7373 7.99622 47.2405 8.26444C47.7438 8.53265 48.1352 8.90309 48.4147 9.37662C48.6943 9.85014 48.8341 10.3874 48.8341 10.9885C48.8341 11.5896 48.6943 12.1269 48.4147 12.6004C48.1352 13.074 47.7438 13.4444 47.2405 13.7118C46.7373 13.98 46.1616 14.1136 45.5124 14.1136H43.0391V7.86255ZM45.4766 13.703C46.0541 13.703 46.5626 13.5886 47.0038 13.3588C47.4441 13.1299 47.784 12.8093 48.0216 12.3986C48.2592 11.988 48.3789 11.518 48.3789 10.9877C48.3789 10.4573 48.2601 9.98731 48.0216 9.57669C47.7831 9.16606 47.4441 8.8463 47.0038 8.61652C46.5634 8.38762 46.0541 8.27317 45.4766 8.27317H43.4942V13.7021H45.4766V13.703Z" fill="black"/>
<path d="M50.9029 13.845C50.5491 13.6423 50.2704 13.361 50.0677 13.0011C49.865 12.6411 49.7637 12.2349 49.7637 11.7823C49.7637 11.3297 49.865 10.9235 50.0677 10.5635C50.2704 10.2036 50.5482 9.92225 50.9029 9.71956C51.2568 9.51687 51.6543 9.41553 52.0955 9.41553C52.5367 9.41553 52.9333 9.51687 53.288 9.71956C53.6419 9.92225 53.9206 10.2036 54.1233 10.5635C54.326 10.9235 54.4273 11.3297 54.4273 11.7823C54.4273 12.2349 54.326 12.6411 54.1233 13.0011C53.9206 13.361 53.6428 13.6423 53.288 13.845C52.9342 14.0477 52.5367 14.1491 52.0955 14.1491C51.6543 14.1491 51.2576 14.0477 50.9029 13.845ZM53.0548 13.4964C53.3378 13.3296 53.5606 13.098 53.7249 12.8001C53.8883 12.5022 53.9704 12.1632 53.9704 11.7823C53.9704 11.4014 53.8883 11.0624 53.7249 10.7645C53.5606 10.4665 53.3378 10.235 53.0548 10.0682C52.7717 9.90129 52.4519 9.81829 52.0946 9.81829C51.7373 9.81829 51.4175 9.90129 51.1345 10.0682C50.8514 10.235 50.6286 10.4674 50.4644 10.7645C50.3001 11.0624 50.2189 11.4014 50.2189 11.7823C50.2189 12.1632 50.301 12.5031 50.4644 12.8001C50.6277 13.098 50.8514 13.3304 51.1345 13.4964C51.4175 13.6633 51.7373 13.7463 52.0946 13.7463C52.4519 13.7463 52.7717 13.6633 53.0548 13.4964Z" fill="black"/>
<path d="M62.3352 9.45142L60.5669 14.1124H60.1475L58.5758 10.0674L56.9953 14.1124H56.5847L54.8164 9.45142H55.2454L56.7988 13.6127L58.388 9.45142H58.7724L60.3528 13.604L61.9246 9.45142H62.3352Z" fill="black"/>
<path d="M67.0326 9.92453C67.3716 10.2635 67.542 10.7519 67.542 11.3888V14.112H67.0955V11.4237C67.0955 10.8995 66.9627 10.5011 66.698 10.2268C66.4333 9.95336 66.0629 9.81619 65.5858 9.81619C65.038 9.81619 64.6065 9.98044 64.2911 10.3072C63.9757 10.6348 63.8175 11.0751 63.8175 11.6291V14.1111H63.3711V9.45013H63.8001V10.4592C63.9608 10.1316 64.2002 9.8756 64.5191 9.69126C64.8371 9.50692 65.2145 9.41431 65.6487 9.41431C66.2324 9.41431 66.6936 9.5838 67.0326 9.92365V9.92453Z" fill="black"/>
<path d="M69.3828 7.4873H69.8293V14.1132H69.3828V7.4873Z" fill="black"/>
<path d="M72.3424 13.8448C71.9877 13.6421 71.7099 13.3608 71.5072 13.0008C71.3045 12.6409 71.2031 12.2346 71.2031 11.782C71.2031 11.3295 71.3045 10.9232 71.5072 10.5633C71.7099 10.2033 71.9877 9.92201 72.3424 9.71932C72.6962 9.51663 73.0937 9.41528 73.5341 9.41528C73.9744 9.41528 74.3719 9.51663 74.7266 9.71932C75.0805 9.92201 75.3592 10.2033 75.5619 10.5633C75.7645 10.9232 75.865 11.3295 75.865 11.782C75.865 12.2346 75.7637 12.6409 75.5619 13.0008C75.3592 13.3608 75.0813 13.6421 74.7266 13.8448C74.3719 14.0475 73.9753 14.1488 73.5341 14.1488C73.0929 14.1488 72.6962 14.0475 72.3424 13.8448ZM74.4942 13.4962C74.7773 13.3293 75.0001 13.0978 75.1643 12.7999C75.3277 12.502 75.4098 12.163 75.4098 11.782C75.4098 11.4011 75.3277 11.0621 75.1643 10.7642C75.0001 10.4663 74.7773 10.2348 74.4942 10.0679C74.2112 9.90104 73.8914 9.81804 73.5341 9.81804C73.1767 9.81804 72.857 9.90104 72.5739 10.0679C72.2908 10.2348 72.0681 10.4672 71.9038 10.7642C71.7396 11.0621 71.6583 11.4011 71.6583 11.782C71.6583 12.163 71.7404 12.5028 71.9038 12.7999C72.0672 13.0978 72.2908 13.3302 72.5739 13.4962C72.857 13.6631 73.1767 13.7461 73.5341 13.7461C73.8914 13.7461 74.2112 13.6631 74.4942 13.4962Z" fill="black"/>
<path d="M80.1342 9.85758C80.4435 10.152 80.5981 10.5853 80.5981 11.1567V14.1123H80.1691V13.2815C80.0206 13.5549 79.8031 13.7681 79.5174 13.9201C79.2317 14.0722 78.8892 14.1482 78.4908 14.1482C77.9727 14.1482 77.5639 14.0259 77.2633 13.7821C76.9628 13.5383 76.8125 13.2168 76.8125 12.8176C76.8125 12.4183 76.9505 12.1169 77.2275 11.8758C77.5044 11.6346 77.9465 11.5141 78.5537 11.5141H80.1525V11.1393C80.1525 10.705 80.0346 10.3748 79.7996 10.1476C79.5646 9.92136 79.2203 9.80866 78.7678 9.80866C78.4585 9.80866 78.1623 9.86195 77.8793 9.96941C77.5962 10.0769 77.3568 10.2193 77.1602 10.3984L76.9366 10.0769C77.169 9.86894 77.4485 9.70644 77.7762 9.59024C78.1038 9.47404 78.4463 9.41638 78.8027 9.41638C79.3802 9.41638 79.824 9.56403 80.1333 9.85846L80.1342 9.85758ZM79.5401 13.5148C79.8109 13.3365 80.0145 13.077 80.1517 12.7381V11.8627H78.5625C78.1038 11.8627 77.7718 11.9456 77.5665 12.1125C77.3612 12.2794 77.2581 12.5083 77.2581 12.8001C77.2581 13.0919 77.3708 13.3435 77.5971 13.5191C77.8233 13.6947 78.1414 13.783 78.5528 13.783C78.9399 13.783 79.2684 13.6939 79.5392 13.5148H79.5401Z" fill="black"/>
<path d="M86.5889 7.4873V14.1132H86.1512V13.015C85.9669 13.3784 85.7074 13.658 85.3745 13.8546C85.0408 14.0512 84.6633 14.149 84.2405 14.149C83.8176 14.149 83.4131 14.0477 83.0619 13.845C82.7107 13.6423 82.4355 13.3627 82.2363 13.0054C82.0371 12.6481 81.9375 12.2409 81.9375 11.7823C81.9375 11.3236 82.0371 10.9147 82.2363 10.5548C82.4355 10.1948 82.7107 9.91523 83.0619 9.71516C83.4131 9.51596 83.8063 9.41636 84.2405 9.41636C84.6747 9.41636 85.0312 9.51421 85.3614 9.71079C85.6917 9.90736 85.952 10.1808 86.1425 10.532V7.4873H86.5889ZM85.2269 13.4973C85.5099 13.3304 85.7327 13.0989 85.897 12.801C86.0603 12.503 86.1425 12.164 86.1425 11.7831C86.1425 11.4022 86.0603 11.0632 85.897 10.7653C85.7327 10.4674 85.5099 10.2359 85.2269 10.069C84.9438 9.90212 84.624 9.81912 84.2667 9.81912C83.9094 9.81912 83.5896 9.90212 83.3065 10.069C83.0235 10.2359 82.8007 10.4683 82.6364 10.7653C82.4722 11.0632 82.3909 11.4022 82.3909 11.7831C82.3909 12.164 82.4731 12.5039 82.6364 12.801C82.7998 13.0989 83.0235 13.3313 83.3065 13.4973C83.5896 13.6641 83.9094 13.7471 84.2667 13.7471C84.624 13.7471 84.9438 13.6641 85.2269 13.4973Z" fill="black"/>
<path d="M91.3971 13.8448C91.0432 13.6421 90.7645 13.3608 90.5618 13.0008C90.3592 12.6409 90.2578 12.2346 90.2578 11.782C90.2578 11.3295 90.3592 10.9232 90.5618 10.5633C90.7645 10.2033 91.0424 9.92201 91.3971 9.71932C91.7509 9.51663 92.1484 9.41528 92.5896 9.41528C93.0308 9.41528 93.4275 9.51663 93.7813 9.71932C94.1352 9.92201 94.4139 10.2033 94.6165 10.5633C94.8192 10.9232 94.9197 11.3295 94.9197 11.782C94.9197 12.2346 94.8184 12.6409 94.6165 13.0008C94.4139 13.3608 94.136 13.6421 93.7813 13.8448C93.4275 14.0475 93.03 14.1488 92.5896 14.1488C92.1493 14.1488 91.7518 14.0475 91.3971 13.8448ZM93.5489 13.4962C93.832 13.3293 94.0548 13.0978 94.219 12.7999C94.3824 12.502 94.4645 12.163 94.4645 11.782C94.4645 11.4011 94.3824 11.0621 94.219 10.7642C94.0548 10.4663 93.832 10.2348 93.5489 10.0679C93.2659 9.90104 92.9461 9.81804 92.5888 9.81804C92.2314 9.81804 91.9117 9.90104 91.6286 10.0679C91.3455 10.2348 91.1227 10.4672 90.9585 10.7642C90.7942 11.0621 90.713 11.4011 90.713 11.782C90.713 12.163 90.7951 12.5028 90.9585 12.7999C91.1219 13.0978 91.3455 13.3302 91.6286 13.4962C91.9117 13.6631 92.2314 13.7461 92.5888 13.7461C92.9461 13.7461 93.2659 13.6631 93.5489 13.4962Z" fill="black"/>
<path d="M99.9662 9.92453C100.305 10.2635 100.476 10.7519 100.476 11.3888V14.112H100.029V11.4237C100.029 10.8995 99.8963 10.5011 99.6316 10.2268C99.3669 9.95336 98.9965 9.81619 98.5194 9.81619C97.9716 9.81619 97.54 9.98044 97.2247 10.3072C96.9093 10.6348 96.7511 11.0751 96.7511 11.6291V14.1111H96.3047V9.45013H96.7337V10.4592C96.8944 10.1316 97.1338 9.8756 97.4527 9.69126C97.7707 9.50692 98.1481 9.41431 98.5823 9.41431C99.1659 9.41431 99.6272 9.5838 99.9662 9.92365V9.92453Z" fill="black"/>
<path d="M106.92 13.8184C106.807 13.9258 106.666 14.0071 106.496 14.0639C106.326 14.1206 106.149 14.1486 105.965 14.1486C105.559 14.1486 105.247 14.0368 105.027 13.814C104.807 13.5903 104.697 13.2802 104.697 12.8809V9.83618H103.84V9.45264H104.697V8.43481H105.143V9.45264H106.626V9.83618H105.143V12.8364C105.143 13.1395 105.216 13.371 105.362 13.5283C105.508 13.6864 105.723 13.7651 106.009 13.7651C106.295 13.7651 106.542 13.6786 106.733 13.5065L106.92 13.8192V13.8184Z" fill="black"/>
<path d="M111.826 9.92488C112.165 10.2639 112.335 10.7522 112.335 11.3891V14.1124H111.889V11.4241C111.889 10.8999 111.756 10.5015 111.491 10.2272C111.226 9.95371 110.856 9.81654 110.379 9.81654C109.831 9.81654 109.399 9.98079 109.084 10.3075C108.769 10.6352 108.611 11.0755 108.611 11.6294V14.1115H108.164V7.4856H108.611V10.4237C108.771 10.1022 109.009 9.85411 109.325 9.6785C109.641 9.50289 110.013 9.41465 110.442 9.41465C111.025 9.41465 111.487 9.58415 111.826 9.924V9.92488Z" fill="black"/>
<path d="M118.12 11.8895H114.11C114.123 12.253 114.214 12.5753 114.387 12.8584C114.56 13.1415 114.794 13.3599 115.088 13.5145C115.383 13.6692 115.715 13.7469 116.084 13.7469C116.387 13.7469 116.669 13.6919 116.928 13.5818C117.187 13.4717 117.402 13.3092 117.575 13.0952L117.834 13.3896C117.631 13.6342 117.377 13.8212 117.07 13.9522C116.764 14.0833 116.432 14.1488 116.074 14.1488C115.61 14.1488 115.196 14.0475 114.833 13.8448C114.47 13.6421 114.186 13.3625 113.98 13.0052C113.775 12.6479 113.672 12.2407 113.672 11.782C113.672 11.3234 113.769 10.9232 113.962 10.5633C114.155 10.2033 114.421 9.92201 114.761 9.71932C115.1 9.51663 115.481 9.41528 115.904 9.41528C116.327 9.41528 116.706 9.51488 117.042 9.71408C117.379 9.91327 117.644 10.192 117.838 10.5493C118.031 10.9066 118.128 11.3111 118.128 11.7637L118.119 11.8886L118.12 11.8895ZM115.021 10.0277C114.759 10.1736 114.549 10.3789 114.391 10.6437C114.233 10.9084 114.142 11.2081 114.118 11.5409H117.69C117.672 11.2072 117.582 10.9101 117.422 10.648C117.261 10.3859 117.049 10.1806 116.787 10.0321C116.525 9.88357 116.231 9.80843 115.903 9.80843C115.576 9.80843 115.281 9.88182 115.019 10.0269L115.021 10.0277Z" fill="black"/>
<path d="M49.6497 27.9307H44.309L43.2562 30.4032H41.2109L46.0179 19.7208H47.9714L52.7931 30.4032H50.7182L49.6497 27.9307ZM48.9936 26.3738L46.9789 21.7041L44.9799 26.3738H48.9936Z" fill="black"/>
<path d="M60.6147 22.6822C61.2403 23.0281 61.7313 23.5165 62.0877 24.1473C62.4433 24.7781 62.6216 25.5059 62.6216 26.3297C62.6216 27.1536 62.4433 27.884 62.0877 28.5191C61.7313 29.1552 61.2412 29.6462 60.6147 29.9921C59.9892 30.3381 59.2798 30.5111 58.4856 30.5111C57.3865 30.5111 56.5172 30.145 55.876 29.412V33.3645H53.9688V22.2549H55.7851V23.3234C56.1005 22.9373 56.4893 22.6472 56.9523 22.4533C57.4154 22.2602 57.9265 22.1632 58.4856 22.1632C59.2789 22.1632 59.9883 22.3362 60.6147 22.6822ZM60.004 28.1758C60.4566 27.7084 60.6829 27.0924 60.6829 26.3297C60.6829 25.567 60.4566 24.9511 60.004 24.4828C59.5515 24.0154 58.974 23.7812 58.2724 23.7812C57.8146 23.7812 57.4023 23.8861 57.0362 24.094C56.6701 24.3028 56.3801 24.5999 56.166 24.9869C55.952 25.3739 55.8454 25.8213 55.8454 26.3297C55.8454 26.8382 55.952 27.2864 56.166 27.6726C56.3801 28.0596 56.6693 28.3566 57.0362 28.5654C57.4023 28.7743 57.8146 28.8782 58.2724 28.8782C58.974 28.8782 59.5515 28.6441 60.004 28.1767V28.1758Z" fill="black"/>
<path d="M71.0815 22.6822C71.7071 23.0281 72.1981 23.5165 72.5545 24.1473C72.9101 24.7781 73.0883 25.5059 73.0883 26.3297C73.0883 27.1536 72.9101 27.884 72.5545 28.5191C72.1981 29.1552 71.708 29.6462 71.0815 29.9921C70.456 30.3381 69.7466 30.5111 68.9524 30.5111C67.8533 30.5111 66.984 30.145 66.3428 29.412V33.3645H64.4355V22.2549H66.2519V23.3234C66.5673 22.9373 66.9561 22.6472 67.4191 22.4533C67.8822 22.2602 68.3933 22.1632 68.9524 22.1632C69.7457 22.1632 70.4551 22.3362 71.0815 22.6822ZM70.4708 28.1758C70.9234 27.7084 71.1497 27.0924 71.1497 26.3297C71.1497 25.567 70.9234 24.9511 70.4708 24.4828C70.0183 24.0154 69.4408 23.7812 68.7392 23.7812C68.2814 23.7812 67.8691 23.8861 67.503 24.094C67.1369 24.3028 66.8469 24.5999 66.6328 24.9869C66.4188 25.3739 66.3122 25.8213 66.3122 26.3297C66.3122 26.8382 66.4188 27.2864 66.6328 27.6726C66.8469 28.0596 67.1361 28.3566 67.503 28.5654C67.8691 28.7743 68.2814 28.8782 68.7392 28.8782C69.4408 28.8782 70.0183 28.6441 70.4708 28.1767V28.1758Z" fill="black"/>
<path d="M80.2218 30.2053C79.4538 29.9711 78.8458 29.661 78.3984 29.2748L79.0851 27.7337C79.5229 28.0796 80.0593 28.3618 80.6953 28.5803C81.3313 28.7996 81.9691 28.9088 82.6104 28.9088C83.4037 28.9088 83.996 28.7821 84.3883 28.527C84.7797 28.2727 84.9754 27.9372 84.9754 27.5196C84.9754 27.2147 84.8662 26.9622 84.6469 26.7639C84.4276 26.5656 84.1507 26.4109 83.8152 26.2982C83.4797 26.1864 83.0219 26.0597 82.4418 25.9164C81.6275 25.7234 80.9688 25.5303 80.4655 25.3363C79.9623 25.1433 79.5298 24.8401 79.1681 24.4286C78.8073 24.0162 78.6265 23.4597 78.6265 22.7573C78.6265 22.1675 78.7863 21.6302 79.107 21.1471C79.4276 20.664 79.9108 20.2795 80.5564 19.9947C81.202 19.7099 81.9936 19.5675 82.9293 19.5675C83.5802 19.5675 84.2214 19.6488 84.8522 19.8113C85.483 19.9738 86.0273 20.2079 86.4851 20.5128L85.8596 22.054C85.3913 21.7796 84.9029 21.5708 84.3944 21.4284C83.8859 21.286 83.3923 21.2152 82.9144 21.2152C82.1307 21.2152 81.5489 21.3472 81.1671 21.6119C80.7853 21.8766 80.5948 22.2278 80.5948 22.6647C80.5948 22.9696 80.704 23.2194 80.9233 23.4125C81.1418 23.6056 81.4196 23.7585 81.7551 23.8703C82.0906 23.9821 82.5484 24.1097 83.1285 24.2521C83.9218 24.4356 84.5726 24.626 85.082 24.8244C85.5905 25.0227 86.0256 25.3258 86.3864 25.7321C86.7472 26.1392 86.9281 26.6888 86.9281 27.3798C86.9281 27.9696 86.7682 28.5043 86.4475 28.9821C86.1269 29.46 85.6411 29.8418 84.9903 30.1267C84.3394 30.4115 83.5452 30.5539 82.6095 30.5539C81.7856 30.5539 80.9897 30.4368 80.2209 30.2027L80.2218 30.2053Z" fill="black"/>
<path d="M93.6139 29.9615C93.3903 30.1449 93.1177 30.2821 92.7979 30.3738C92.4773 30.4656 92.1392 30.511 91.7827 30.511C90.8872 30.511 90.1962 30.2769 89.7078 29.8095C89.2194 29.342 88.9756 28.6597 88.9756 27.7642V23.8423H87.6328V22.316H88.9756V20.4542H90.8829V22.316H93.0653V23.8423H90.8829V27.7188C90.8829 28.1154 90.979 28.4186 91.1729 28.6265C91.366 28.8353 91.6456 28.9393 92.0125 28.9393C92.4397 28.9393 92.7962 28.8275 93.081 28.6038L93.6148 29.9623L93.6139 29.9615Z" fill="black"/>
<path d="M96.3447 29.9764C95.6833 29.6208 95.167 29.1246 94.7957 28.4886C94.4244 27.8525 94.2383 27.1326 94.2383 26.3289C94.2383 25.5251 94.4235 24.8078 94.7957 24.177C95.167 23.5462 95.6833 23.0526 96.3447 22.697C97.0061 22.3414 97.7487 22.1632 98.5725 22.1632C99.3964 22.1632 100.155 22.3414 100.816 22.697C101.477 23.0535 101.994 23.5462 102.365 24.177C102.736 24.8078 102.922 25.5251 102.922 26.3289C102.922 27.1326 102.736 27.8525 102.365 28.4886C101.994 29.1246 101.477 29.6208 100.816 29.9764C100.155 30.3329 99.4069 30.5102 98.5725 30.5102C97.7382 30.5102 97.0061 30.332 96.3447 29.9764ZM100.312 28.1758C100.77 27.7084 100.999 27.0924 100.999 26.3297C100.999 25.567 100.77 24.9511 100.312 24.4828C99.8542 24.0154 99.2741 23.7812 98.5725 23.7812C97.871 23.7812 97.2935 24.0154 96.8409 24.4828C96.3884 24.9511 96.1621 25.5661 96.1621 26.3297C96.1621 27.0933 96.3884 27.7084 96.8409 28.1758C97.2935 28.6441 97.871 28.8773 98.5725 28.8773C99.2741 28.8773 99.8542 28.6432 100.312 28.1758Z" fill="black"/>
<path d="M109.467 22.1632V23.9796C109.305 23.949 109.157 23.9341 109.024 23.9341C108.282 23.9341 107.701 24.1508 107.285 24.5824C106.867 25.0149 106.659 25.6378 106.659 26.452V30.4045H104.752V22.2558H106.568V23.4458C107.118 22.5913 108.084 22.1641 109.468 22.1641L109.467 22.1632Z" fill="black"/>
<path d="M118.639 26.9396H112.245C112.357 27.5398 112.65 28.015 113.122 28.3662C113.596 28.7175 114.183 28.8931 114.884 28.8931C115.78 28.8931 116.517 28.5978 117.097 28.008L118.12 29.1831C117.754 29.6208 117.291 29.9511 116.731 30.1747C116.171 30.3984 115.541 30.5102 114.839 30.5102C113.944 30.5102 113.155 30.332 112.474 29.9764C111.793 29.6208 111.266 29.1246 110.894 28.4886C110.523 27.8525 110.338 27.1326 110.338 26.3289C110.338 25.5251 110.519 24.8209 110.88 24.1849C111.24 23.5488 111.742 23.0535 112.382 22.697C113.024 22.3414 113.745 22.1632 114.549 22.1632C115.353 22.1632 116.052 22.3388 116.678 22.69C117.304 23.0412 117.792 23.5349 118.143 24.17C118.494 24.8061 118.67 25.5408 118.67 26.3752C118.67 26.5071 118.66 26.6958 118.639 26.9396ZM113.001 24.2312C112.579 24.592 112.322 25.0734 112.23 25.6736H116.854C116.772 25.0839 116.523 24.6051 116.106 24.239C115.688 23.873 115.17 23.6895 114.549 23.6895C113.928 23.6895 113.422 23.8704 113 24.2312H113.001Z" fill="black"/>
</g>
</g>
<defs>
<clipPath id="clip0_1418_10066">
<rect width="1440" height="3984" fill="white" transform="translate(-401 -3559)"/>
</clipPath>
<clipPath id="clip1_1418_10066">
<rect width="131.532" height="40" fill="white"/>
</clipPath>
</defs>
</svg>
