<svg width="571" height="475" viewBox="0 0 571 475" fill="none" xmlns="http://www.w3.org/2000/svg">
<path d="M113.541 34.0459H0V220.157H113.541V34.0459Z" fill="#99BBEB"/>
<path d="M109.808 37.8364H5.94727V213.063H109.808V37.8364Z" fill="white"/>
<path d="M37.0107 108.103C40.919 99.6932 47.5347 97.0007 58.4006 97.0007C71.3385 97.0007 78.054 101.687 79.9598 108.512C56.7943 108.829 37.0107 108.106 37.0107 108.106V108.103Z" fill="#9BD6E8"/>
<path d="M53.8844 56.0938C48.4092 57.6306 48.6481 60.7073 46.8241 63.5661C45 66.4219 41.0312 68.3278 40.5562 70.2306C40.0813 72.1335 41.7783 76.1026 39.7637 78.3231C37.749 80.5436 37.0654 81.6569 37.861 83.8774C38.6535 86.0979 40.3989 89.589 40.5593 90.067C40.7166 90.5419 42.9399 93.8757 45.6383 94.3507C48.3366 94.8257 53.4125 95.6213 55.9535 96.7315C58.4915 97.8418 66.656 95.3097 71.1875 95.467C75.7189 95.6243 78.8044 92.2875 78.4868 90.067C78.1692 87.8465 81.8294 83.4024 81.8203 79.5937C81.8113 75.5036 77.059 72.4542 75.7915 69.7557C74.521 67.0572 75.9488 62.2985 71.1905 59.479C68.1836 57.6972 66.1115 57.8545 63.7338 57.0619C61.3532 56.2693 57.3874 55.1167 53.8965 56.0968L53.8844 56.0938Z" fill="#3A384D"/>
<path d="M60.5479 103.714C59.3106 105.541 58.4001 105.617 57.057 103.714C55.9892 102.201 53.8838 98.7585 53.8838 97.0129V79.5907C53.8838 77.8451 55.3116 76.4172 57.057 76.4172H60.5479C62.2933 76.4172 63.7211 77.8451 63.7211 79.5907V97.0129C63.7211 98.7585 61.6581 102.074 60.5479 103.714Z" fill="#F09959"/>
<path d="M60.5479 76.4172H57.057C55.3116 76.4172 53.8838 77.8451 53.8838 79.5907V95.1343C57.8042 96.3837 61.3797 93.9 63.7211 91.1077V79.5937C63.7211 77.8482 62.2933 76.4203 60.5479 76.4203V76.4172Z" fill="#E38540"/>
<path d="M58.8032 90.9745C64.6304 90.9745 69.3544 84.5369 69.3544 76.5957C69.3544 68.6544 64.6304 62.2168 58.8032 62.2168C52.9759 62.2168 48.252 68.6544 48.252 76.5957C48.252 84.5369 52.9759 90.9745 58.8032 90.9745Z" fill="#F09959"/>
<path d="M63.7211 65.1513C57.057 76.4172 47.2197 75.307 47.2197 75.307C47.2197 75.307 47.4587 60.3896 55.2723 59.597C63.0859 58.8044 67.6899 61.9416 69.275 67.1147C70.8632 72.2908 69.275 75.7033 69.275 75.7033C69.275 75.7033 66.7371 73.7187 65.4666 70.5453C64.1961 67.3718 63.7211 65.1513 63.7211 65.1513Z" fill="#3A384D"/>
<path d="M49.3316 76.3749C50.3177 78.4532 49.9941 80.6707 48.6116 81.3302C47.2262 81.9866 45.3023 80.837 44.3161 78.7587C43.33 76.6804 43.6537 74.4629 45.0361 73.8034C46.4215 73.1439 48.3454 74.2965 49.3316 76.3749Z" fill="#F09959"/>
<path d="M67.7994 76.3749C66.8133 78.4532 67.1339 80.6707 68.5194 81.3302C69.9048 81.9866 71.8287 80.837 72.8149 78.7587C73.801 76.6804 73.4804 74.4629 72.0949 73.8034C70.7095 73.1439 68.7856 74.2965 67.7994 76.3749Z" fill="#F09959"/>
<path d="M62.7685 84.3948C62.7685 84.3948 60.9928 86.697 58.8027 86.697C56.6126 86.697 54.8369 84.3948 54.8369 84.3948H62.7715H62.7685Z" fill="white"/>
<path d="M71.363 130.913H44.7158C43.0127 130.913 41.6182 129.519 41.6182 127.816C41.6182 126.112 43.0127 124.718 44.7158 124.718H71.363C73.0661 124.718 74.4606 126.112 74.4606 127.816C74.4606 129.519 73.0661 130.913 71.363 130.913Z" fill="#99BBEB"/>
<path d="M76.2418 140.434H39.8359C38.1328 140.434 36.7383 139.039 36.7383 137.336C36.7383 135.633 38.1328 134.238 39.8359 134.238H76.2418C77.9449 134.238 79.3394 135.633 79.3394 137.336C79.3394 139.039 77.9449 140.434 76.2418 140.434Z" fill="#99BBEB"/>
<path d="M102.318 174.673H13.7636C12.7745 174.673 11.9668 173.865 11.9668 172.876C11.9668 171.887 12.7745 171.079 13.7636 171.079H102.318C103.307 171.079 104.115 171.887 104.115 172.876C104.115 173.865 103.307 174.673 102.318 174.673Z" fill="#99BBEB"/>
<path d="M102.318 183.029H13.7636C12.7745 183.029 11.9668 182.221 11.9668 181.232C11.9668 180.243 12.7745 179.435 13.7636 179.435H102.318C103.307 179.435 104.115 180.243 104.115 181.232C104.115 182.221 103.307 183.029 102.318 183.029Z" fill="#99BBEB"/>
<path d="M102.318 191.387H13.7636C12.7745 191.387 11.9668 190.577 11.9668 189.59C11.9668 188.604 12.7745 187.793 13.7636 187.793H102.318C103.307 187.793 104.115 188.601 104.115 189.59C104.115 190.58 103.307 191.387 102.318 191.387Z" fill="#99BBEB"/>
<path d="M89.9333 110.169H26.148C24.3784 110.169 22.9385 108.729 22.9385 106.96V48.1707C22.9385 46.4009 24.3784 44.9609 26.148 44.9609H89.9333C91.7029 44.9609 93.1428 46.4009 93.1428 48.1707V106.96C93.1428 108.729 91.7029 110.169 89.9333 110.169ZM26.148 47.5717C25.8243 47.5717 25.5491 47.847 25.5491 48.1707V106.96C25.5491 107.283 25.8243 107.559 26.148 107.559H89.9333C90.2569 107.559 90.5322 107.283 90.5322 106.96V48.1707C90.5322 47.847 90.2569 47.5717 89.9333 47.5717H26.148Z" fill="#99BBEB"/>
<path d="M35.3534 148.517L37.1986 152.259L41.3278 152.858L38.3421 155.772L39.0469 159.886L35.3534 157.944L31.6599 159.886L32.3647 155.772L29.376 152.858L33.5051 152.259L35.3534 148.517Z" fill="#99BBEB"/>
<path d="M50.4784 148.517L52.3236 152.259L56.4528 152.858L53.4671 155.772L54.1719 159.886L50.4784 157.944L46.7849 159.886L47.4897 155.772L44.501 152.858L48.6301 152.259L50.4784 148.517Z" fill="#99BBEB"/>
<path d="M65.6034 148.517L67.4486 152.259L71.5778 152.858L68.5921 155.772L69.2969 159.886L65.6034 157.944L61.9099 159.886L62.6147 155.772L59.626 152.858L63.7581 152.259L65.6034 148.517Z" fill="#99BBEB"/>
<path d="M80.7283 148.517L82.5735 152.259L86.7057 152.858L83.717 155.772L84.4218 159.886L80.7283 157.944L77.0348 159.886L77.7396 155.772L74.7539 152.858L78.883 152.259L80.7283 148.517Z" fill="#99BBEB"/>
<path d="M366.667 34.0459H253.126V220.157H366.667V34.0459Z" fill="#99BBEB"/>
<path d="M362.931 37.8364H259.07V213.063H362.931V37.8364Z" fill="white"/>
<path d="M295.07 75.6458C295.07 83.9832 300.089 97.4334 311.929 97.0008C323.769 96.5682 326.385 83.7473 326.845 80.1291C327.305 76.511 295.07 75.6458 295.07 75.6458Z" fill="#7A4E34"/>
<path d="M290.137 108.103C294.045 99.6932 300.661 97.0007 311.527 97.0007C324.461 97.0007 331.18 101.687 333.086 108.512C309.92 108.829 290.137 108.106 290.137 108.106V108.103Z" fill="#D54A41"/>
<path d="M313.674 103.714C312.437 105.541 311.526 105.616 310.183 103.714C309.115 102.201 307.01 98.7582 307.01 97.0127V79.5904C307.01 77.8449 308.438 76.417 310.183 76.417H313.674C315.419 76.417 316.847 77.8449 316.847 79.5904V97.0127C316.847 98.7582 314.784 102.074 313.674 103.714Z" fill="#F09959"/>
<path d="M313.674 76.417H310.183C308.438 76.417 307.01 77.8449 307.01 79.5904V95.134C310.93 96.3834 314.506 93.8997 316.847 91.1074V79.5935C316.847 77.8479 315.419 76.42 313.674 76.42V76.417Z" fill="#E38540"/>
<path d="M311.929 90.9745C317.756 90.9745 322.48 84.5369 322.48 76.5957C322.48 68.6544 317.756 62.2168 311.929 62.2168C306.102 62.2168 301.378 68.6544 301.378 76.5957C301.378 84.5369 306.102 90.9745 311.929 90.9745Z" fill="#F09959"/>
<path d="M317.728 65.6655C316.473 70.0883 313.726 70.0369 309.897 71.489C306.064 72.9411 304.234 74.4023 302.981 77.2309C301.381 80.8369 303.707 91.3556 303.707 91.3556C303.707 91.3556 294.006 84.0951 295.128 72.6779C296.251 61.2608 302.981 56.8379 309.319 56.8379C315.656 56.8379 318.064 60.6981 318.064 60.6981C318.064 60.6981 321.44 60.7132 324.631 64.4917C328.921 69.574 327.602 81.9169 324.631 86.3368C321.661 90.7596 319.682 92.1452 319.749 91.9455C319.816 91.7489 322.52 81.5932 321.068 75.3129C319.616 69.0325 317.734 65.6624 317.734 65.6624L317.728 65.6655Z" fill="#7A4E34"/>
<path d="M315.894 84.3945C315.894 84.3945 314.119 86.6967 311.929 86.6967C309.739 86.6967 307.963 84.3945 307.963 84.3945H315.897H315.894Z" fill="white"/>
<path d="M324.489 130.913H297.842C296.139 130.913 294.744 129.519 294.744 127.816C294.744 126.112 296.139 124.718 297.842 124.718H324.489C326.192 124.718 327.587 126.112 327.587 127.816C327.587 129.519 326.192 130.913 324.489 130.913Z" fill="#99BBEB"/>
<path d="M329.368 140.434H292.962C291.259 140.434 289.864 139.039 289.864 137.336C289.864 135.633 291.259 134.238 292.962 134.238H329.368C331.071 134.238 332.465 135.633 332.465 137.336C332.465 139.039 331.071 140.434 329.368 140.434Z" fill="#99BBEB"/>
<path d="M355.444 174.673H266.89C265.9 174.673 265.093 173.865 265.093 172.876C265.093 171.887 265.9 171.079 266.89 171.079H355.444C356.433 171.079 357.24 171.887 357.24 172.876C357.24 173.865 356.433 174.673 355.444 174.673Z" fill="#99BBEB"/>
<path d="M355.444 183.029H266.89C265.9 183.029 265.093 182.221 265.093 181.232C265.093 180.243 265.9 179.435 266.89 179.435H355.444C356.433 179.435 357.24 180.243 357.24 181.232C357.24 182.221 356.433 183.029 355.444 183.029Z" fill="#99BBEB"/>
<path d="M355.444 191.387H266.89C265.9 191.387 265.093 190.577 265.093 189.59C265.093 188.604 265.9 187.793 266.89 187.793H355.444C356.433 187.793 357.24 188.601 357.24 189.59C357.24 190.58 356.433 191.387 355.444 191.387Z" fill="#99BBEB"/>
<path d="M343.056 110.169H279.271C277.501 110.169 276.062 108.729 276.062 106.96V48.1707C276.062 46.4009 277.501 44.9609 279.271 44.9609H343.056C344.826 44.9609 346.266 46.4009 346.266 48.1707V106.96C346.266 108.729 344.826 110.169 343.056 110.169ZM279.271 47.5717C278.947 47.5717 278.672 47.847 278.672 48.1707V106.96C278.672 107.283 278.947 107.559 279.271 107.559H343.056C343.38 107.559 343.655 107.283 343.655 106.96V48.1707C343.655 47.847 343.38 47.5717 343.056 47.5717H279.271Z" fill="#99BBEB"/>
<path d="M288.476 148.517L290.325 152.259L294.454 152.858L291.465 155.772L292.17 159.886L288.476 157.944L284.786 159.886L285.491 155.772L282.502 152.858L286.631 152.259L288.476 148.517Z" fill="#99BBEB"/>
<path d="M303.601 148.517L305.45 152.259L309.579 152.858L306.59 155.772L307.295 159.886L303.601 157.944L299.911 159.886L300.616 155.772L297.627 152.858L301.756 152.259L303.601 148.517Z" fill="#99BBEB"/>
<path d="M318.729 148.517L320.575 152.259L324.704 152.858L321.715 155.772L322.42 159.886L318.729 157.944L315.036 159.886L315.741 155.772L312.752 152.858L316.881 152.259L318.729 148.517Z" fill="#99BBEB"/>
<path d="M333.854 148.517L335.7 152.259L339.829 152.858L336.84 155.772L337.548 159.886L333.854 157.944L330.161 159.886L330.866 155.772L327.877 152.858L332.006 152.259L333.854 148.517Z" fill="#99BBEB"/>
<path opacity="0.2" d="M265.889 218.294H86.7061L99.3808 34.7356H272.351L265.889 218.294Z" fill="#99BBEB"/>
<path d="M260.607 0H105.527V254.2H260.607V0Z" fill="#99BBEB"/>
<path d="M255.504 5.1792H113.646V244.51H255.504V5.1792Z" fill="white"/>
<path d="M171.358 55.4491C171.258 55.1526 168.774 40.8948 168.478 35.3526C168.181 29.8074 177.386 29.0178 177.386 29.0178C177.386 29.0178 184.91 24.9579 190.355 27.0363C195.8 29.1146 199.505 32.6148 201.98 36.9681C204.454 41.3244 199.802 54.8985 199.802 54.8985L171.354 55.4461L171.358 55.4491Z" fill="#2E2D3D"/>
<path d="M154.287 101.254C154.254 101.021 154.922 95.4093 154.947 95.1824C156.202 83.3689 170.761 80.0442 185.294 80.0442C202.367 80.0442 213.949 83.1692 215.795 95.4456C215.849 95.8056 216.832 101.429 216.784 101.808C185.142 102.24 154.284 101.254 154.284 101.254H154.287Z" fill="#D5E1E8"/>
<path d="M188.225 89.2165C186.534 91.7123 185.294 91.8182 183.457 89.2165C181.996 87.1473 177.123 82.431 177.123 80.0471L179.123 56.2719C179.123 53.888 181.074 51.9368 183.457 51.9368H188.225C190.609 51.9368 192.56 53.888 192.56 56.2719L193.488 80.0471C193.488 82.431 189.74 86.9779 188.225 89.2165Z" fill="#F09959"/>
<path d="M188.224 51.9368H183.457C181.073 51.9368 179.122 53.888 179.122 56.2719L177.386 77.3637C182.74 79.0669 189.97 75.603 193.167 71.7852L192.562 56.2719C192.562 53.888 190.611 51.9368 188.227 51.9368H188.224Z" fill="#E38540"/>
<path d="M169.479 81.7805L177.123 95.9113C177.123 95.9113 181.216 92.5443 181.612 93.2068C182.008 93.8663 180.886 102.195 180.886 102.195C180.886 102.195 189.994 102.319 190.39 101.922C190.787 101.526 188.542 92.874 189.468 92.874C190.393 92.874 193.17 95.3819 193.17 95.3819L201.704 81.7805L199.828 81.3237L185.844 88.8474L170.888 81.4871L169.482 81.7775L169.479 81.7805Z" fill="#BDCCD4"/>
<path d="M178.221 88.2909L183.899 92.0997L182.138 102.21L189.794 101.783L187.883 92.5867L192.586 88.2909L190.375 86.2065H180.432L178.221 88.2909Z" fill="#D54A41"/>
<path d="M177.519 74.8528L170.498 81.5355C170.498 81.5355 177.652 94.2595 178.048 94.2595C178.445 94.2595 184.12 87.2441 184.12 87.2441L187.753 87.1805L193.491 93.2037L200.161 81.4054L193.361 74.1963C193.361 74.1963 187.553 85.4168 186.497 85.68C185.442 85.9432 185.436 86.0763 184.579 85.4168C183.723 84.7573 177.522 74.8558 177.522 74.8558L177.519 74.8528Z" fill="#D5E1E8"/>
<path d="M185.841 71.8155C193.8 71.8155 200.252 63.0225 200.252 52.1758C200.252 41.3291 193.8 32.5361 185.841 32.5361C177.882 32.5361 171.43 41.3291 171.43 52.1758C171.43 63.0225 177.882 71.8155 185.841 71.8155Z" fill="#F09959"/>
<path d="M172.907 51.8732C174.256 54.7108 173.814 57.7421 171.92 58.6406C170.03 59.5391 167.401 57.966 166.055 55.1283C164.706 52.2907 165.147 49.2594 167.041 48.3609C168.932 47.4624 171.56 49.0355 172.907 51.8732Z" fill="#F09959"/>
<path d="M198.128 51.8732C196.779 54.7108 197.221 57.7421 199.114 58.6406C201.005 59.5391 203.634 57.966 204.98 55.1283C206.329 52.2907 205.887 49.2594 203.994 48.3609C202.103 47.4624 199.474 49.0355 198.128 51.8732Z" fill="#F09959"/>
<path d="M192.236 60.2351C192.236 60.2351 189.374 64.8728 185.841 64.8728C182.308 64.8728 179.446 60.2351 179.446 60.2351H192.233H192.236Z" fill="white"/>
<path d="M177.386 38.8165C183.328 34.6599 185.999 35.3526 190.455 42.1836C194.91 49.0145 200.256 49.1355 200.256 49.1355L200.948 42.0535C200.948 42.0535 194.311 29.2175 185.406 30.8995C176.497 32.5815 171.43 40.6014 171.43 40.6014C171.43 40.6014 170.998 55.6307 172.241 56.145C173.484 56.6562 173.626 51.2925 174.519 50.2065C175.411 49.1174 173.629 43.9685 174.815 41.5937C176.004 39.2189 177.39 38.8226 177.39 38.8226L177.386 38.8165Z" fill="#2E2D3D"/>
<path d="M196.492 46.5398C198.567 48.8117 197.778 57.8269 198.867 57.727C199.956 57.6272 200.352 49.1143 200.056 48.2218C199.759 47.3294 196.492 46.5398 196.492 46.5398Z" fill="#2E2D3D"/>
<path d="M217.9 132.308H151.701C149.375 132.308 147.469 130.402 147.469 128.076C147.469 125.749 149.375 123.843 151.701 123.843H217.9C220.226 123.843 222.132 125.749 222.132 128.076C222.132 130.402 220.226 132.308 217.9 132.308Z" fill="#99BBEB"/>
<path d="M209.663 145.31H159.938C157.612 145.31 155.706 143.404 155.706 141.078C155.706 138.752 157.612 136.846 159.938 136.846H209.663C211.989 136.846 213.895 138.752 213.895 141.078C213.895 143.404 211.989 145.31 209.663 145.31Z" fill="#99BBEB"/>
<path d="M245.276 192.077H124.324C122.975 192.077 121.868 190.973 121.868 189.621C121.868 188.268 122.972 187.164 124.324 187.164H245.276C246.628 187.164 247.733 188.268 247.733 189.621C247.733 190.973 246.628 192.077 245.276 192.077Z" fill="#99BBEB"/>
<path d="M245.276 203.491H124.324C122.975 203.491 121.868 202.387 121.868 201.035C121.868 199.682 122.972 198.578 124.324 198.578H245.276C246.628 198.578 247.733 199.682 247.733 201.035C247.733 202.387 246.628 203.491 245.276 203.491Z" fill="#99BBEB"/>
<path d="M245.276 214.905H124.324C122.975 214.905 121.868 213.801 121.868 212.449C121.868 211.097 122.972 209.992 124.324 209.992H245.276C246.628 209.992 247.733 211.097 247.733 212.449C247.733 213.801 246.628 214.905 245.276 214.905Z" fill="#99BBEB"/>
<path d="M228.36 103.499H141.24C139.086 103.499 137.335 101.747 137.335 99.5931V19.2918C137.335 17.1378 139.086 15.3862 141.24 15.3862H228.36C230.514 15.3862 232.266 17.1378 232.266 19.2918V99.5901C232.266 101.744 230.514 103.496 228.36 103.496V103.499ZM141.24 17.997C140.526 17.997 139.946 18.5778 139.946 19.2918V99.5901C139.946 100.304 140.526 100.885 141.24 100.885H228.36C229.074 100.885 229.655 100.304 229.655 99.5901V19.2918C229.655 18.5778 229.074 17.997 228.36 17.997H141.24Z" fill="#99BBEB"/>
<path d="M143.319 156.352L145.842 161.465L151.48 162.282L147.399 166.26L148.364 171.878L143.319 169.228L138.276 171.878L139.238 166.26L135.157 162.282L140.796 161.465L143.319 156.352Z" fill="#99BBEB"/>
<path d="M163.977 156.352L166.5 161.465L172.141 162.282L168.061 166.26L169.023 171.878L163.977 169.228L158.934 171.878L159.896 166.26L155.815 162.282L161.457 161.465L163.977 156.352Z" fill="#99BBEB"/>
<path d="M184.637 156.352L187.16 161.465L192.799 162.282L188.718 166.26L189.68 171.878L184.637 169.228L179.591 171.878L180.556 166.26L176.476 162.282L182.114 161.465L184.637 156.352Z" fill="#99BBEB"/>
<path d="M205.295 156.352L207.818 161.465L213.457 162.282L209.376 166.26L210.341 171.878L205.295 169.228L200.25 171.878L201.215 166.26L197.134 162.282L202.772 161.465L205.295 156.352Z" fill="#99BBEB"/>
<path d="M226.283 156.352L228.805 161.465L234.444 162.282L230.363 166.26L231.325 171.878L226.283 169.228L221.237 171.878L222.202 166.26L218.121 162.282L223.76 161.465L226.283 156.352Z" fill="#99BBEB"/>
<path d="M407.589 306.082H177.093C175.708 306.082 174.585 307.205 174.585 308.59V312.351C174.585 313.736 175.708 314.858 177.093 314.858H407.589C408.974 314.858 410.097 313.736 410.097 312.351V308.59C410.097 307.205 408.974 306.082 407.589 306.082Z" fill="#2E5B9A"/>
<path d="M466.94 188.459C470.062 199.471 462.435 210.818 454.032 213.202C445.629 215.586 439.633 208.105 436.511 197.093C433.389 186.081 437.667 175.224 446.07 172.84C454.474 170.456 463.818 177.45 466.94 188.462V188.459Z" fill="#F09959"/>
<path d="M419.828 401.828C419.828 401.828 441.363 435.277 444.27 436.733C447.18 438.188 454.449 438.551 451.724 444.005C448.998 449.46 447.906 470.911 445.362 472.001C442.818 473.093 421.005 475.637 424.275 472.001C427.548 468.364 429.56 470.182 431.211 463.639C432.863 457.095 435.183 444.731 432.092 442.187C429.003 439.643 410.097 416.736 410.097 416.736L419.828 401.831V401.828Z" fill="#F09959"/>
<path d="M311.443 416.194C311.443 416.194 285.264 459.34 280.418 463.221C275.569 467.1 259.573 472.917 272.662 473.888C285.751 474.856 292.053 469.526 300.293 467.1C308.533 464.676 318.715 463.221 314.837 456.92C310.959 450.618 312.568 436.86 320.929 428.132C329.29 419.404 311.443 416.197 311.443 416.197V416.194Z" fill="#F09959"/>
<path d="M445.03 316.141C445.03 316.141 380.229 314.447 354.537 335.533C339.509 358.319 303.154 425.548 300.329 432.957C302.268 434.896 313.176 438.396 318.022 437.909C332.322 420.856 351.225 406.114 358.742 392.737C368.005 376.252 370.86 368.012 385.888 366.557C400.917 365.101 434.851 360.255 445.03 360.255C455.209 360.255 445.03 316.138 445.03 316.138V316.141Z" fill="#6791C9"/>
<path d="M501.54 474H498.143L473.782 372.368H481.257L501.54 474Z" fill="#2E5B9A"/>
<path d="M399.785 474H403.182L431.133 368.774H423.662L399.785 474Z" fill="#2E5B9A"/>
<path d="M481.947 311.7L444.271 318.205C444.271 318.205 394.204 318.664 371.32 322.927C350.499 326.805 347.431 350.465 371.32 383.041C384.89 401.546 396.364 416.309 419.829 432.954C425.797 428.57 428.081 426.913 429.73 416.37C428.033 414.04 423.634 399.468 422.27 396.615C409.293 369.485 391.969 359.617 391.73 356.948C394.64 352.223 468.771 381.586 483.511 364.312C497.584 347.821 481.947 311.697 481.947 311.697V311.7Z" fill="#75A1DE"/>
<path d="M483.511 226.401C473.589 225.01 463.482 226.894 454.032 233.737C445.774 242.157 436.426 256.042 437.001 278.943C437.727 308.031 432.5 309.897 437.954 317.896C460.699 327.289 499.601 367.646 490.438 324.379C483.804 293.05 504.985 269.698 487.9 234.948C486.508 232.119 484.772 229.375 483.514 226.398L483.511 226.401Z" fill="#F37168"/>
<path d="M436.995 289.891C436.554 305.054 434.412 309.522 436.049 314.275C445.32 315.222 462.281 318.933 466.519 324.866C471.368 331.652 476.215 332.623 473.952 327.613C471.689 322.603 465.712 315.494 474.923 291.092C484.134 266.691 488.496 250.207 479.448 233.241L436.995 289.891Z" fill="#D54A41"/>
<path d="M483.511 226.401C477.4 211.935 475.9 195.683 475.9 195.683L459.904 200.409C459.904 200.409 468.994 220.768 460.267 228.041C458.413 229.587 456.262 231.463 454.029 233.738C463.479 226.895 473.586 225.007 483.508 226.401H483.511Z" fill="#F09959"/>
<path d="M476.384 199.534C475.437 198.69 474.251 197.637 473.005 196.539L459.958 200.393C459.949 200.418 459.94 200.442 459.931 200.463C460.245 201.183 463.57 208.94 464.005 216.4C467.892 214.04 472.152 210.195 477.019 203.476C476.756 201.985 476.547 200.657 476.384 199.534Z" fill="#E38540"/>
<path d="M472.267 230.951C455.793 236.714 457.62 254.073 442.456 279.672C434.609 292.92 427.319 292.723 427.319 292.723C427.319 292.723 408.914 292.871 386.653 290.149C372.714 288.445 371.828 292.593 381.523 296.06C401.077 303.051 421.365 310.575 437.728 308.757C454.087 306.939 482.068 265.194 483.511 254.327C485.508 239.298 480.562 228.047 472.264 230.951H472.267Z" fill="#F09959"/>
<path d="M463.782 376.603C462.756 376.603 461.71 376.591 460.633 376.564C447.205 376.231 438.066 374.374 430.722 372.882C422.146 371.14 417.424 370.181 411.924 372.807C409.813 373.814 407.287 372.922 406.277 370.81C405.269 368.698 406.162 366.172 408.273 365.162C416.329 361.311 423.074 362.681 432.407 364.581C439.425 366.009 448.161 367.782 460.842 368.096C475.035 368.45 483.689 366.345 488.076 361.48C491.984 357.145 493.128 349.863 491.676 338.564C491.179 334.698 490.68 331.479 490.242 328.642C489.004 320.634 488.185 315.346 489.198 307.169C490.139 299.575 492.653 289.459 498.476 269.846C499.141 267.605 501.498 266.328 503.742 266.991C505.984 267.656 507.263 270.013 506.598 272.258C495.747 308.805 496.298 312.366 498.612 327.347C499.06 330.236 499.565 333.509 500.076 337.484C501.867 351.421 500.055 360.848 494.368 367.156C488.511 373.648 479.007 376.606 463.785 376.606L463.782 376.603Z" fill="#2E5B9A"/>
<path d="M313.221 452.557C295.852 461.052 286.504 465.92 280.935 465.457C279.62 465.348 278.531 465.212 277.617 465.07C271.422 468.73 261.536 473.056 272.659 473.882C285.748 474.85 292.049 469.52 300.289 467.094C308.53 464.67 318.712 463.215 314.834 456.914C314.089 455.707 313.551 454.224 313.221 452.557Z" fill="#D54A41"/>
<path d="M446.164 437.44C445.741 451.193 443.85 464.822 435.437 467.396C433.208 468.08 431.175 468.177 429.378 467.938C428.056 469.574 426.441 469.592 424.275 471.997C421.002 475.634 442.815 473.09 445.363 471.997C447.907 470.905 448.999 449.457 451.724 444.002C453.966 439.522 449.458 438.478 446.164 437.44Z" fill="#D54A41"/>
<path d="M379.261 307.287H324.081C322.433 307.287 320.935 306.331 320.24 304.836L297.939 256.841C296.953 254.72 297.876 252.2 299.996 251.214C302.12 250.228 304.637 251.151 305.623 253.271L326.783 298.816H379.261C381.599 298.816 383.496 300.713 383.496 303.051C383.496 305.39 381.599 307.287 379.261 307.287Z" fill="#75A1DE"/>
<path d="M390.807 290.627C379.656 290.466 368.6 283.82 363.104 284.788C357.61 285.759 339.672 298.202 341.935 298.686C344.197 299.17 358.418 291.8 358.902 291.688C359.386 291.577 362.456 296.792 370.052 298.71C377.648 300.625 370.106 293.017 393.647 300.129C408.954 304.751 390.804 290.627 390.804 290.627H390.807Z" fill="#F09959"/>
<path d="M481.871 213.202L483.51 226.404C483.51 226.404 469.081 227.263 461.903 231.302C454.725 235.341 444.128 247.015 444.128 247.015L452.786 232.11L454.032 222.574L481.871 213.202Z" fill="#F2E5DE"/>
<path d="M475.731 229.36C465.013 227.351 460.058 236.956 453.11 252.63C446.161 268.307 434.3 287.344 431.941 289.798C429.581 292.251 392.189 289.798 392.189 289.798C392.189 289.798 391.058 300.625 392.189 301.917C393.321 303.209 399.785 303.048 399.785 303.048C399.785 303.048 402.372 305.111 404.795 306.748C407.218 308.382 427.739 311.452 437.274 310.968C446.809 310.484 455.533 309.676 456.825 308.221C458.116 306.766 484.134 266.691 485.75 252.306C487.365 237.924 481.2 230.386 475.731 229.36Z" fill="#F2E5DE"/>
<path d="M444.128 163.428C423.86 164.399 427.04 194.891 427.04 194.891C427.04 194.891 432.303 196.515 443.332 194.697C442.485 191.424 442.848 183.062 442.848 183.062C442.848 183.062 444.131 189.851 445.758 193.971C448.091 195.039 450.729 194.092 455.212 193.009C457.514 202.699 464.02 206.792 468.476 208.193C473.398 209.741 478.61 211.587 484.427 208.677C490.244 205.766 487.047 176.034 483.955 170.054C479.318 161.078 471.613 153.046 458.282 157.287C451.597 159.414 444.131 163.428 444.131 163.428H444.128Z" fill="#303C60"/>
<path d="M479.376 199.643L487.661 211.747C487.661 211.747 478.478 234.693 505.188 245.091C526.106 253.232 523.641 267.581 514.191 282.008C504.738 296.435 519.848 309.035 519.848 309.035C519.848 309.035 522.153 293.053 542.475 290.037C570.187 285.922 578.034 248.715 557.333 230.11C540.206 214.715 534.994 227.463 523.399 213.647C511.804 199.831 489.918 209.164 489.918 209.164L481.896 197.465L479.376 199.646V199.643Z" fill="#303C60"/>
<path d="M566.865 267.59C566.744 267.59 566.623 267.559 566.511 267.499C566.154 267.302 566.024 266.854 566.217 266.497C573.187 253.761 567.5 238.333 564.641 234.155C564.339 233.713 564.051 233.262 563.746 232.787C560.936 228.401 557.439 222.943 538.781 219.582C534.285 218.775 530.649 216.103 526.795 213.275C518.84 207.433 509.819 200.811 490.226 209.832C489.854 210.002 489.419 209.841 489.249 209.472C489.08 209.103 489.24 208.664 489.609 208.495C509.992 199.114 519.384 206.005 527.667 212.089C531.378 214.812 534.881 217.386 539.041 218.136C558.334 221.609 562.022 227.369 564.986 231.995C565.286 232.461 565.567 232.899 565.857 233.326C568.852 237.703 574.811 253.87 567.512 267.211C567.379 267.456 567.125 267.596 566.865 267.596V267.59Z" fill="#303C60"/>
<path d="M474.95 212.044C473.625 212.044 472.191 211.929 470.646 211.696C463.555 210.634 454.041 206.604 453.297 183.973C453.285 183.567 453.603 183.225 454.008 183.213C454.423 183.204 454.755 183.519 454.767 183.924C455.076 193.251 456.924 200.155 460.267 204.438C462.805 207.693 466.172 209.536 470.863 210.238C477.425 211.221 481.775 210.008 483.789 206.635C483.998 206.287 484.452 206.172 484.8 206.38C485.147 206.589 485.262 207.043 485.054 207.391C483.205 210.483 479.814 212.041 474.947 212.041L474.95 212.044Z" fill="#303C60"/>
<path d="M199.293 474H204.738L225.922 312.06H213.943L199.293 474Z" fill="#2E5B9A"/>
<path d="M384.075 474H378.63L357.446 312.06H369.428L384.075 474Z" fill="#2E5B9A"/>
</svg>
