<svg width="19" height="20" viewBox="0 0 19 20" fill="none" xmlns="http://www.w3.org/2000/svg">
<g clip-path="url(#clip0_1936_637)">
<path d="M10.2695 8.43774V12.1533H15.4329C15.2062 13.3482 14.5258 14.36 13.5053 15.0403L16.619 17.4563C18.4332 15.7817 19.4798 13.3221 19.4798 10.4003C19.4798 9.71998 19.4188 9.06577 19.3054 8.43785L10.2695 8.43774Z" fill="#4285F4"/>
<path d="M4.89313 12.0083L4.19087 12.5459L1.70508 14.4821C3.28374 17.6132 6.51934 19.7763 10.2697 19.7763C12.8601 19.7763 15.0318 18.9216 16.6192 17.4563L13.5055 15.0403C12.6508 15.616 11.5605 15.9649 10.2697 15.9649C7.77528 15.9649 5.65591 14.2816 4.89705 12.0138L4.89313 12.0083Z" fill="#34A853"/>
<path d="M1.70489 5.88232C1.05078 7.17312 0.675781 8.6297 0.675781 10.1822C0.675781 11.7346 1.05078 13.1912 1.70489 14.482C1.70489 14.4907 4.89717 12.005 4.89717 12.005C4.70529 11.4294 4.59187 10.8189 4.59187 10.1821C4.59187 9.54529 4.70529 8.93479 4.89717 8.35915L1.70489 5.88232Z" fill="#FBBC05"/>
<path d="M10.2699 4.40834C11.6829 4.40834 12.9388 4.89675 13.9419 5.83873L16.6892 3.09136C15.0233 1.53888 12.8604 0.588135 10.2699 0.588135C6.51953 0.588135 3.28374 2.74245 1.70508 5.88235L4.89726 8.35938C5.65602 6.09165 7.77548 4.40834 10.2699 4.40834Z" fill="#EA4335"/>
</g>
<defs>
<clipPath id="clip0_1936_637">
<rect width="18.8235" height="20" fill="white" transform="translate(0.0878906)"/>
</clipPath>
</defs>
</svg>
