<svg width="132" height="40" viewBox="0 0 132 40" fill="none" xmlns="http://www.w3.org/2000/svg">
<rect width="132" height="40" fill="#C8C8C8"/>
<g clip-path="url(#clip0_1418_10066)">
<rect width="1440" height="3984" transform="translate(-243 -3559)" fill="#F6F6F7"/>
<rect x="-243" y="-70" width="1440" height="495" fill="#2B1845"/>
<rect x="-118" y="-245" width="1191" height="344" rx="15" fill="#F7F3FF"/>
<g clip-path="url(#clip1_1418_10066)">
<path d="M31.7626 19.4894L26.7334 16.5975L22.5977 20.5815L26.3774 24.2229L31.7626 21.1258C32.0589 20.9554 32.236 20.6496 32.236 20.308C32.236 19.9664 32.0589 19.6606 31.7626 19.4894Z" fill="#FFD109"/>
<path d="M25.8803 16.1057L20.3452 12.9229L8.2168 6.72949L21.9155 19.9245L25.8803 16.1057Z" fill="#06EF79"/>
<path d="M8.41797 34.2393L20.3658 27.6807L25.5229 24.7137L21.915 21.2383L8.41797 34.2393Z" fill="#F93646"/>
<path d="M7.40768 7.26367L7.39453 33.9123L21.2344 20.5819L7.40768 7.26367Z" fill="#05D5FB"/>
<path d="M126.898 0.873668C129.228 0.873668 131.123 2.76254 131.123 5.08387V34.9153C131.123 37.2375 129.228 39.1263 126.898 39.1263H5.10282C2.77236 39.1263 0.876773 37.2375 0.876773 34.9153V5.08387C0.876773 2.76254 2.77236 0.873668 5.10282 0.873668H126.898ZM126.898 0H5.10282C2.28399 0 0 2.2759 0 5.08387V34.9153C0 37.7232 2.28399 40 5.10282 40H126.898C129.716 40 132 37.7241 132 34.9153V5.08387C132 2.2759 129.716 0 126.898 0Z" fill="#2B1845"/>
<path d="M43.2609 24.1621H45.1021V28.3234C44.5629 28.7506 43.9351 29.0791 43.2161 29.308C42.4981 29.5369 41.7589 29.6513 41.0014 29.6513C39.9335 29.6513 38.9708 29.4198 38.1124 28.9576C37.2541 28.4955 36.5807 27.8568 36.0924 27.0408C35.6031 26.2257 35.3594 25.3057 35.3594 24.2818C35.3594 23.2578 35.604 22.3379 36.0924 21.5227C36.5807 20.7076 37.2576 20.0689 38.1203 19.6068C38.9831 19.1446 39.9537 18.9131 41.0312 18.9131C41.9089 18.9131 42.7076 19.0572 43.4257 19.3456C44.1438 19.6339 44.7479 20.0567 45.2362 20.6132L44.0087 21.8067C43.21 21.0116 42.2473 20.6132 41.1198 20.6132C40.3815 20.6132 39.7257 20.7679 39.1514 21.0754C38.5771 21.3838 38.1282 21.8163 37.8047 22.3728C37.4803 22.9293 37.3181 23.5662 37.3181 24.2818C37.3181 24.9973 37.4803 25.6045 37.8047 26.161C38.1291 26.7176 38.578 27.1553 39.1514 27.4733C39.7248 27.7913 40.3763 27.9503 41.1049 27.9503C41.9229 27.9503 42.641 27.7712 43.26 27.413V24.1621H43.2609Z" fill="#2B1845"/>
<path d="M48.8879 29.0842C48.2391 28.7365 47.7332 28.2516 47.3685 27.6304C47.0038 27.0092 46.8223 26.3059 46.8223 25.5205C46.8223 24.7351 47.0046 24.0344 47.3685 23.4176C47.7324 22.8017 48.2391 22.3194 48.8879 21.9708C49.5368 21.6231 50.2645 21.4492 51.0729 21.4492C51.8812 21.4492 52.6239 21.6231 53.2727 21.9708C53.9215 22.3185 54.4274 22.8008 54.7921 23.4176C55.156 24.0344 55.3384 24.7351 55.3384 25.5205C55.3384 26.3059 55.156 27.0092 54.7921 27.6304C54.4274 28.2516 53.9215 28.7365 53.2727 29.0842C52.6239 29.4319 51.8909 29.6058 51.0729 29.6058C50.2548 29.6058 49.5359 29.4319 48.8879 29.0842ZM52.7791 27.3246C53.228 26.8677 53.4524 26.2657 53.4524 25.5205C53.4524 24.7753 53.228 24.1733 52.7791 23.7164C52.3302 23.2595 51.7611 23.0306 51.0729 23.0306C50.3846 23.0306 49.8182 23.2595 49.3746 23.7164C48.93 24.1742 48.7082 24.7753 48.7082 25.5205C48.7082 26.2657 48.93 26.8677 49.3746 27.3246C49.8182 27.7824 50.3846 28.0105 51.0729 28.0105C51.7611 28.0105 52.3302 27.7816 52.7791 27.3246Z" fill="#2B1845"/>
<path d="M58.5422 29.0842C57.8934 28.7365 57.3875 28.2516 57.0228 27.6304C56.6581 27.0092 56.4766 26.3059 56.4766 25.5205C56.4766 24.7351 56.6581 24.0344 57.0228 23.4176C57.3867 22.8017 57.8934 22.3194 58.5422 21.9708C59.1911 21.6231 59.9188 21.4492 60.7272 21.4492C61.5355 21.4492 62.2782 21.6231 62.927 21.9708C63.5758 22.3185 64.0817 22.8008 64.4464 23.4176C64.8103 24.0344 64.9927 24.7351 64.9927 25.5205C64.9927 26.3059 64.8103 27.0092 64.4464 27.6304C64.0817 28.2516 63.5758 28.7365 62.927 29.0842C62.2782 29.4319 61.5452 29.6058 60.7272 29.6058C59.9091 29.6058 59.1902 29.4319 58.5422 29.0842ZM62.4334 27.3246C62.8823 26.8677 63.1067 26.2657 63.1067 25.5205C63.1067 24.7753 62.8823 24.1733 62.4334 23.7164C61.9845 23.2595 61.4154 23.0306 60.7272 23.0306C60.0389 23.0306 59.4725 23.2595 59.0288 23.7164C58.5843 24.1742 58.3625 24.7753 58.3625 25.5205C58.3625 26.2657 58.5843 26.8677 59.0288 27.3246C59.4725 27.7824 60.0389 28.0105 60.7272 28.0105C61.4154 28.0105 61.9845 27.7816 62.4334 27.3246Z" fill="#2B1845"/>
<path d="M74.7187 21.5383V28.2944C74.7187 31.098 73.2816 32.5002 70.4084 32.5002C69.6404 32.5002 68.9118 32.4033 68.2235 32.2093C67.5353 32.0154 66.9662 31.734 66.5173 31.3671L67.3555 29.9649C67.7045 30.2532 68.1464 30.4847 68.6803 30.6585C69.2143 30.8324 69.7552 30.9198 70.3041 30.9198C71.1818 30.9198 71.8253 30.7206 72.2348 30.3231C72.6442 29.9255 72.8485 29.3192 72.8485 28.5032V28.0856C72.5294 28.4333 72.1401 28.6972 71.6815 28.8763C71.2221 29.0554 70.7188 29.1445 70.17 29.1445C69.4115 29.1445 68.7259 28.9829 68.1122 28.6596C67.4984 28.3363 67.0144 27.882 66.6602 27.2949C66.306 26.7087 66.1289 26.0377 66.1289 25.282C66.1289 24.5263 66.306 23.8579 66.6602 23.2761C67.0144 22.6942 67.4984 22.2451 68.1122 21.9262C68.7259 21.6082 69.4115 21.4492 70.17 21.4492C70.7486 21.4492 71.2747 21.5436 71.749 21.7323C72.2225 21.921 72.6197 22.2093 72.9388 22.5972V21.5383H74.7195H74.7187ZM72.1971 26.9297C72.6512 26.5069 72.8783 25.9582 72.8783 25.282C72.8783 24.6058 72.6512 24.0737 72.1971 23.6561C71.7429 23.2385 71.1616 23.0297 70.4532 23.0297C69.7447 23.0297 69.1485 23.2385 68.6943 23.6561C68.2402 24.0737 68.0131 24.6154 68.0131 25.282C68.0131 25.9486 68.2402 26.5078 68.6943 26.9297C69.1485 27.3526 69.7342 27.5631 70.4532 27.5631C71.1721 27.5631 71.7429 27.3517 72.1971 26.9297Z" fill="#2B1845"/>
<path d="M77.1758 18.4355H79.0468V29.5014H77.1758V18.4355Z" fill="#2B1845"/>
<path d="M88.9826 26.1166H82.712C82.8215 26.7037 83.1083 27.1676 83.5729 27.5109C84.0368 27.8543 84.6128 28.0255 85.3019 28.0255C86.1796 28.0255 86.9029 27.7372 87.472 27.1606L88.475 28.3086C88.1155 28.7358 87.6613 29.0591 87.1134 29.2784C86.5645 29.4968 85.9464 29.6069 85.2572 29.6069C84.3787 29.6069 83.6054 29.433 82.9373 29.0853C82.2683 28.7376 81.7528 28.2527 81.388 27.6315C81.0233 27.0103 80.8418 26.307 80.8418 25.5216C80.8418 24.7362 81.0189 24.0477 81.3731 23.4265C81.7273 22.8054 82.2183 22.3205 82.847 21.9728C83.4756 21.625 84.1841 21.4512 84.9723 21.4512C85.7605 21.4512 86.4461 21.6224 87.0599 21.9658C87.6736 22.3091 88.1523 22.7914 88.4969 23.4126C88.8415 24.0337 89.0133 24.7528 89.0133 25.5679C89.0133 25.6972 89.0037 25.8807 88.9835 26.1201L88.9826 26.1166ZM83.4528 23.4693C83.039 23.8223 82.7865 24.2923 82.697 24.8786H87.2317C87.1519 24.302 86.9073 23.8345 86.4987 23.4763C86.0893 23.1181 85.5808 22.939 84.9723 22.939C84.3638 22.939 83.8667 23.1155 83.4528 23.4685V23.4693Z" fill="#2B1845"/>
<path d="M101.8 19.5098C102.473 19.8077 102.99 20.2358 103.349 20.7924C103.709 21.3489 103.888 22.0103 103.888 22.7756C103.888 23.5409 103.709 24.1901 103.349 24.7518C102.99 25.3136 102.473 25.7434 101.8 26.0422C101.127 26.3402 100.336 26.4895 99.4274 26.4895H97.0628V29.502H95.1172V19.0625H99.4274C100.335 19.0625 101.126 19.2119 101.8 19.5098ZM101.269 24.3124C101.708 23.9542 101.927 23.4422 101.927 22.7765C101.927 22.1107 101.708 21.5979 101.269 21.2406C100.829 20.8823 100.186 20.7032 99.338 20.7032H97.0628V24.8488H99.338C100.186 24.8488 100.829 24.6697 101.269 24.3115V24.3124Z" fill="#2B1845"/>
<path d="M105.805 18.4355H107.676V29.5014H105.805V18.4355Z" fill="#2B1845"/>
<path d="M115.885 22.2913C116.508 22.8531 116.82 23.7006 116.82 24.8337V29.5017H115.055V28.5319C114.825 28.8797 114.498 29.1461 114.074 29.3296C113.65 29.5131 113.139 29.6057 112.54 29.6057C111.941 29.6057 111.418 29.5035 110.969 29.2999C110.52 29.0963 110.173 28.8133 109.929 28.4498C109.684 28.0872 109.562 27.6766 109.562 27.2197C109.562 26.5042 109.829 25.9293 110.363 25.4968C110.897 25.0644 111.738 24.8477 112.885 24.8477H114.95V24.728C114.95 24.1715 114.783 23.7434 114.449 23.4454C114.115 23.1475 113.618 22.9981 112.96 22.9981C112.511 22.9981 112.069 23.068 111.635 23.2069C111.201 23.3467 110.835 23.5398 110.535 23.7888L109.802 22.432C110.221 22.114 110.724 21.8702 111.313 21.7016C111.902 21.533 112.526 21.4482 113.184 21.4482C114.362 21.4482 115.262 21.7296 115.886 22.2905L115.885 22.2913ZM114.179 27.9282C114.543 27.7142 114.799 27.4084 114.949 27.0109V26.0865H113.019C111.941 26.0865 111.402 26.4395 111.402 27.1454C111.402 27.4835 111.537 27.7518 111.806 27.951C112.075 28.1501 112.45 28.2489 112.928 28.2489C113.407 28.2489 113.814 28.1423 114.178 27.9282H114.179Z" fill="#2B1845"/>
<path d="M126.548 21.538L122.807 30.1427C122.458 31.0076 122.034 31.6166 121.535 31.9696C121.036 32.3225 120.432 32.499 119.724 32.499C119.325 32.499 118.931 32.4343 118.541 32.305C118.152 32.1757 117.833 31.9966 117.584 31.7677L118.333 30.3961C118.512 30.5647 118.724 30.6992 118.968 30.7988C119.213 30.8984 119.459 30.9482 119.709 30.9482C120.039 30.9482 120.311 30.8635 120.525 30.6949C120.739 30.5254 120.936 30.2423 121.116 29.8448L121.251 29.532L117.764 21.538H119.709L122.224 27.4291L124.753 21.538H126.549H126.548Z" fill="#2B1845"/>
<path d="M38.7058 13.2662C38.2832 13.2662 37.8895 13.1745 37.5239 12.991C37.1583 12.8076 36.84 12.5612 36.5691 12.251C36.2973 11.9417 36.086 11.5923 35.9352 11.2044C35.7844 10.8165 35.709 10.4146 35.709 9.99958C35.709 9.58459 35.7844 9.15649 35.9352 8.76859C36.086 8.38068 36.2955 8.03645 36.5647 7.73591C36.833 7.43537 37.1504 7.19948 37.5151 7.02737C37.8799 6.85613 38.2771 6.77051 38.7058 6.77051C39.3274 6.77051 39.8403 6.89981 40.2445 7.15842C40.6487 7.41702 40.9538 7.75426 41.159 8.16925L40.5347 8.60259C40.348 8.22953 40.0911 7.95345 39.7649 7.7726C39.4388 7.59176 39.0802 7.50177 38.6874 7.50177C38.3612 7.50177 38.0658 7.57079 37.8001 7.70883C37.5344 7.84687 37.3065 8.03558 37.1162 8.27234C36.9259 8.50998 36.7813 8.77907 36.6813 9.07961C36.5814 9.38015 36.5323 9.69293 36.5323 10.0179C36.5323 10.3604 36.5884 10.6837 36.6997 10.9877C36.8111 11.2917 36.9698 11.5591 37.1749 11.7906C37.3801 12.0221 37.6186 12.2038 37.8904 12.3366C38.1622 12.4686 38.455 12.535 38.7689 12.535C39.1372 12.535 39.487 12.4415 39.8193 12.2554C40.1516 12.0693 40.4655 11.7836 40.761 11.3983V12.237C40.1814 12.9229 39.4966 13.2654 38.7058 13.2654V13.2662ZM40.661 10.6409H39.2757V10.0275H41.3493V13.2208H40.661V10.6409Z" fill="#2B1845"/>
<path d="M46.9535 12.4996V13.2213H42.5898V6.81641H46.872V7.53806H43.4044V9.61302H46.4196V10.2892H43.4044V12.4996H46.9535Z" fill="#2B1845"/>
<path d="M52.7022 7.53806H50.4839V13.2213H49.6694V7.53806H47.4512V6.81641H52.7022V7.53806Z" fill="#2B1845"/>
<path d="M55.6445 13.2213V6.81641H56.4591V13.2213H55.6445Z" fill="#2B1845"/>
<path d="M58.8126 8.31387V13.2213H57.998V6.81641H58.6863L62.6151 11.8234V6.82514H63.4297V13.2213H62.687L58.8126 8.31387Z" fill="#2B1845"/>
<path d="M69.8669 13.2662C69.4144 13.2662 69.0041 13.1762 68.6359 12.9954C68.2676 12.8145 67.9494 12.5699 67.6811 12.2598C67.4128 11.9496 67.2059 11.601 67.0612 11.2131C66.9165 10.8252 66.8438 10.4268 66.8438 10.0179C66.8438 9.60905 66.9209 9.18358 67.0743 8.79567C67.2287 8.40776 67.4426 8.06179 67.717 7.75863C67.9914 7.45459 68.3132 7.21433 68.6815 7.03698C69.0497 6.85962 69.4513 6.77051 69.8853 6.77051C70.3193 6.77051 70.748 6.86399 71.1163 7.05008C71.4845 7.23617 71.801 7.48604 72.0667 7.79881C72.3324 8.11159 72.5375 8.46018 72.6822 8.84547C72.8268 9.23076 72.8996 9.62478 72.8996 10.0275C72.8996 10.4548 72.8242 10.8619 72.6734 11.2498C72.5226 11.6377 72.3096 11.9837 72.0351 12.2868C71.7607 12.5909 71.4389 12.8294 71.0707 13.0041C70.7024 13.1789 70.3009 13.2654 69.8669 13.2654V13.2662ZM67.667 10.0188C67.667 10.3438 67.7196 10.6583 67.8257 10.9615C67.931 11.2655 68.0809 11.5346 68.2738 11.7688C68.4667 12.0029 68.699 12.1899 68.9708 12.3279C69.2426 12.4659 69.5442 12.535 69.8765 12.535C70.2088 12.535 70.528 12.4625 70.7998 12.3183C71.0716 12.1741 71.3021 11.9819 71.4924 11.7408C71.6827 11.5005 71.8273 11.2297 71.9273 10.9292C72.0272 10.6286 72.0763 10.3246 72.0763 10.0179C72.0763 9.69293 72.0237 9.38015 71.9176 9.07961C71.8124 8.77907 71.6607 8.50998 71.4652 8.27234C71.2688 8.03471 71.0365 7.84861 70.7682 7.7132C70.4999 7.57778 70.2027 7.5105 69.8765 7.5105C69.5328 7.5105 69.2251 7.58127 68.9533 7.72281C68.6815 7.86434 68.4509 8.0548 68.2606 8.29593C68.0704 8.53619 67.9239 8.80528 67.8213 9.1032C67.7188 9.40112 67.667 9.70603 67.667 10.0188Z" fill="#2B1845"/>
<path d="M74.8458 8.31387V13.2213H74.0312V6.81641H74.7195L78.6492 11.8234V6.82514H79.4637V13.2213H78.7211L74.8466 8.31387H74.8458Z" fill="#2B1845"/>
</g>
</g>
<defs>
<clipPath id="clip0_1418_10066">
<rect width="1440" height="3984" fill="white" transform="translate(-243 -3559)"/>
</clipPath>
<clipPath id="clip1_1418_10066">
<rect width="132" height="40" fill="white"/>
</clipPath>
</defs>
</svg>
