<svg width="94" height="28" viewBox="0 0 94 28" fill="none" xmlns="http://www.w3.org/2000/svg">
<rect width="94" height="28" fill="#C8C8C8"/>
<g clip-path="url(#clip0_1418_10066)">
<rect width="1440" height="3984" transform="translate(-1096 -3814)" fill="#F6F6F7"/>
<rect x="-1096" y="-325" width="1440" height="495" fill="#2B1845"/>
<g clip-path="url(#clip1_1418_10066)">
<path d="M22.6164 13.6425L19.035 11.6182L16.0898 14.4069L18.7815 16.9559L22.6164 14.7879C22.8274 14.6687 22.9535 14.4546 22.9535 14.2155C22.9535 13.9764 22.8274 13.7623 22.6164 13.6425Z" fill="#FFD109"/>
<path d="M18.4301 11.2743L14.4885 9.04634L5.85156 4.71094L15.6067 13.9474L18.4301 11.2743Z" fill="#24F089"/>
<path d="M5.99609 23.9679L14.5044 19.3769L18.1769 17.3L15.6076 14.8672L5.99609 23.9679Z" fill="#F93646"/>
<path d="M5.27499 5.08496L5.26562 23.739L15.1213 14.4077L5.27499 5.08496Z" fill="#05D5FB"/>
<path d="M90.3668 0.611567C92.0257 0.611567 93.3756 1.93378 93.3756 3.55871V24.4407C93.3756 26.0662 92.0257 27.3884 90.3668 27.3884H3.63383C1.97425 27.3884 0.624369 26.0662 0.624369 24.4407V3.55871C0.624369 1.93378 1.97425 0.611567 3.63383 0.611567H90.3668ZM90.3668 0H3.63383C1.62648 0 0 1.59313 0 3.55871V24.4407C0 26.4063 1.62648 28 3.63383 28H90.3668C92.3735 28 94 26.4069 94 24.4407V3.55871C94 1.59313 92.3735 0 90.3668 0Z" fill="white"/>
<path d="M30.8065 16.9136H32.1177V19.8265C31.7337 20.1255 31.2866 20.3555 30.7747 20.5157C30.2633 20.6759 29.737 20.756 29.1975 20.756C28.437 20.756 27.7515 20.594 27.1402 20.2704C26.5289 19.9469 26.0494 19.4999 25.7017 18.9287C25.3533 18.3581 25.1797 17.7141 25.1797 16.9973C25.1797 16.2806 25.3539 15.6366 25.7017 15.066C26.0494 14.4954 26.5314 14.0484 27.1458 13.7248C27.7602 13.4013 28.4514 13.2393 29.2187 13.2393C29.8437 13.2393 30.4125 13.3402 30.9239 13.542C31.4352 13.7438 31.8654 14.0398 32.2132 14.4294L31.3391 15.2648C30.7703 14.7082 30.0847 14.4294 29.2818 14.4294C28.7561 14.4294 28.289 14.5376 27.8801 14.7529C27.4711 14.9688 27.1514 15.2715 26.9211 15.6611C26.69 16.0506 26.5745 16.4965 26.5745 16.9973C26.5745 17.4982 26.69 17.9233 26.9211 18.3128C27.1521 18.7024 27.4717 19.0088 27.8801 19.2314C28.2884 19.454 28.7523 19.5653 29.2712 19.5653C29.8537 19.5653 30.3651 19.4399 30.8059 19.1892V16.9136H30.8065Z" fill="white"/>
<path d="M34.8148 20.3591C34.3527 20.1157 33.9925 19.7763 33.7327 19.3415C33.473 18.9067 33.3438 18.4144 33.3438 17.8646C33.3438 17.3148 33.4736 16.8243 33.7327 16.3925C33.9918 15.9614 34.3527 15.6238 34.8148 15.3798C35.2768 15.1364 35.795 15.0146 36.3707 15.0146C36.9464 15.0146 37.4752 15.1364 37.9372 15.3798C38.3993 15.6232 38.7595 15.9607 39.0193 16.3925C39.2784 16.8243 39.4082 17.3148 39.4082 17.8646C39.4082 18.4144 39.2784 18.9067 39.0193 19.3415C38.7595 19.7763 38.3993 20.1157 37.9372 20.3591C37.4752 20.6025 36.9532 20.7242 36.3707 20.7242C35.7882 20.7242 35.2762 20.6025 34.8148 20.3591ZM37.5857 19.1274C37.9054 18.8076 38.0652 18.3862 38.0652 17.8646C38.0652 17.3429 37.9054 16.9215 37.5857 16.6017C37.266 16.2818 36.8608 16.1216 36.3707 16.1216C35.8806 16.1216 35.4772 16.2818 35.1613 16.6017C34.8447 16.9221 34.6868 17.3429 34.6868 17.8646C34.6868 18.3862 34.8447 18.8076 35.1613 19.1274C35.4772 19.4479 35.8806 19.6075 36.3707 19.6075C36.8608 19.6075 37.266 19.4473 37.5857 19.1274Z" fill="white"/>
<path d="M41.6859 20.3591C41.2238 20.1157 40.8636 19.7763 40.6038 19.3415C40.3441 18.9067 40.2148 18.4144 40.2148 17.8646C40.2148 17.3148 40.3441 16.8243 40.6038 16.3925C40.8629 15.9614 41.2238 15.6238 41.6859 15.3798C42.1479 15.1364 42.6661 15.0146 43.2418 15.0146C43.8175 15.0146 44.3463 15.1364 44.8083 15.3798C45.2704 15.6232 45.6306 15.9607 45.8904 16.3925C46.1495 16.8243 46.2793 17.3148 46.2793 17.8646C46.2793 18.4144 46.1495 18.9067 45.8904 19.3415C45.6306 19.7763 45.2704 20.1157 44.8083 20.3591C44.3463 20.6025 43.8243 20.7242 43.2418 20.7242C42.6592 20.7242 42.1473 20.6025 41.6859 20.3591ZM44.4568 19.1274C44.7765 18.8076 44.9363 18.3862 44.9363 17.8646C44.9363 17.3429 44.7765 16.9215 44.4568 16.6017C44.1371 16.2818 43.7319 16.1216 43.2418 16.1216C42.7517 16.1216 42.3483 16.2818 42.0324 16.6017C41.7158 16.9221 41.5579 17.3429 41.5579 17.8646C41.5579 18.3862 41.7158 18.8076 42.0324 19.1274C42.3483 19.4479 42.7517 19.6075 43.2418 19.6075C43.7319 19.6075 44.1371 19.4473 44.4568 19.1274Z" fill="white"/>
<path d="M53.2107 15.0759V19.8052C53.2107 21.7677 52.1874 22.7493 50.1413 22.7493C49.5943 22.7493 49.0755 22.6814 48.5854 22.5456C48.0952 22.4098 47.69 22.2129 47.3703 21.9561L47.9672 20.9745C48.2157 21.1763 48.5304 21.3384 48.9107 21.4601C49.2909 21.5818 49.6761 21.6429 50.067 21.6429C50.692 21.6429 51.1503 21.5035 51.4419 21.2252C51.7334 20.947 51.8789 20.5225 51.8789 19.9513V19.659C51.6516 19.9024 51.3744 20.0871 51.0479 20.2125C50.7207 20.3379 50.3623 20.4002 49.9715 20.4002C49.4314 20.4002 48.9431 20.2871 48.5061 20.0608C48.069 19.8345 47.7244 19.5165 47.4721 19.1055C47.2199 18.6952 47.0938 18.2255 47.0938 17.6965C47.0938 17.1675 47.2199 16.6996 47.4721 16.2923C47.7244 15.885 48.069 15.5707 48.5061 15.3475C48.9431 15.1249 49.4314 15.0135 49.9715 15.0135C50.3836 15.0135 50.7582 15.0796 51.096 15.2117C51.4331 15.3438 51.716 15.5456 51.9432 15.8172V15.0759H53.2113H53.2107ZM51.415 18.8499C51.7384 18.5539 51.9001 18.1698 51.9001 17.6965C51.9001 17.2231 51.7384 16.8507 51.415 16.5584C51.0916 16.266 50.6776 16.1199 50.1731 16.1199C49.6686 16.1199 49.2441 16.266 48.9207 16.5584C48.5972 16.8507 48.4355 17.2299 48.4355 17.6965C48.4355 18.1631 48.5972 18.5545 48.9207 18.8499C49.2441 19.1459 49.6612 19.2933 50.1731 19.2933C50.6851 19.2933 51.0916 19.1453 51.415 18.8499Z" fill="white"/>
<path d="M54.957 12.9043H56.2894V20.6504H54.957V12.9043Z" fill="white"/>
<path d="M63.3676 18.2812H58.9021C58.9801 18.6921 59.1843 19.0169 59.5152 19.2572C59.8455 19.4976 60.2557 19.6174 60.7465 19.6174C61.3715 19.6174 61.8866 19.4156 62.2918 19.012L63.0061 19.8156C62.7501 20.1146 62.4267 20.3409 62.0364 20.4944C61.6456 20.6473 61.2054 20.7244 60.7146 20.7244C60.089 20.7244 59.5383 20.6027 59.0626 20.3593C58.5862 20.1159 58.219 19.7764 57.9593 19.3416C57.6996 18.9068 57.5703 18.4145 57.5703 17.8647C57.5703 17.3149 57.6964 16.833 57.9487 16.3981C58.2009 15.9633 58.5506 15.6239 58.9982 15.3805C59.4459 15.1371 59.9504 15.0154 60.5117 15.0154C61.073 15.0154 61.5613 15.1352 61.9983 15.3756C62.4354 15.6159 62.7763 15.9535 63.0217 16.3884C63.2671 16.8232 63.3894 17.3265 63.3894 17.8971C63.3894 17.9876 63.3826 18.116 63.3682 18.2836L63.3676 18.2812ZM59.4297 16.4281C59.135 16.6752 58.9552 17.0042 58.8915 17.4146H62.1207C62.0639 17.0109 61.8897 16.6837 61.5987 16.433C61.3072 16.1823 60.945 16.0569 60.5117 16.0569C60.0784 16.0569 59.7244 16.1804 59.4297 16.4275V16.4281Z" fill="white"/>
<path d="M72.4933 13.6569C72.9728 13.8654 73.3406 14.1651 73.5966 14.5547C73.8526 14.9442 73.9806 15.4072 73.9806 15.9429C73.9806 16.4786 73.8526 16.933 73.5966 17.3263C73.3406 17.7195 72.9728 18.0204 72.4933 18.2296C72.0138 18.4381 71.4506 18.5427 70.8038 18.5427H69.1199V20.6514H67.7344V13.3438H70.8038C71.45 13.3438 72.0132 13.4483 72.4933 13.6569ZM72.1149 17.0187C72.4278 16.7679 72.5839 16.4095 72.5839 15.9435C72.5839 15.4775 72.4278 15.1185 72.1149 14.8684C71.8021 14.6176 71.3439 14.4923 70.7401 14.4923H69.1199V17.3942H70.7401C71.3439 17.3942 71.8021 17.2688 72.1149 17.018V17.0187Z" fill="white"/>
<path d="M75.3438 12.9043H76.6762V20.6504H75.3438V12.9043Z" fill="white"/>
<path d="M82.5219 15.6029C82.9658 15.9961 83.1881 16.5893 83.1881 17.3825V20.6501H81.9306V19.9713C81.767 20.2147 81.5341 20.4012 81.2325 20.5296C80.9303 20.6581 80.5663 20.7229 80.1399 20.7229C79.7134 20.7229 79.3407 20.6513 79.021 20.5089C78.7013 20.3664 78.4541 20.1682 78.2805 19.9138C78.1063 19.66 78.0195 19.3726 78.0195 19.0527C78.0195 18.5518 78.2093 18.1494 78.5896 17.8467C78.9698 17.544 79.5686 17.3923 80.3853 17.3923H81.8563V17.3085C81.8563 16.919 81.737 16.6193 81.4991 16.4107C81.2613 16.2022 80.9079 16.0976 80.439 16.0976C80.1193 16.0976 79.8046 16.1465 79.4955 16.2438C79.1865 16.3416 78.9255 16.4768 78.712 16.6511L78.19 15.7013C78.4884 15.4787 78.8468 15.3081 79.2664 15.19C79.6854 15.072 80.1299 15.0127 80.5988 15.0127C81.4373 15.0127 82.0786 15.2096 82.5225 15.6022L82.5219 15.6029ZM81.3068 19.5487C81.5659 19.3989 81.7489 19.1848 81.8557 18.9065V18.2595H80.4808C79.7134 18.2595 79.3295 18.5066 79.3295 19.0007C79.3295 19.2374 79.4256 19.4252 79.6173 19.5646C79.809 19.704 80.0756 19.7731 80.4165 19.7731C80.7574 19.7731 81.0471 19.6985 81.3062 19.5487H81.3068Z" fill="white"/>
<path d="M90.1179 15.0759L87.4537 21.0993C87.2052 21.7047 86.9031 22.131 86.5478 22.378C86.1925 22.6251 85.7623 22.7487 85.2585 22.7487C84.9744 22.7487 84.6934 22.7034 84.4162 22.6129C84.139 22.5224 83.9117 22.397 83.7344 22.2368L84.2676 21.2766C84.3956 21.3946 84.5461 21.4888 84.7203 21.5585C84.8945 21.6283 85.0699 21.6631 85.2478 21.6631C85.4826 21.6631 85.6762 21.6038 85.8285 21.4858C85.9815 21.3671 86.1213 21.169 86.2493 20.8907L86.3455 20.6718L83.8624 15.0759H85.2478L87.0385 19.1997L88.8398 15.0759H90.1185H90.1179Z" fill="white"/>
<path d="M27.5638 9.28626C27.2628 9.28626 26.9825 9.22205 26.7221 9.09362C26.4618 8.96519 26.2351 8.79273 26.0422 8.57562C25.8486 8.35912 25.6982 8.1145 25.5908 7.84296C25.4834 7.57143 25.4297 7.29011 25.4297 6.99961C25.4297 6.70912 25.4834 6.40945 25.5908 6.13791C25.6982 5.86638 25.8474 5.62542 26.0391 5.41504C26.2301 5.20466 26.4562 5.03954 26.7159 4.91906C26.9756 4.79919 27.2585 4.73926 27.5638 4.73926C28.0065 4.73926 28.3717 4.82977 28.6595 5.01079C28.9474 5.19182 29.1647 5.42788 29.3108 5.71838L28.8662 6.02171C28.7332 5.76058 28.5503 5.56732 28.318 5.44073C28.0858 5.31413 27.8304 5.25114 27.5507 5.25114C27.3184 5.25114 27.108 5.29945 26.9188 5.39608C26.7296 5.49271 26.5673 5.62481 26.4318 5.79054C26.2963 5.95689 26.1933 6.14525 26.1221 6.35563C26.0509 6.56601 26.016 6.78495 26.016 7.01245C26.016 7.25219 26.0559 7.47847 26.1352 7.69129C26.2145 7.90412 26.3275 8.09126 26.4736 8.25332C26.6197 8.41539 26.7896 8.5426 26.9831 8.63555C27.1767 8.7279 27.3852 8.77438 27.6087 8.77438C27.871 8.77438 28.1201 8.70894 28.3567 8.57868C28.5934 8.44841 28.8169 8.24843 29.0273 7.97873V8.56583C28.6146 9.04592 28.127 9.28565 27.5638 9.28565V9.28626ZM28.9561 7.4485H27.9696V7.01918H29.4463V9.25446H28.9561V7.4485Z" fill="white"/>
<path d="M33.4356 8.74973V9.25489H30.3281V4.77148H33.3775V5.27664H30.9082V6.72911H33.0554V7.20246H30.9082V8.74973H33.4356Z" fill="white"/>
<path d="M37.5284 5.27664H35.9488V9.25489H35.3687V5.27664H33.7891V4.77148H37.5284V5.27664Z" fill="white"/>
<path d="M39.625 9.25489V4.77148H40.205V9.25489H39.625Z" fill="white"/>
<path d="M41.8847 5.81971V9.25489H41.3047V4.77148H41.7948L44.5926 8.27638V4.7776H45.1727V9.25489H44.6438L41.8847 5.81971Z" fill="white"/>
<path d="M49.7544 9.28626C49.4322 9.28626 49.14 9.22327 48.8778 9.09667C48.6155 8.97008 48.3889 8.79884 48.1978 8.58174C48.0068 8.36463 47.8594 8.12061 47.7564 7.84908C47.6534 7.57754 47.6016 7.29867 47.6016 7.01245C47.6016 6.72624 47.6565 6.42841 47.7658 6.15687C47.8757 5.88533 48.028 5.64315 48.2234 5.43094C48.4189 5.21811 48.648 5.04993 48.9102 4.92579C49.1725 4.80164 49.4584 4.73926 49.7675 4.73926C50.0766 4.73926 50.3819 4.8047 50.6441 4.93496C50.9063 5.06522 51.1317 5.24013 51.3209 5.45907C51.5101 5.67801 51.6562 5.92203 51.7592 6.19173C51.8623 6.46143 51.9141 6.73725 51.9141 7.01918C51.9141 7.31824 51.8604 7.60323 51.753 7.87476C51.6456 8.1463 51.4939 8.38848 51.2984 8.60069C51.103 8.81352 50.8739 8.98048 50.6116 9.10279C50.3494 9.2251 50.0634 9.28565 49.7544 9.28565V9.28626ZM48.1878 7.01307C48.1878 7.24057 48.2253 7.46073 48.3009 7.67295C48.3758 7.88577 48.4825 8.07413 48.6199 8.23803C48.7573 8.40193 48.9227 8.53281 49.1163 8.62944C49.3098 8.72607 49.5246 8.77438 49.7613 8.77438C49.9979 8.77438 50.2252 8.72362 50.4187 8.62271C50.6123 8.5218 50.7765 8.38726 50.912 8.21846C51.0475 8.05028 51.1505 7.8607 51.2217 7.65032C51.2928 7.43994 51.3278 7.22711 51.3278 7.01245C51.3278 6.78495 51.2903 6.56601 51.2148 6.35563C51.1399 6.14525 51.0318 5.95689 50.8926 5.79054C50.7528 5.6242 50.5873 5.49393 50.3962 5.39914C50.2052 5.30435 49.9935 5.25726 49.7613 5.25726C49.5165 5.25726 49.2973 5.30679 49.1038 5.40587C48.9102 5.50494 48.746 5.63826 48.6105 5.80705C48.4751 5.97524 48.3708 6.1636 48.2977 6.37214C48.2247 6.58069 48.1878 6.79412 48.1878 7.01307Z" fill="white"/>
<path d="M53.2988 5.81971V9.25489H52.7188V4.77148H53.2089L56.0073 8.27638V4.7776H56.5873V9.25489H56.0585L53.2994 5.81971H53.2988Z" fill="white"/>
</g>
<rect x="-19.75" y="-93.75" width="238.5" height="147.5" rx="4.75" stroke="#D9D9D9" stroke-width="0.5"/>
</g>
<defs>
<clipPath id="clip0_1418_10066">
<rect width="1440" height="3984" fill="white" transform="translate(-1096 -3814)"/>
</clipPath>
<clipPath id="clip1_1418_10066">
<rect width="94" height="28" fill="white"/>
</clipPath>
</defs>
</svg>
