<svg width="90" height="65" viewBox="0 0 90 65" fill="none" xmlns="http://www.w3.org/2000/svg">
<path d="M64.5478 5.9149C64.8102 5.91065 65.0721 5.90686 65.3344 5.90261C65.3359 5.90261 65.3378 5.90261 65.3392 5.90261V0.0879645C65.3392 0.0879645 65.3373 0.0879645 65.3368 0.0879645C63.4903 0.0548596 61.6442 0.0378342 59.7977 0.0245922C57.9511 0.0104044 56.1046 0.0052022 54.2576 0.000945855L51.4878 0L48.718 0.00614806C46.8714 0.00898562 45.0244 0.0217547 43.1779 0.032632C39.4848 0.0572242 35.7912 0.0950584 32.0982 0.144243C30.2516 0.164579 28.4046 0.197684 26.5581 0.226059L23.7883 0.270042L23.6132 0.273825C23.5178 0.277608 23.421 0.284229 23.3228 0.29558C23.1264 0.317807 22.9257 0.355641 22.7255 0.411447C22.3246 0.522112 21.9275 0.7075 21.5792 0.952476C21.2301 1.19698 20.9297 1.49823 20.6916 1.82834C20.4529 2.15891 20.2745 2.51881 20.154 2.89526C20.034 3.27171 19.9723 3.66613 19.9747 4.06954C19.977 4.47248 20.0454 4.88581 20.1858 5.28307C20.3248 5.67986 20.5378 6.05867 20.7997 6.38074C21.0612 6.70422 21.3681 6.96859 21.6784 7.17005L21.8283 7.26748L21.9337 7.31855C25.3838 8.99272 28.8392 10.6565 32.2984 12.3122C34.533 13.3805 36.77 14.4446 39.0085 15.5059C36.5152 19.9656 35.202 24.9994 35.202 30.1302H41.0353C41.0353 25.862 42.1611 21.6785 44.2942 18.0029L45.2958 18.4744C46.1636 18.8831 47.0308 19.2921 47.9033 19.6908C49.6474 20.4905 51.4076 21.2595 53.1844 21.9954C54.9617 22.7303 56.7565 23.4312 58.5746 24.0871C59.4836 24.4149 60.3988 24.7313 61.3216 25.0316C61.7842 25.1801 62.2463 25.3286 62.7131 25.4686C63.1795 25.6095 63.6478 25.7466 64.1232 25.8701L64.1545 25.8086C63.7759 25.4965 63.3906 25.1981 63.003 24.9039C62.6159 24.6083 62.2245 24.3212 61.8335 24.0346C61.0493 23.4643 60.2565 22.9096 59.458 22.3662C57.861 21.2798 56.2403 20.2394 54.6025 19.2321C52.9642 18.2262 51.3089 17.2529 49.6379 16.3108C48.8029 15.8383 47.9627 15.3768 47.1229 14.9142L46.6366 14.6466C51.0579 9.31478 57.5028 6.13671 64.5488 5.91538L64.5478 5.9149ZM30.4613 5.82505C31.0065 5.83261 31.5521 5.84018 32.0972 5.84633C35.7903 5.89551 39.4838 5.93288 43.1769 5.95794C44.5884 5.96645 46.0003 5.97591 47.4118 5.98111C45.1701 7.63778 43.1632 9.60043 41.4575 11.8038C39.1418 10.5364 36.8241 9.27174 34.5041 8.01281C33.1571 7.28214 31.8092 6.55336 30.4609 5.82599L30.4613 5.82505Z" fill="white"/>
<path d="M57.8913 30.1302C62.0046 30.1302 65.3392 26.7957 65.3392 22.6823C65.3392 18.5689 62.0046 15.2344 57.8913 15.2344C53.7779 15.2344 50.4434 18.5689 50.4434 22.6823C50.4434 26.7957 53.7779 30.1302 57.8913 30.1302Z" fill="white"/>
<path d="M23.3594 41.9977V64.3044H18.6515V62.3861C16.6594 63.8584 14.3055 64.6615 11.6799 64.6615C5.2516 64.6615 0 59.4865 0 53.151C0 46.8155 5.2516 41.6406 11.6799 41.6406C14.3055 41.6406 16.705 42.5331 18.6515 43.9609V41.9977H23.3594ZM11.6795 59.7538C15.4371 59.7538 18.3799 56.8537 18.3799 53.1506C18.3799 49.4475 15.4371 46.5479 11.6795 46.5479C7.9218 46.5479 4.9795 49.4479 4.9795 53.1506C4.9795 56.8532 7.92227 59.7538 11.6795 59.7538Z" fill="white"/>
<path d="M44.0104 41.979C41.4163 49.4421 38.7771 56.8602 36.1384 64.3228H32.202C29.6078 56.8597 27.0132 49.4416 24.375 41.979H29.6974C30.9943 46.09 32.2024 50.246 33.5438 54.3129L34.081 55.9662C34.081 56.0558 34.1256 56.1448 34.1702 56.2344C34.3489 56.0558 34.6178 54.8937 34.8411 54.402L38.688 42.0235C40.477 42.0235 42.2214 41.979 44.0104 41.979Z" fill="white"/>
<path d="M89.7129 41.9977V64.3044H85.005V62.3861C83.0134 63.8584 80.659 64.6615 78.0334 64.6615C71.6051 64.6615 66.3535 59.4865 66.3535 53.151C66.3535 46.8155 71.6051 41.6406 78.0334 41.6406C80.659 41.6406 83.0585 42.5331 85.005 43.9609V41.9977H89.7129ZM78.0334 59.7538C81.7906 59.7538 84.7334 56.8537 84.7334 53.1506C84.7334 49.4475 81.7911 46.5479 78.0334 46.5479C74.2758 46.5479 71.333 49.4479 71.333 53.1506C71.333 56.8532 74.2753 59.7538 78.0334 59.7538Z" fill="white"/>
<path d="M64.9553 54.218V41.979H59.9386V55.0556C59.9386 58.3237 57.588 59.7146 54.9659 59.7146C52.3438 59.7146 49.998 57.4767 49.998 54.7864V41.9795H45.0254V55.1044C45.0254 55.297 45.0301 55.4845 45.0401 55.6724C45.205 58.5022 46.5649 61.0196 48.6386 62.7234C48.6481 62.7281 48.6533 62.7328 48.6628 62.7427C50.3867 64.1529 52.6012 64.9998 55.0147 64.9998C56.9183 64.9998 58.7005 64.4704 60.2111 63.5511C62.8432 61.9629 64.6742 59.1955 64.9557 55.9899C64.9847 55.701 64.9993 55.4027 64.9993 55.1044C64.9993 54.8061 64.9847 54.5079 64.9557 54.219L64.9553 54.218Z" fill="white"/>
</svg>
