<svg width="333" height="375" viewBox="0 0 333 375" fill="none" xmlns="http://www.w3.org/2000/svg">
<path opacity="0.95" d="M35.3929 54.0479H130.701C138.226 54.0479 144.335 60.1573 144.335 67.6819V162.988C144.335 170.513 138.226 176.622 130.701 176.622H35.3929C27.8682 176.622 21.7588 170.513 21.7588 162.988V67.6796C21.7588 60.1549 27.8682 54.0455 35.3929 54.0455V54.0479Z" fill="url(#paint0_linear_629_32497)"/>
<path d="M111.422 148.717H54.6709V151.52H111.422V148.717Z" fill="#96BFE6"/>
<path d="M103.383 157.55H62.709V160.353H103.383V157.55Z" fill="#96BFE6"/>
<path opacity="0.95" d="M316.193 96.5605H180.562C171.69 96.5605 164.499 103.752 164.499 112.623V277.408C164.499 286.279 171.69 293.47 180.562 293.47H316.193C325.064 293.47 332.256 286.279 332.256 277.408V112.623C332.256 103.752 325.064 96.5605 316.193 96.5605Z" fill="url(#paint1_linear_629_32497)"/>
<path d="M253.87 212.725H240.563V215.189H253.87V212.725Z" fill="#4598E6"/>
<path d="M267.468 235.304H190.047V240.075H267.468V235.304Z" fill="#96BFE6"/>
<path d="M252.654 258.21H190.047V262.981H252.654V258.21Z" fill="#96BFE6"/>
<path d="M226.75 246.758H190.047V251.529H226.75V246.758Z" fill="#96BFE6"/>
<path d="M287.727 116.197V118.607H301.914V131.923H304.324V116.197H287.727ZM191.382 131.923H193.792V118.607H207.979V116.197H191.382V131.923ZM301.914 200.63V213.95H287.727V216.36H304.324V200.63H301.914ZM193.792 200.63H191.382V216.36H207.979V213.95H193.792V200.63Z" fill="#4598E6"/>
<path d="M296.812 263.332C288.988 263.332 282.623 256.967 282.623 249.143C282.623 241.318 288.988 234.953 296.812 234.953C304.637 234.953 311.002 241.318 311.002 249.143C311.002 256.967 304.637 263.332 296.812 263.332ZM296.812 237.7C290.503 237.7 285.37 242.833 285.37 249.143C285.37 255.452 290.503 260.585 296.812 260.585C303.122 260.585 308.255 255.452 308.255 249.143C308.255 242.833 303.122 237.7 296.812 237.7Z" fill="#4598E6"/>
<path d="M295.906 254.727L289.46 248.28L291.403 246.34L295.906 250.844L302.22 244.53L304.163 246.47L295.906 254.727Z" fill="#4598E6"/>
<path opacity="0.95" d="M124.356 58.6305H41.7363V129.517H124.356V58.6305Z" fill="url(#paint2_linear_629_32497)"/>
<path d="M114.606 101.784C111.885 94.5875 105.348 91.2807 102.262 90.2512C101.162 89.8863 99.2011 89.245 97.1329 88.5757C93.4054 87.3719 89.334 86.0613 89.334 86.0613H76.4761C76.4761 86.0613 72.0236 87.5532 67.2922 89.2124C67.2922 89.2171 67.2876 89.2171 67.2876 89.2171C62.928 90.7462 58.3384 92.4124 56.7884 93.1909C53.5559 94.8036 48.1181 106.342 47.0189 107.664C46.4519 108.345 43.9282 112.839 41.4463 117.859H55.2988C56.7628 115.344 57.8899 113.394 57.8899 113.394C57.8899 113.394 58.766 115.316 59.828 117.859H104.207C104.908 114.907 105.345 111.187 105.345 111.187C105.345 111.187 107.723 114.419 110.316 117.859H123.107C119.997 112.639 116.135 105.847 114.604 101.784H114.606Z" fill="#385369"/>
<path d="M84.4354 50.7271C84.4354 50.7271 94.4908 52.312 92.9594 68.0422C91.4279 83.7723 82.5554 82.4849 81.9605 82.4687C81.368 82.4524 73.0532 82.7545 72.4048 63.5478C72.4048 63.5478 72.1213 49.3444 84.4354 50.7271Z" fill="#EEA886"/>
<path d="M93.1152 63.5989C93.1152 63.5989 94.2167 62.4231 94.621 63.6129C95.0254 64.8027 93.1198 70.1127 93.0501 70.3614C93.0501 70.3614 92.8479 70.8238 92.5853 70.5682C92.3204 70.3149 93.1152 63.5966 93.1152 63.5966V63.5989Z" fill="#EEA886"/>
<path d="M72.6763 63.4014C72.6763 63.4014 71.5981 62.2046 71.1705 63.3875C70.7429 64.5703 72.5299 69.9152 72.6113 70.1662C72.6113 70.1662 72.8042 70.6309 73.0714 70.3823C73.341 70.1336 72.6763 63.4014 72.6763 63.4014Z" fill="#EEA886"/>
<path d="M93.1103 66.0134L91.6719 67.9376C91.6719 67.9376 91.7114 63.7174 91.4813 63.0575C91.2512 62.3952 90.898 60.3757 90.7028 59.8993C90.5099 59.423 82.0697 57.0573 74.6124 60.5895C74.6124 60.5895 74.9401 63.6222 74.2267 63.8941C73.5133 64.1636 73.8618 68.8346 73.8618 68.8346L72.679 67.4984C72.679 67.4984 70.8687 55.3957 71.3149 54.1339C71.7611 52.872 73.1879 45.2893 88.4835 49.7906C88.4835 49.7906 93.2521 48.7797 94.2095 52.0726C95.167 55.3655 93.1103 66.0134 93.1103 66.0134Z" fill="#434343"/>
<path d="M90.5797 85.7801C90.575 85.7662 89.2899 85.1457 89.2899 85.1457C88.6625 83.7444 89.1296 77.8349 89.1296 77.8349C89.1296 77.8349 76.3228 74.5745 76.69 77.068C77.0548 79.5592 75.5861 85.3502 75.5861 85.3502L69.0166 88.6129C69.0166 88.6129 76.0161 107.408 84.0612 104.982C92.1064 102.558 95.1437 87.9344 95.1437 87.9344L90.582 85.7778L90.5797 85.7801Z" fill="#EEA886"/>
<path d="M76.873 79.838C76.873 79.838 78.9366 82.5011 82.5177 82.5011C84.8741 82.5011 86.5635 81.8411 88.9106 79.5521C88.9106 79.5521 87.8928 83.8977 82.534 84.3021C82.534 84.3021 78.6461 84.7971 76.873 79.838Z" fill="#A77860"/>
<path d="M39.9056 142.942C39.9056 142.942 47.2931 146.556 45.4666 156.388C43.64 166.22 42.8313 167.545 44.874 171.386C46.9167 175.228 49.3288 191.615 47.4883 194.722C45.6502 197.829 24.7239 181.072 21.8237 167.015C18.9212 152.956 23.6618 146.705 25.3373 144.374C27.0128 142.045 33.3802 139.633 39.9033 142.942H39.9056Z" fill="#0E2D3D"/>
<path d="M37.1165 371.115H38.792V363.218C38.792 363.218 42.0756 365.407 44.1368 368.435C46.1981 371.463 49.0309 371.205 53.3463 371.012C57.6617 370.82 57.4688 369.081 57.0807 366.634C56.695 364.187 52.3145 363.413 50.8969 363.028C49.4794 362.642 46.2632 357.1 45.229 355.749C43.8185 353.909 43.0725 352.143 43.0725 352.143C43.0725 352.143 42.2685 348.859 38.2737 352.143C34.2814 355.426 35.441 361.738 35.8918 362.319C36.3426 362.898 37.1165 371.117 37.1165 371.117V371.115Z" fill="#163342"/>
<path d="M45.5547 363.025C47.035 363.992 50.8996 363.025 50.8996 363.025C49.8051 361.608 43.0752 352.143 43.0752 352.143C38.9852 349.761 37.3701 353.04 37.3701 353.04C39.0386 353.549 44.0744 362.061 45.5547 363.028V363.025Z" fill="#EEA886"/>
<path d="M88.6158 217.338C88.6158 217.338 91.2975 217.852 92.2131 216.592C92.9916 215.521 94.7717 214.698 95.3201 214.445C96.0521 214.106 97.9135 212.223 98.3504 213.144C98.7873 214.064 95.434 216.392 94.8274 217.022C94.2209 217.652 98.1157 217.928 98.7896 218.542C99.4612 219.153 98.6339 225.579 95.9847 225.079C93.3332 224.579 90.8304 222.295 90.347 222.3C89.8637 222.304 88.4043 222.011 88.4043 222.011L88.6181 217.343L88.6158 217.338Z" fill="#EEA886"/>
<path d="M98.1972 218.275C98.1972 218.275 106.212 220.345 106.63 220.931C107.049 221.517 106.912 221.944 106.154 221.781C105.396 221.619 98.3529 220.004 98.3529 220.004C98.3529 220.004 107.428 224.05 107.876 224.454C108.139 224.691 107.92 225.535 107.507 225.486C107.093 225.437 97.8695 221.942 97.8695 221.942C97.8695 221.942 106.335 225.734 106.61 226.183C106.849 226.576 106.456 227.301 105.808 227.064C105.162 226.827 97.105 223.75 97.105 223.75C97.105 223.75 103.094 226.896 103.101 227.415C103.105 227.731 102.949 228.47 101.43 227.607C99.9099 226.748 96.1104 225.093 96.1104 225.093L98.1972 218.275Z" fill="#EEA886"/>
<path d="M15.4194 371.654H16.4489V365.858C16.4489 365.858 18.2824 367.743 19.119 370.513C19.9556 373.283 22.9534 374.103 27.5267 373.975C32.1001 373.848 32.1628 372.042 31.7771 369.337C31.3913 366.632 27.5267 365.214 27.5267 365.214C25.7885 363.669 21.4731 357.26 21.4731 357.26C21.4731 357.26 18.703 356.519 16.5302 358.273C14.3574 360.028 15.0337 363.99 15.0964 365.019C15.1615 366.049 15.4194 371.652 15.4194 371.652V371.654Z" fill="#163342"/>
<path d="M18.5751 233.577C18.5751 233.577 13.1257 240.66 11.6477 249.066C10.1698 257.471 12.5215 285.678 12.4564 289.833C12.3914 293.988 8.52678 304.325 9.30063 312.149C10.0745 319.974 13.1234 358.919 13.1234 358.919L21.473 357.262C21.473 357.262 20.9896 317.559 21.473 314.273C21.9563 310.99 22.9254 299.017 23.1183 297.665C23.3112 296.312 35.3836 260.799 35.3836 254.741C35.3836 248.682 31.7119 223.694 18.5751 233.58V233.577Z" fill="#1D3B54"/>
<path d="M45.9471 236.345C45.9471 236.345 54.8986 270.51 55.9606 275.244C57.0226 279.978 58.5633 283.882 58.5633 285.892C58.5633 290.556 56.8297 298.043 56.8297 298.043L45.4614 352.41H34.6345C34.6345 352.41 40.6673 319.792 40.83 313.416C40.9926 307.023 45.9122 297.946 44.9478 295.241C43.9811 292.536 29.3943 261.333 29.3943 261.333C29.3943 261.333 18.349 226.427 45.9448 236.345H45.9471Z" fill="#1D3B54"/>
<path d="M27.5287 365.214L21.4751 357.26L16.5322 358.273C16.5322 358.273 17.8615 361.833 20.2643 364.51C23.1087 367.682 27.5287 365.212 27.5287 365.212V365.214Z" fill="#EEA886"/>
<path d="M42.2506 178.286C42.2506 178.286 45.9409 178.634 48.7295 181.623C51.5181 184.611 54.1348 189.375 54.8668 190.969C55.5965 192.564 65.8354 207.332 66.3676 207.664C66.8998 207.996 72.0448 209.716 75.4562 210.864C80.7174 212.635 91.2677 216.469 91.2677 216.469L89.1739 223.101C89.1739 223.101 69.3398 216.611 64.3714 215.386C58.2968 213.89 44.3142 195.949 44.3142 195.949C44.3142 195.949 33.8894 183.733 42.2553 178.288L42.2506 178.286Z" fill="#285173"/>
<path d="M35.808 175.697C35.808 175.697 40.5882 177.953 42.2497 178.286C43.909 178.618 50.3507 186.984 51.4801 190.038C52.6095 193.091 51.4801 197.674 49.1563 203.051C46.8324 208.429 49.0238 210.223 47.9618 215.6C46.8998 220.977 47.2414 241.1 47.4412 244.086C47.6411 247.074 16.362 251.603 10.1875 246.159C10.1875 246.159 14.3681 228.026 19.3179 222.85C20.3892 221.73 20.2754 214.273 19.5457 212.414C18.816 210.555 10.5826 196.677 10.5826 196.677C10.5826 196.677 9.97835 182.601 13.571 179.813C16.692 177.389 25.1973 176.524 26.7241 175.994C28.2508 175.462 32.694 175.232 35.815 175.697H35.808Z" fill="#EFC5B6"/>
<path d="M38.0907 170.18C38.0907 170.18 37.949 171.495 37.784 173.276C37.7212 173.98 37.6515 174.756 37.5864 175.553C37.3959 177.937 37.2448 180.498 37.3355 181.806C37.3355 181.806 32.3671 186.786 26.7178 175.997C26.7178 175.997 29.0928 171.547 27.3034 165.491C25.514 159.43 38.0884 170.18 38.0884 170.18H38.0907Z" fill="#EEA886"/>
<path d="M51.996 205.036C51.996 205.036 53.1928 197.081 51.9194 192.245C51.9194 192.245 51.9194 196.405 49.6396 202.31L51.996 205.036Z" fill="#183C59"/>
<path d="M22.9014 176.761C22.9014 176.761 26.3174 186.854 35.7012 186.113C45.0826 185.369 40.149 177.591 40.149 177.591C40.149 177.591 37.8112 176.25 37.1536 176.125C36.4959 175.999 26.7799 175.876 26.7799 175.876L22.9014 176.764V176.761Z" fill="#EEA886"/>
<path d="M40.1494 177.589C40.1494 177.589 45.0644 191.181 45.0644 205.036C45.0644 218.891 45.4594 241.457 47.1768 248.585C48.8918 255.712 53.7765 277.751 53.7765 277.751L57.6039 275.772C57.6039 275.772 48.4014 240.595 47.7066 238.06C47.0118 235.522 48.2341 208.728 48.8941 206.483C49.5541 204.239 52.3613 194.253 51.9244 191.483C51.3736 187.99 48.1063 182.822 42.8265 178.379L40.1517 177.589H40.1494Z" fill="#285173"/>
<path d="M24.7566 176.336C24.7566 176.336 27.8102 186.115 29.3579 198.64C30.9056 211.166 24.6079 269.304 20.3832 282.501L4.01855 279.862C4.01855 279.862 7.54152 238.766 12.324 231.288C17.1065 223.81 18.6286 217.192 13.465 201.582C8.30375 185.973 15.7285 178.242 15.7285 178.242C15.7285 178.242 23.3228 176.496 24.7566 176.334V176.336Z" fill="#285173"/>
<path d="M42.4102 217.808L22.5692 252.177L0.508789 239.443L19.49 204.576L42.4102 217.808Z" fill="#616161"/>
<path d="M40.0189 218.991L22.3948 249.514L2.80469 238.204L19.6619 207.239L40.0189 218.991Z" fill="#E0CEC7"/>
<path d="M33.5169 216.248L34.7555 214.106L26.8335 209.535L25.2881 211.498L33.5169 216.248Z" fill="#616161"/>
<path d="M32.5715 240.635C32.5715 240.635 31.6699 240.64 31.2748 240.449C31.2748 240.449 30.5823 240.047 30.0711 239.791C29.9084 239.71 29.7666 239.645 29.669 239.61C29.2647 239.471 28.3351 239.285 27.4567 238.674C26.5806 238.065 23.4736 234.467 23.4736 234.467L24.94 232.237L26.0159 229.952C26.0159 229.952 32.539 230.373 33.4221 230.847C33.508 230.893 33.5917 230.942 33.6661 230.996C34.3748 231.467 34.7025 232.118 35.0464 232.408C35.1719 232.515 36.3478 233.668 36.306 234.158C36.2502 234.839 35.9342 235.288 35.5252 235.511C35.5252 235.511 35.3555 236.838 34.7025 237.458C34.7025 237.458 34.5863 238.688 33.5522 239.227C33.5522 239.227 33.2942 240.461 32.5692 240.64L32.5715 240.635Z" fill="#EEA886"/>
<path d="M19.1255 178.286C19.1255 178.286 13.0997 176.559 9.64648 183.198C6.19323 189.838 6.21182 192.67 5.74937 195.915C5.31249 198.975 3.3465 207.334 3.14665 208.198C2.9468 209.061 -1.50803 219.355 0.534639 222.953C2.58893 226.569 23.4432 237.214 23.3108 238.009C23.1783 238.806 26.922 229.961 26.922 229.961C26.922 229.961 18.4818 225.258 17.1014 223.81C14.8566 221.458 10.1205 218.923 11.0942 216.004C12.2376 212.577 15.6699 201.011 16.467 199.317C17.2641 197.623 24.2031 180.445 19.1232 178.286H19.1255Z" fill="#285173"/>
<path d="M38.8338 144.034C38.8338 144.034 49.5608 147.406 43.7372 165.918C37.9136 184.432 23.2617 163.773 24.7954 152.493C26.3268 141.213 38.8338 144.034 38.8338 144.034Z" fill="#EEA987"/>
<path d="M44.8339 154.836C44.8339 154.836 39.5029 160.067 30.5816 160.72C30.5816 160.72 27.154 164.74 26.889 166.318C26.889 166.318 18.9298 152.751 28.7133 144.618C38.4967 136.484 48.4289 151.482 44.8315 154.833L44.8339 154.836Z" fill="#0E2D3D"/>
<path d="M30.6896 161.089C30.6198 159.741 29.7902 156.676 27.7871 157.534C25.7839 158.391 27.9102 164.635 29.2371 164.252C29.2371 164.252 30.8522 164.278 30.6872 161.089H30.6896Z" fill="#EEA987"/>
<path d="M37.7838 173.276C37.7211 173.98 37.6514 174.756 37.5863 175.553C37.5863 175.553 32.8503 175.272 29.6875 168.228C29.8943 168.535 33.3638 173.631 37.7838 173.278V173.276Z" fill="#A77860"/>
<path opacity="0.95" d="M167.583 8.65601H235.221C241.407 8.65601 246.429 13.6779 246.429 19.864V78.553C246.429 84.7391 241.407 89.7609 235.221 89.7609H167.583C161.397 89.7609 156.375 84.7391 156.375 78.553V19.8663C156.375 13.6802 161.397 8.65833 167.583 8.65833V8.65601Z" fill="url(#paint3_linear_629_32497)"/>
<path d="M204.635 74.4235H197.491V75.7457H204.635V74.4235Z" fill="#4598E6"/>
<path d="M207.52 1.55426C207.52 1.55426 213.274 4.71471 211.448 12.4857C209.621 20.2567 208.926 21.2815 210.411 24.421C211.896 27.5605 213.2 40.7182 211.617 43.1257C210.035 45.5332 193.981 31.3856 192.199 20.0661C190.414 8.7466 194.43 3.94086 195.854 2.14684C197.279 0.352827 202.445 -1.32965 207.52 1.55658V1.55426Z" fill="#344052"/>
<path d="M218.327 65.774H212.166C211.869 62.7344 211.592 60.6197 211.651 60.306C211.741 59.7901 205.52 43.4696 204.939 42.1195C204.354 40.774 202.074 37.1534 201.776 33.7443C201.474 30.3352 205.92 28.9595 205.92 28.9595C211.92 30.0331 213.951 38.3339 213.951 38.3339C213.951 38.3339 216.47 55.1633 217.744 59.8993C218.071 61.1123 218.248 63.2596 218.327 65.774Z" fill="#EEA886"/>
<path d="M215.224 42.3891L206.05 46.2583C206.05 46.2583 197.617 25.3297 204.686 27.6675C211.734 29.996 214.904 34.3764 215.224 42.3914V42.3891Z" fill="#EB4747"/>
<path d="M213.182 52.2422C212.915 54.3197 211.818 61.6793 212.062 63.6686C212.104 63.9962 212.238 64.7515 212.443 65.7763H190.32C190.908 63.6755 191.445 61.8164 191.768 60.7358C192.841 57.1734 191.814 56.2183 191.27 53.3669C191.059 52.2514 190.315 50.1321 189.506 47.7362C189.235 46.9368 188.956 46.1025 188.688 45.2659C187.715 42.2496 187.264 39.1658 186.985 37.3695C185.651 28.8595 192.195 28.0415 192.195 28.0415C194.628 27.593 198.876 26.28 198.876 26.28L205.532 27.665C205.532 27.665 206.166 27.9021 207.089 28.5853C207.089 28.5853 207.093 28.5853 207.093 28.5899C207.537 28.9176 208.051 29.3475 208.59 29.9029C209.317 30.6489 210.765 32.7868 212.21 35.1362C212.652 35.8566 213.096 36.5956 213.514 37.323C214.867 39.6654 215.829 41.5524 215.799 43.6834C215.773 45.7795 213.449 50.1646 213.182 52.2422Z" fill="#EB4747"/>
<path d="M205.531 27.6674C205.531 27.6674 209.7 34.7924 208.15 35.3245C206.6 35.8567 198.427 34.058 195.234 27.3258C195.234 27.3258 200.598 24.8881 205.531 27.6674Z" fill="#EEA886"/>
<path d="M204.934 30.9208C204.934 30.9208 201.23 32.4871 197.876 27.3281C197.876 27.3281 198.778 21.4697 196.872 18.0815C194.967 14.6933 205.201 22.1436 205.201 22.1436C205.201 22.1436 205.036 22.8431 204.864 23.8726C204.776 24.4001 204.685 25.0136 204.618 25.6666C204.56 26.2104 204.515 26.7797 204.497 27.3467C204.455 28.6644 204.548 29.9727 204.936 30.9185L204.934 30.9208Z" fill="#EEA886"/>
<path d="M195.739 38.9033C194.977 42.826 189.506 47.7386 189.506 47.7386C189.237 46.9369 188.958 46.105 188.688 45.2707C192.462 42.8632 195.739 38.9056 195.739 38.9056V38.9033Z" fill="#393D63"/>
<path d="M194.367 42.0242C194.021 43.4533 192.425 57.9286 192.599 58.4236C192.701 58.7071 193.473 62.0558 194.247 65.7763H187.105C186.373 63.3781 185.941 61.3865 186.046 60.2595C186.501 55.3771 184.847 39.8119 184.847 39.8119C184.847 39.8119 183.364 30.3956 191.177 29.2197C191.177 29.2197 195.792 29.8263 196.071 33.2354C196.35 36.6468 194.714 40.5997 194.367 42.0242Z" fill="#EEA886"/>
<path d="M184.268 44.0227L193.963 46.2885C193.963 46.2885 201.655 31.3554 194.728 28.6271C187.426 25.7525 182.516 35.8776 184.268 44.0227Z" fill="#EB4747"/>
<path d="M206.626 2.38149C206.626 2.38149 215.052 5.47454 209.712 20.0149C204.372 34.5576 193.468 17.533 195.116 8.5978C196.764 -0.337425 206.628 2.38149 206.628 2.38149H206.626Z" fill="#EEA987"/>
<path d="M211.002 11.2214C211.002 11.2214 206.554 15.1906 199.418 15.3765C199.418 15.3765 197.749 19.4433 197.48 20.6912C197.48 20.6912 190.429 8.58387 198.535 2.46748C206.643 -3.64891 213.995 8.6838 211.002 11.2214Z" fill="#344052"/>
<path d="M200.381 16.248C200.377 15.1721 199.831 12.6948 198.202 13.3037C196.573 13.9125 198.032 18.9716 199.106 18.7159C199.106 18.7159 200.393 18.7973 200.381 16.248Z" fill="#EEA987"/>
<path d="M204.507 27.1004C200.547 26.0059 199.015 22.2296 198.969 22.1041C202.19 26.2662 204.618 25.6666 204.618 25.6666C204.56 26.2104 204.555 26.5473 204.507 27.0981V27.1004Z" fill="#A77860"/>
<path d="M222.809 23.3335V24.6279H230.424V31.7761H231.719V23.3335H222.809ZM171.089 31.7761H172.384V24.6279H179.999V23.3335H171.089V31.7761ZM230.424 68.6603V75.8108H222.809V77.1052H231.719V68.6603H230.424ZM172.381 68.6603H171.087V77.1052H179.997V75.8108H172.381V68.6603Z" fill="#4598E6"/>
<path d="M87.8168 135.02H78.2773V136.786H87.8168V135.02Z" fill="#4598E6"/>
<path d="M111.638 66.7803V68.5069H121.812V78.0556H123.538V66.7803H111.638ZM42.5566 78.0556H44.2856V68.5069H54.4594V66.7803H42.559V78.0556H42.5566ZM121.812 127.321V136.872H111.638V138.599H123.538V127.319H121.812V127.321ZM44.2856 127.321H42.5566V138.601H54.4571V136.875H44.2833V127.324L44.2856 127.321Z" fill="#4598E6"/>
<path d="M296.158 199.524H288.089C287.943 199.201 287.822 198.919 287.725 198.694C285.331 193.04 272.989 180.075 272.989 180.075V180.103C272.989 180.103 272.982 180.11 272.982 180.117V180.131C272.975 180.152 272.968 180.166 272.961 180.187C272.954 180.215 272.947 180.25 272.933 180.294C272.926 180.315 272.919 180.342 272.919 180.363C272.912 180.384 272.905 180.398 272.898 180.419C272.392 182.308 269.908 191.72 268.664 199.521H214.058C213.933 198.799 213.784 198.108 213.617 197.472C213.117 195.534 212.78 193.616 212.564 191.825C212.557 191.734 212.543 191.648 212.536 191.557C212.494 191.227 212.46 190.897 212.432 190.574C211.962 185.673 212.313 181.916 212.341 181.535C212.188 181.865 211.084 185.91 209.638 190.904C208.844 193.644 207.947 196.67 207.054 199.521H194.159L210.34 152.837C210.698 152.556 214.897 150.527 217.96 149.066C221.086 147.576 224.857 145.392 228.264 143.523C230.007 142.568 231.65 141.704 233.074 141.051L233.293 140.953V140.946C235.645 139.873 237.211 139.161 237.211 139.161H237.218C237.274 139.154 237.646 139.12 238.236 139.064C241.522 138.748 251.721 137.793 255.133 137.595C255.414 137.574 255.653 137.567 255.834 137.56C255.988 137.553 256.109 137.553 256.178 137.56C256.606 137.588 258.714 138.318 261.474 139.373C261.579 139.408 261.686 139.45 261.79 139.491C261.925 139.54 262.051 139.589 262.183 139.638C262.422 139.728 262.669 139.821 262.913 139.919C263.405 140.117 263.917 140.312 264.43 140.516C264.607 140.586 264.788 140.656 264.972 140.728C270.498 142.919 276.833 145.636 278.336 146.719C279.333 147.427 282.431 153.265 286.019 160.485C289.881 172.86 294.608 190.714 296.16 199.519L296.158 199.524Z" fill="#DECBC4"/>
<path d="M256.085 135.98C255.938 143.321 241.728 147.337 241.728 147.337C241.728 147.337 235.784 139.884 237.204 139.171C237.761 138.89 237.987 137.779 238.056 136.531C238.121 135.343 238.045 134.033 237.975 133.201C237.933 132.683 237.894 132.348 237.894 132.348C237.894 132.348 239.925 130.205 242.507 127.654C247.022 123.19 253.227 117.473 253.236 119.748C253.236 119.869 253.22 120.013 253.182 120.18C252.092 125.3 256.083 135.985 256.083 135.985L256.085 135.98Z" fill="#EEA886"/>
<path d="M250.613 125.223C250.585 125.267 249.983 126.169 248.954 127.463C246.771 130.208 242.67 134.716 238.059 136.526C238.124 135.339 238.048 134.028 237.978 133.196C237.506 133.184 237.034 133.129 236.567 133.026C237.832 130.819 239.658 128.502 239.658 128.502L242.512 127.649L250.617 125.223H250.613Z" fill="#A77860"/>
<path d="M253.34 119.843C252.111 122.518 250.945 124.456 250.612 125.225C250.396 125.727 249.81 126.543 248.953 127.465C246.611 129.989 242.258 133.317 237.977 133.201C237.506 133.189 237.034 133.133 236.567 133.031C234.838 132.655 232.797 131.851 231.675 129.652C222.81 112.293 229.228 98.0965 229.228 98.0965C229.228 98.0965 253.473 91.2411 257.265 98.538C259.926 103.657 256.231 113.559 253.343 119.843H253.34Z" fill="#EEA886"/>
<path d="M229.226 98.0942C229.226 98.0942 226.974 97.9687 226.419 93.6998C225.868 89.482 226.981 88.3131 226.981 88.3131C226.981 88.3131 236.99 84.1232 240.585 83.5794C244.18 83.0356 253.018 82.5104 255.088 84.8807C255.088 84.8807 260.122 83.7118 261.493 92.0661C263.668 105.321 254.079 118.193 254.079 118.193C254.079 118.193 254.161 109.532 252.251 108.387C250.34 107.239 248.693 109.967 248.693 109.967L244.786 110.666C244.786 110.666 250.719 97.8548 243.601 97.3808C236.483 96.9067 233.302 98.8378 229.226 98.0942Z" fill="#E8734D"/>
<path d="M248.8 106.516C249.172 102.7 256.071 101.243 255.609 105.242C255.147 109.242 251.749 113.083 250.18 112.948C248.612 112.813 248.517 109.423 248.8 106.516Z" fill="#EEA886"/>
<path d="M289.183 160.848C286.936 153.648 284.991 147.952 284.127 147.334C282.616 146.254 270.648 142.958 264.967 140.732C264.783 140.663 264.602 140.593 264.425 140.521C263.912 140.316 263.4 140.121 262.908 139.924C262.661 139.826 262.415 139.733 262.178 139.642C262.045 139.594 261.918 139.545 261.785 139.496C261.681 139.454 261.574 139.412 261.469 139.377C261.462 139.384 261.455 139.398 261.441 139.405C260.935 139.975 258.309 142.958 255.169 147.425C249.297 155.768 241.649 169.288 242.823 181.769C243.201 185.773 243.666 191.525 244.445 197.978C244.5 198.492 244.563 199.003 244.635 199.523H271.127C271.45 192.768 272.026 183.868 272.898 180.421C272.905 180.4 272.912 180.387 272.919 180.366C272.919 180.345 272.926 180.317 272.933 180.296C272.94 180.261 272.954 180.226 272.961 180.189C272.968 180.168 272.975 180.154 272.982 180.133V180.119L272.989 180.105C272.989 180.105 279.4 190.128 279.73 199.523H296.404C295.588 190.793 293.039 173.201 289.183 160.848Z" fill="#3C4145"/>
<path d="M233.179 141.141C233.179 141.141 231.178 147.799 228.594 164.424V164.431C228.503 164.986 228.417 165.556 228.327 166.137C228.32 166.199 228.306 166.269 228.299 166.341C228.236 166.72 228.18 167.115 228.122 167.508C228.115 167.557 228.108 167.598 228.101 167.647C228.059 167.907 228.018 168.175 227.983 168.447C227.885 169.1 227.785 169.774 227.688 170.454C226.719 177.238 225.427 188.02 224.114 199.524H213.642C213.073 196.328 212.541 193.421 212.583 191.425C212.562 191.467 212.548 191.516 212.534 191.56C211.697 193.877 210.777 196.398 209.843 198.85C209.759 199.075 209.675 199.298 209.589 199.524H191.54L209.52 152.489C209.878 152.207 214.507 149.714 217.567 148.262C220.763 146.737 224.801 144.862 228.382 143.212C230.095 142.417 231.706 141.68 233.067 141.055L233.179 141.139V141.141Z" fill="#3C4145"/>
<path d="M257.53 157.59L250.612 161.494L253.568 164.508L247.08 199.526H244.635C243.736 192.447 243.222 186.092 242.822 181.772C241.017 162.472 260.275 140.707 261.469 139.38C262.396 139.731 263.393 140.117 264.425 140.526L257.528 157.592L257.53 157.59Z" fill="#51565C"/>
<path d="M233.286 140.958C233.286 140.958 230.702 149.393 227.695 170.454C226.726 177.231 225.427 188.02 224.114 199.524H223.096L221.755 166.437L225.048 162.869L222.12 159.209L228.385 143.21C230.098 142.415 231.708 141.678 233.07 141.053L233.288 140.955L233.286 140.958Z" fill="#51565C"/>
<path d="M261.818 139.461L256.085 135.98C256.085 135.98 255.925 139.124 241.729 147.337L245.76 158.693L261.818 139.463V139.461Z" fill="#F5E2D9"/>
<path d="M237.952 137.562C237.952 137.562 238.176 140.955 241.729 147.334L233.86 157.592L233.286 140.955L237.952 137.562Z" fill="#F5E2D9"/>
<path d="M241.749 147.334C241.749 147.334 243.274 153.434 242.725 155.143C242.725 155.143 239.372 156.363 236.962 154.838C236.962 154.838 238.67 150.569 241.749 147.337V147.334Z" fill="#D44040"/>
<path d="M239.902 168.075C238.294 179.032 238.294 190.114 238.891 199.523H232.171C232.08 198.197 231.994 196.812 231.91 195.366C230.66 173.671 238.329 154.287 238.329 154.287L241.749 153.43C241.749 153.43 240.648 163.016 239.902 168.072V168.075Z" fill="#D44040"/>
<path d="M212.799 181.593C212.543 186.798 212.58 191.42 212.58 191.42C212.58 191.448 212.573 191.59 212.562 191.822C212.55 191.734 212.541 191.648 212.529 191.562C211.697 193.879 210.772 196.398 209.843 198.85C209.627 196.008 209.571 193.361 209.634 190.907C210.008 176.311 214.597 168.658 214.597 168.658C213.545 171.203 213.04 176.659 212.799 181.593Z" fill="#2D3133"/>
<path d="M149.976 199.586L128.501 211.391L106.936 177.454L133.019 168.393L149.976 199.586Z" fill="#292C47"/>
<path d="M148.614 198.568L128.532 209.607L108.365 177.87L132.756 169.397L148.614 198.568Z" fill="white"/>
<path d="M155.969 192.633C155.969 192.633 152.232 190.846 150.591 189.912C148.951 188.978 144.73 187.695 144.389 187.391C144.047 187.086 131.879 186.336 131.141 185.699C130.402 185.062 129.686 187.191 132.839 187.883C135.993 188.574 140.382 190.263 140.622 191.497C140.861 192.729 137.382 193.021 137.029 194.037C136.676 195.052 137.129 194.825 137.626 195.043C138.126 195.262 141.765 193.244 143.366 193.816C144.967 194.388 147.414 193.595 148.641 194.016C149.868 194.437 155.834 196.444 155.834 196.444L155.969 192.638V192.633Z" fill="#EEA886"/>
<path d="M127.455 207.134C127.455 207.134 124.315 204.308 122.796 203.126C121.276 201.943 118.424 198.466 118.004 198.264C117.583 198.062 112.138 186.886 111.251 186.438C110.363 185.989 112.089 184.486 113.969 187.189C115.849 189.891 119.149 193.37 120.404 193.117C121.659 192.863 120.579 189.471 121.399 188.743C122.219 188.016 122.18 188.529 122.579 188.915C122.979 189.301 122.496 193.516 123.66 194.802C124.822 196.087 125.029 198.701 125.903 199.693C126.776 200.686 130.989 205.526 130.989 205.526L127.455 207.137V207.134Z" fill="#EEA886"/>
<path d="M195.079 358.189C195.079 358.189 195.758 362.905 195.844 363.611C195.93 364.32 203.401 363.195 203.401 363.195L204.005 357.583C204.005 357.583 196.013 357.525 195.079 358.189Z" fill="#424773"/>
<path d="M195.765 363.014C195.765 363.014 193.397 365.856 191.108 367.092C188.819 368.331 185.219 368.821 183.867 370.104C182.891 371.029 180.307 375.012 189.816 374.933C199.325 374.852 203.91 375.495 204.928 373.968C205.946 372.442 203.455 362.695 203.455 362.695C203.455 362.695 201.203 363.506 195.765 363.014Z" fill="#292C47"/>
<path d="M141.547 358.189C141.547 358.189 142.225 362.905 142.311 363.611C142.397 364.32 149.869 363.195 149.869 363.195L150.473 357.583C150.473 357.583 142.481 357.525 141.547 358.189Z" fill="#424773"/>
<path d="M142.232 363.014C142.232 363.014 139.864 365.856 137.575 367.092C135.286 368.331 126.86 369.349 125.508 370.629C124.529 371.554 122.905 375.279 136.286 374.931C145.79 374.682 150.38 375.493 151.398 373.966C152.416 372.439 149.924 362.693 149.924 362.693C149.924 362.693 147.803 363.558 142.235 363.011L142.232 363.014Z" fill="#292C47"/>
<path d="M188.893 237.042C188.893 237.042 195.913 248.197 195.39 258.278C194.867 268.361 197.935 279.367 198.99 289.898C200.166 301.641 204.976 329.436 205.151 335.718C205.325 341.999 204.405 362.054 204.405 362.054L194.775 362.275C194.775 362.275 186.685 313.681 184.591 308.722C182.498 303.762 172.108 268.414 171.759 264.447C171.41 260.481 188.895 237.042 188.895 237.042H188.893Z" fill="#292C47"/>
<path d="M151.937 238.555C151.937 238.555 146.646 266.188 145.949 272.358C145.252 278.528 144.785 302.219 144.436 306.077C144.087 309.935 142.108 356.544 140.246 362.275H152.558C152.558 362.275 162.009 328.391 162.009 312.358C162.009 296.326 169.311 277.505 174.026 266.927C178.738 256.349 189.528 256.098 192.426 236.473C192.426 236.473 155.86 232.33 151.937 238.555Z" fill="#292C47"/>
<path d="M177.179 143.27C177.179 143.27 167.755 139.749 163.412 146.923C159.069 154.097 159.487 168.456 164.235 170.222C168.985 171.988 176.119 171.063 178.55 166.576C180.98 162.089 183.176 155.6 183.072 151.264C182.967 146.928 179.651 144.523 177.179 143.272V143.27Z" fill="#EEA886"/>
<path d="M165.257 170.55C165.257 170.55 165.65 173.094 165.001 174.347C164.353 175.599 177.208 175.632 177.208 175.632C177.208 175.632 178.252 168.816 180.229 163.055C182.207 157.297 165.257 170.547 165.257 170.547V170.55Z" fill="#EEA886"/>
<path d="M180.23 163.058C180.23 163.058 179.342 164.522 175.721 163.952C172.098 163.385 167.681 158.566 166.168 158.036C164.655 157.506 164.641 156.618 164.641 156.618L163.695 158.001L162.09 158.103C162.09 158.103 163.554 153.792 161.344 152.036C159.134 150.276 163.637 138.083 175.252 142.143C175.252 142.143 184.173 144.602 183.848 149.677C183.523 154.75 182.223 160.529 180.227 163.058H180.23Z" fill="#3A3F47"/>
<path d="M164.237 174.196C164.237 174.196 164.279 171.802 165.364 171.572C166.45 171.342 177.344 170.294 178.678 170.819V173.608C178.678 173.608 176.112 175.188 164.24 174.196H164.237Z" fill="#E2D2CA"/>
<path d="M164.883 154.775C165.088 153.925 167.251 151.492 168.078 154.097C168.908 156.702 166.826 160.204 165.666 159.904C164.507 159.604 164.367 156.934 164.883 154.775Z" fill="#EEA886"/>
<path d="M121 202.489C121 202.489 121.011 202.487 121.018 202.489C120.944 202.521 120.932 202.524 121 202.489Z" fill="#323657"/>
<path d="M196.812 263.613C196.812 263.613 191.033 265.314 181.18 266.402C171.327 267.487 146.705 266.009 146.55 264.845C146.394 263.681 151.846 221.496 151.537 219.323C151.228 217.15 151.06 209.409 151.06 209.409C150.94 211.531 148.778 220.194 146.169 224.916C145.225 226.622 142.065 231.972 140.54 230.754C133.164 224.865 121.743 202.672 121.018 202.484C121.626 202.219 126.43 200.007 127.104 199.784C127.694 199.586 133.016 205.222 136.239 208.714C137.677 210.271 138.697 211.403 138.697 211.403C139.629 209.309 143.02 196.112 144.073 191.546C146.45 181.246 146.085 180.816 146.085 180.816C153.294 178.637 164.237 174.198 164.237 174.198L178.675 173.61C178.675 173.61 191.925 176.527 197.145 178.885C197.64 179.108 197.642 190.707 199.002 193.749L194.675 202.877C194.675 202.877 192.176 220.959 191.656 229.002C191.416 232.692 196.81 263.618 196.81 263.618L196.812 263.613Z" fill="#F5DFD6"/>
<path d="M199.602 208.803C199.225 210.02 197.512 211.048 196.402 211.498C195.691 211.787 194.893 211.879 194.089 211.731L193.525 211.626L183.63 209.79C183.63 209.79 181.464 184.858 197.148 178.883C197.561 179.018 203.066 197.639 199.604 208.803H199.602Z" fill="#F5DFD6"/>
<path d="M196.401 211.496C195.69 211.784 194.893 211.877 194.089 211.728L193.524 211.624L194.5 198.882L196.401 211.496Z" fill="#EFC5B6"/>
<path d="M138.7 211.403L137.492 216.525C137.492 216.525 136.179 211.387 136.241 208.717C137.68 210.274 138.7 211.406 138.7 211.406V211.403Z" fill="#EFC5B6"/>
<path d="M179.863 144.116C179.863 144.116 192.212 142.568 180.072 163.197L179.863 144.116Z" fill="#3A3F47"/>
<path d="M116.863 175.634L115.608 173.478L125.494 170.066L126.749 172.211L116.863 175.634Z" fill="#292C47"/>
<g opacity="0.95">
<path d="M305.444 83.2146H312.448L310.306 78.769H303.302L305.444 83.2146Z" fill="url(#paint4_linear_629_32497)"/>
<path d="M302.167 83.2146H303.836L301.691 78.769H300.022L302.167 83.2146Z" fill="url(#paint5_linear_629_32497)"/>
<path d="M277.967 77.9185H306.329L305.388 75.6946H277.025L277.967 77.9185Z" fill="url(#paint6_linear_629_32497)"/>
</g>
<path d="M114.931 3.39709H125.641C126.002 3.39709 126.297 3.6899 126.297 4.05242V6.36466C126.297 6.72486 126.004 7.01999 125.641 7.01999H114.931C114.571 7.01999 114.275 6.72718 114.275 6.36466V4.05242C114.275 3.69222 114.568 3.39709 114.931 3.39709Z" fill="url(#paint7_linear_629_32497)"/>
<path d="M125.642 12.0836H114.934C114.572 12.0836 114.278 12.377 114.278 12.7389V15.0512C114.278 15.4131 114.572 15.7065 114.934 15.7065H125.642C126.004 15.7065 126.297 15.4131 126.297 15.0512V12.7389C126.297 12.377 126.004 12.0836 125.642 12.0836Z" fill="url(#paint8_linear_629_32497)"/>
<path d="M114.931 20.7679H125.639C126 20.7679 126.295 21.0608 126.295 21.4233V23.7355C126.295 24.0957 126.002 24.3908 125.639 24.3908H114.929C114.569 24.3908 114.273 24.098 114.273 23.7355V21.4233C114.273 21.0608 114.566 20.7679 114.929 20.7679H114.931Z" fill="url(#paint9_linear_629_32497)"/>
<path d="M131.914 3.39709H134.024C134.384 3.39709 134.679 3.6899 134.679 4.05242V6.36466C134.679 6.72486 134.387 7.01999 134.024 7.01999H131.914C131.554 7.01999 131.259 6.72718 131.259 6.36466V4.05242C131.259 3.69222 131.552 3.39709 131.914 3.39709Z" fill="url(#paint10_linear_629_32497)"/>
<path d="M131.914 12.0836H134.024C134.384 12.0836 134.679 12.3764 134.679 12.7389V15.0512C134.679 15.4114 134.387 15.7065 134.024 15.7065H131.914C131.554 15.7065 131.259 15.4137 131.259 15.0512V12.7389C131.259 12.3787 131.552 12.0836 131.914 12.0836Z" fill="url(#paint11_linear_629_32497)"/>
<path d="M131.914 20.7679H134.024C134.384 20.7679 134.679 21.0608 134.679 21.4233V23.7355C134.679 24.0957 134.387 24.3908 134.024 24.3908H131.914C131.554 24.3908 131.259 24.098 131.259 23.7355V21.4233C131.259 21.0608 131.552 20.7679 131.914 20.7679Z" fill="url(#paint12_linear_629_32497)"/>
<path d="M87.4909 202.633H100.063L96.2146 194.65H83.6426L87.4909 202.633Z" fill="url(#paint13_linear_629_32497)"/>
<path d="M81.6071 202.633H84.6025L80.7542 194.65H77.7588L81.6071 202.633Z" fill="url(#paint14_linear_629_32497)"/>
<defs>
<linearGradient id="paint0_linear_629_32497" x1="91.8021" y1="274.012" x2="82.2302" y2="100.523" gradientUnits="userSpaceOnUse">
<stop stop-color="#D1D7E0"/>
<stop offset="1" stop-color="#EBEBFF"/>
</linearGradient>
<linearGradient id="paint1_linear_629_32497" x1="248.379" y1="322.381" x2="248.379" y2="143.77" gradientUnits="userSpaceOnUse">
<stop stop-color="#D1D7E0"/>
<stop offset="1" stop-color="#EBEBFF"/>
</linearGradient>
<linearGradient id="paint2_linear_629_32497" x1="83.0475" y1="212.084" x2="83.0475" y2="81.4833" gradientUnits="userSpaceOnUse">
<stop stop-color="#D1D7E0"/>
<stop offset="1" stop-color="#EBEBFF"/>
</linearGradient>
<linearGradient id="paint3_linear_629_32497" x1="201.404" y1="101.671" x2="201.404" y2="28.102" gradientUnits="userSpaceOnUse">
<stop stop-color="#D1D7E0"/>
<stop offset="1" stop-color="#EBEBFF"/>
</linearGradient>
<linearGradient id="paint4_linear_629_32497" x1="303.302" y1="80.9907" x2="312.448" y2="80.9907" gradientUnits="userSpaceOnUse">
<stop stop-color="#D1D7E0"/>
<stop offset="1" stop-color="#EBEBFF"/>
</linearGradient>
<linearGradient id="paint5_linear_629_32497" x1="300.022" y1="80.9906" x2="303.836" y2="80.9906" gradientUnits="userSpaceOnUse">
<stop stop-color="#D1D7E0"/>
<stop offset="1" stop-color="#EBEBFF"/>
</linearGradient>
<linearGradient id="paint6_linear_629_32497" x1="277.025" y1="76.8077" x2="306.329" y2="76.8077" gradientUnits="userSpaceOnUse">
<stop stop-color="#D1D7E0"/>
<stop offset="1" stop-color="#EBEBFF"/>
</linearGradient>
<linearGradient id="paint7_linear_629_32497" x1="114.278" y1="5.2097" x2="126.297" y2="5.2097" gradientUnits="userSpaceOnUse">
<stop stop-color="#D1D7E0"/>
<stop offset="1" stop-color="#EBEBFF"/>
</linearGradient>
<linearGradient id="paint8_linear_629_32497" x1="114.278" y1="13.8939" x2="126.297" y2="13.8939" gradientUnits="userSpaceOnUse">
<stop stop-color="#D1D7E0"/>
<stop offset="1" stop-color="#EBEBFF"/>
</linearGradient>
<linearGradient id="paint9_linear_629_32497" x1="114.278" y1="22.5806" x2="126.297" y2="22.5806" gradientUnits="userSpaceOnUse">
<stop stop-color="#D1D7E0"/>
<stop offset="1" stop-color="#EBEBFF"/>
</linearGradient>
<linearGradient id="paint10_linear_629_32497" x1="131.259" y1="5.2097" x2="134.679" y2="5.2097" gradientUnits="userSpaceOnUse">
<stop stop-color="#D1D7E0"/>
<stop offset="1" stop-color="#EBEBFF"/>
</linearGradient>
<linearGradient id="paint11_linear_629_32497" x1="131.259" y1="13.8939" x2="134.679" y2="13.8939" gradientUnits="userSpaceOnUse">
<stop stop-color="#D1D7E0"/>
<stop offset="1" stop-color="#EBEBFF"/>
</linearGradient>
<linearGradient id="paint12_linear_629_32497" x1="131.259" y1="22.5806" x2="134.679" y2="22.5806" gradientUnits="userSpaceOnUse">
<stop stop-color="#D1D7E0"/>
<stop offset="1" stop-color="#EBEBFF"/>
</linearGradient>
<linearGradient id="paint13_linear_629_32497" x1="83.6426" y1="198.64" x2="100.063" y2="198.64" gradientUnits="userSpaceOnUse">
<stop stop-color="#D1D7E0"/>
<stop offset="1" stop-color="#EBEBFF"/>
</linearGradient>
<linearGradient id="paint14_linear_629_32497" x1="77.7588" y1="198.64" x2="84.6025" y2="198.64" gradientUnits="userSpaceOnUse">
<stop stop-color="#D1D7E0"/>
<stop offset="1" stop-color="#EBEBFF"/>
</linearGradient>
</defs>
</svg>
