<svg width="704" height="976" viewBox="0 0 704 976" fill="none" xmlns="http://www.w3.org/2000/svg">
<rect width="704" height="976" rx="16" fill="#2B1845"/>
<mask id="mask0_629_34220" style="mask-type:alpha" maskUnits="userSpaceOnUse" x="0" y="0" width="704" height="976">
<rect width="704" height="976" fill="url(#paint0_linear_629_34220)"/>
</mask>
<g mask="url(#mask0_629_34220)">
<ellipse cx="436.785" cy="1018.85" rx="68.8633" ry="68.8425" fill="url(#paint1_linear_629_34220)"/>
<g filter="url(#filter0_b_629_34220)">
<path d="M471 774.844C471 1038.74 257.003 1252.69 -7 1252.69C-271.003 1252.69 -485 1038.74 -485 774.844C-485 510.949 -271.003 297 -7 297C257.003 297 471 510.949 471 774.844Z" stroke="url(#paint2_radial_629_34220)" stroke-opacity="0.7" stroke-width="80"/>
</g>
<g filter="url(#filter1_b_629_34220)">
<path d="M382.433 772.747C382.433 987.747 208.086 1162.05 -7.00037 1162.05C-222.087 1162.05 -396.434 987.747 -396.434 772.747C-396.434 557.747 -222.087 383.44 -7.00037 383.44C208.086 383.44 382.433 557.747 382.433 772.747Z" stroke="url(#paint3_radial_629_34220)" stroke-opacity="0.65" stroke-width="60"/>
</g>
<path d="M288.546 772.745C288.546 935.904 156.237 1068.19 -7.00031 1068.19C-170.238 1068.19 -302.547 935.904 -302.547 772.745C-302.547 609.587 -170.238 477.3 -7.00031 477.3C156.237 477.3 288.546 609.587 288.546 772.745Z" stroke="url(#paint4_radial_629_34220)" stroke-opacity="0.81" stroke-width="80"/>
<ellipse cx="270.366" cy="339.99" rx="24.8673" ry="24.8598" fill="#F5DFD6"/>
</g>
<defs>
<filter id="filter0_b_629_34220" x="-535" y="247" width="1056" height="1055.69" filterUnits="userSpaceOnUse" color-interpolation-filters="sRGB">
<feFlood flood-opacity="0" result="BackgroundImageFix"/>
<feGaussianBlur in="BackgroundImageFix" stdDeviation="5"/>
<feComposite in2="SourceAlpha" operator="in" result="effect1_backgroundBlur_629_34220"/>
<feBlend mode="normal" in="SourceGraphic" in2="effect1_backgroundBlur_629_34220" result="shape"/>
</filter>
<filter id="filter1_b_629_34220" x="-436.434" y="343.44" width="858.866" height="858.613" filterUnits="userSpaceOnUse" color-interpolation-filters="sRGB">
<feFlood flood-opacity="0" result="BackgroundImageFix"/>
<feGaussianBlur in="BackgroundImageFix" stdDeviation="5"/>
<feComposite in2="SourceAlpha" operator="in" result="effect1_backgroundBlur_629_34220"/>
<feBlend mode="normal" in="SourceGraphic" in2="effect1_backgroundBlur_629_34220" result="shape"/>
</filter>
<linearGradient id="paint0_linear_629_34220" x1="704" y1="976" x2="-222.139" y2="307.965" gradientUnits="userSpaceOnUse">
<stop stop-color="#8360C3"/>
<stop offset="0.750282" stop-color="#2EBF91"/>
</linearGradient>
<linearGradient id="paint1_linear_629_34220" x1="505.648" y1="1087.7" x2="367.963" y2="949.969" gradientUnits="userSpaceOnUse">
<stop stop-color="#DA8A67"/>
<stop offset="0.750282" stop-color="#F5DFD6"/>
</linearGradient>
<radialGradient id="paint2_radial_629_34220" cx="0" cy="0" r="1" gradientUnits="userSpaceOnUse" gradientTransform="translate(-21.5688 797.499) rotate(88.7893) scale(689.533 689.741)">
<stop offset="0.654764" stop-color="#F5DFD6" stop-opacity="0.36"/>
<stop offset="1" stop-color="#F5DFD6" stop-opacity="0.84"/>
</radialGradient>
<radialGradient id="paint3_radial_629_34220" cx="0" cy="0" r="1" gradientUnits="userSpaceOnUse" gradientTransform="translate(-18.797 791.092) rotate(88.7893) scale(558.326 558.495)">
<stop offset="0.654764" stop-color="#F5DFD6" stop-opacity="0.36"/>
<stop offset="1" stop-color="#F5DFD6" stop-opacity="0.84"/>
</radialGradient>
<radialGradient id="paint4_radial_629_34220" cx="0" cy="0" r="1" gradientUnits="userSpaceOnUse" gradientTransform="translate(-16.4376 787.421) rotate(88.7893) scale(446.661 446.796)">
<stop offset="0.654764" stop-color="#F5DFD6" stop-opacity="0.36"/>
<stop offset="1" stop-color="#F5DFD6" stop-opacity="0"/>
</radialGradient>
</defs>
</svg>
