<svg width="553" height="345" viewBox="0 0 553 345" fill="none" xmlns="http://www.w3.org/2000/svg">
<g clip-path="url(#clip0_3268_16871)" filter="url(#filter0_ddddd_3268_16871)">
<path d="M516 4H37C27.0589 4 19 12.0589 19 22V260C19 269.941 27.0589 278 37 278H516C525.941 278 534 269.941 534 260V22C534 12.0589 525.941 4 516 4Z" fill="#F7F3FF"/>
<path d="M47.0005 51V44.34L47.5405 45.88L41.4805 36.9H44.4605L48.6205 43.3H48.0605L52.2205 36.9H55.1005L49.0605 45.88L49.5805 44.34V51H47.0005ZM58.8385 51.2C57.7985 51.2 56.8985 50.9867 56.1385 50.56C55.3785 50.1333 54.7851 49.5267 54.3585 48.74C53.9451 47.9533 53.7385 47.02 53.7385 45.94C53.7385 44.86 53.9451 43.9333 54.3585 43.16C54.7851 42.3733 55.3785 41.7667 56.1385 41.34C56.8985 40.9133 57.7985 40.7 58.8385 40.7C59.8785 40.7 60.7785 40.9133 61.5385 41.34C62.3118 41.7667 62.9051 42.3733 63.3185 43.16C63.7451 43.9333 63.9585 44.86 63.9585 45.94C63.9585 47.02 63.7451 47.9533 63.3185 48.74C62.9051 49.5267 62.3118 50.1333 61.5385 50.56C60.7785 50.9867 59.8785 51.2 58.8385 51.2ZM58.8385 49.28C59.6251 49.28 60.2518 49.0067 60.7185 48.46C61.1851 47.9 61.4185 47.06 61.4185 45.94C61.4185 44.82 61.1851 43.9867 60.7185 43.44C60.2518 42.8933 59.6251 42.62 58.8385 42.62C58.0518 42.62 57.4251 42.8933 56.9585 43.44C56.4918 43.9867 56.2585 44.82 56.2585 45.94C56.2585 47.06 56.4918 47.9 56.9585 48.46C57.4251 49.0067 58.0518 49.28 58.8385 49.28ZM69.7544 51.2C68.5144 51.2 67.5877 50.86 66.9744 50.18C66.3611 49.5 66.0544 48.46 66.0544 47.06V40.9H68.5544V47.04C68.5544 47.7867 68.7077 48.34 69.0144 48.7C69.3211 49.0467 69.7877 49.22 70.4144 49.22C71.1211 49.22 71.6944 48.98 72.1344 48.5C72.5877 48.02 72.8144 47.3867 72.8144 46.6V40.9H75.3144V51H72.8744V48.94H73.1544C72.8611 49.66 72.4144 50.22 71.8144 50.62C71.2277 51.0067 70.5411 51.2 69.7544 51.2ZM78.0085 51V43.48C78.0085 43.0533 77.9951 42.62 77.9685 42.18C77.9551 41.74 77.9218 41.3133 77.8685 40.9H80.2885L80.5685 43.66H80.1685C80.3018 42.9933 80.5218 42.44 80.8285 42C81.1485 41.56 81.5351 41.2333 81.9885 41.02C82.4418 40.8067 82.9351 40.7 83.4685 40.7C83.7085 40.7 83.9018 40.7133 84.0485 40.74C84.1951 40.7533 84.3418 40.7867 84.4885 40.84L84.4685 43.04C84.2151 42.9333 83.9951 42.8667 83.8085 42.84C83.6351 42.8133 83.4151 42.8 83.1485 42.8C82.5751 42.8 82.0885 42.92 81.6885 43.16C81.3018 43.4 81.0085 43.7333 80.8085 44.16C80.6218 44.5867 80.5285 45.0733 80.5285 45.62V51H78.0085ZM91.5683 51V36.9H97.8283C99.375 36.9 100.555 37.2733 101.368 38.02C102.182 38.7667 102.588 39.7933 102.588 41.1C102.588 42.3933 102.182 43.42 101.368 44.18C100.555 44.94 99.375 45.32 97.8283 45.32H94.1483V51H91.5683ZM94.1483 43.28H97.5283C98.3816 43.28 99.0216 43.0933 99.4483 42.72C99.875 42.3333 100.088 41.7933 100.088 41.1C100.088 40.4067 99.875 39.8733 99.4483 39.5C99.0216 39.1133 98.3816 38.92 97.5283 38.92H94.1483V43.28ZM104.473 51V43.48C104.473 43.0533 104.46 42.62 104.433 42.18C104.42 41.74 104.387 41.3133 104.333 40.9H106.753L107.033 43.66H106.633C106.767 42.9933 106.987 42.44 107.293 42C107.613 41.56 108 41.2333 108.453 41.02C108.907 40.8067 109.4 40.7 109.933 40.7C110.173 40.7 110.367 40.7133 110.513 40.74C110.66 40.7533 110.807 40.7867 110.953 40.84L110.933 43.04C110.68 42.9333 110.46 42.8667 110.273 42.84C110.1 42.8133 109.88 42.8 109.613 42.8C109.04 42.8 108.553 42.92 108.153 43.16C107.767 43.4 107.473 43.7333 107.273 44.16C107.087 44.5867 106.993 45.0733 106.993 45.62V51H104.473ZM116.749 51.2C115.709 51.2 114.809 50.9867 114.049 50.56C113.289 50.1333 112.695 49.5267 112.269 48.74C111.855 47.9533 111.649 47.02 111.649 45.94C111.649 44.86 111.855 43.9333 112.269 43.16C112.695 42.3733 113.289 41.7667 114.049 41.34C114.809 40.9133 115.709 40.7 116.749 40.7C117.789 40.7 118.689 40.9133 119.448 41.34C120.221 41.7667 120.815 42.3733 121.228 43.16C121.655 43.9333 121.868 44.86 121.868 45.94C121.868 47.02 121.655 47.9533 121.228 48.74C120.815 49.5267 120.221 50.1333 119.448 50.56C118.689 50.9867 117.789 51.2 116.749 51.2ZM116.749 49.28C117.535 49.28 118.162 49.0067 118.629 48.46C119.095 47.9 119.328 47.06 119.328 45.94C119.328 44.82 119.095 43.9867 118.629 43.44C118.162 42.8933 117.535 42.62 116.749 42.62C115.962 42.62 115.335 42.8933 114.869 43.44C114.402 43.9867 114.169 44.82 114.169 45.94C114.169 47.06 114.402 47.9 114.869 48.46C115.335 49.0067 115.962 49.28 116.749 49.28ZM124.606 51V42.78H122.666V40.9H125.306L124.606 41.54V40C124.606 38.7467 124.92 37.8 125.546 37.16C126.186 36.52 127.113 36.2 128.326 36.2C128.62 36.2 128.926 36.22 129.246 36.26C129.58 36.3 129.866 36.3733 130.106 36.48V38.44C129.933 38.3733 129.726 38.32 129.486 38.28C129.246 38.24 129.013 38.22 128.786 38.22C128.266 38.22 127.853 38.3733 127.546 38.68C127.24 38.9733 127.086 39.4533 127.086 40.12V41.34L126.726 40.9H133.746V51H131.246V42.78H127.106V51H124.606ZM131.106 39V36.56H133.886V39H131.106ZM136.465 51V36.28H138.965V51H136.465ZM146.56 51.2C144.867 51.2 143.54 50.7333 142.58 49.8C141.62 48.8667 141.14 47.5867 141.14 45.96C141.14 44.9067 141.347 43.9867 141.76 43.2C142.174 42.4133 142.747 41.8 143.48 41.36C144.227 40.92 145.094 40.7 146.08 40.7C147.054 40.7 147.867 40.9067 148.52 41.32C149.174 41.7333 149.667 42.3133 150 43.06C150.347 43.8067 150.52 44.68 150.52 45.68V46.34H143.16V45.02H148.74L148.4 45.3C148.4 44.3667 148.2 43.6533 147.8 43.16C147.414 42.6667 146.847 42.42 146.1 42.42C145.274 42.42 144.634 42.7133 144.18 43.3C143.74 43.8867 143.52 44.7067 143.52 45.76V46.02C143.52 47.1133 143.787 47.9333 144.32 48.48C144.867 49.0133 145.634 49.28 146.62 49.28C147.194 49.28 147.727 49.2067 148.22 49.06C148.727 48.9 149.207 48.6467 149.66 48.3L150.4 49.98C149.92 50.3667 149.347 50.6667 148.68 50.88C148.014 51.0933 147.307 51.2 146.56 51.2ZM162.886 51L156.606 36.9H159.386L164.446 48.74H163.606L168.666 36.9H171.346L165.066 51H162.886ZM172.54 51V40.9H175.04V51H172.54ZM172.4 39V36.56H175.18V39H172.4ZM182.635 51.2C180.941 51.2 179.615 50.7333 178.655 49.8C177.695 48.8667 177.215 47.5867 177.215 45.96C177.215 44.9067 177.421 43.9867 177.835 43.2C178.248 42.4133 178.821 41.8 179.555 41.36C180.301 40.92 181.168 40.7 182.155 40.7C183.128 40.7 183.941 40.9067 184.595 41.32C185.248 41.7333 185.741 42.3133 186.075 43.06C186.421 43.8067 186.595 44.68 186.595 45.68V46.34H179.235V45.02H184.815L184.475 45.3C184.475 44.3667 184.275 43.6533 183.875 43.16C183.488 42.6667 182.921 42.42 182.175 42.42C181.348 42.42 180.708 42.7133 180.255 43.3C179.815 43.8867 179.595 44.7067 179.595 45.76V46.02C179.595 47.1133 179.861 47.9333 180.395 48.48C180.941 49.0133 181.708 49.28 182.695 49.28C183.268 49.28 183.801 49.2067 184.295 49.06C184.801 48.9 185.281 48.6467 185.735 48.3L186.475 49.98C185.995 50.3667 185.421 50.6667 184.755 50.88C184.088 51.0933 183.381 51.2 182.635 51.2ZM191.355 51L187.415 40.9H189.995L192.835 48.76H192.315L195.195 40.9H196.975L199.835 48.76H199.375L202.195 40.9H204.635L200.695 51H198.495L195.475 42.96H196.535L193.575 51H191.355ZM209.616 51.2C208.75 51.2 207.95 51.1 207.216 50.9C206.496 50.6867 205.89 50.3933 205.396 50.02L206.096 48.34C206.603 48.6867 207.163 48.9533 207.776 49.14C208.39 49.3267 209.01 49.42 209.636 49.42C210.303 49.42 210.796 49.3067 211.116 49.08C211.45 48.8533 211.616 48.5467 211.616 48.16C211.616 47.8533 211.51 47.6133 211.296 47.44C211.096 47.2533 210.77 47.1133 210.316 47.02L208.316 46.64C207.463 46.4533 206.81 46.1333 206.356 45.68C205.916 45.2267 205.696 44.6333 205.696 43.9C205.696 43.2733 205.863 42.72 206.196 42.24C206.543 41.76 207.03 41.3867 207.656 41.12C208.296 40.84 209.043 40.7 209.896 40.7C210.643 40.7 211.343 40.8 211.996 41C212.663 41.2 213.223 41.5 213.676 41.9L212.956 43.52C212.543 43.1867 212.07 42.9267 211.536 42.74C211.003 42.5533 210.483 42.46 209.976 42.46C209.283 42.46 208.776 42.5867 208.456 42.84C208.136 43.08 207.976 43.3933 207.976 43.78C207.976 44.0733 208.07 44.32 208.256 44.52C208.456 44.7067 208.763 44.8467 209.176 44.94L211.176 45.32C212.07 45.4933 212.743 45.8 213.196 46.24C213.663 46.6667 213.896 47.2533 213.896 48C213.896 48.6667 213.716 49.24 213.356 49.72C212.996 50.2 212.496 50.5667 211.856 50.82C211.216 51.0733 210.47 51.2 209.616 51.2Z" fill="black"/>
<mask id="mask0_3268_16871" style="mask-type:luminance" maskUnits="userSpaceOnUse" x="44" y="90" width="454" height="141">
<path d="M498 90H44V231H498V90Z" fill="white"/>
</mask>
<g mask="url(#mask0_3268_16871)">
<path d="M47.3346 195.02H47.2907L45.338 196.074L45.0527 194.91L47.4882 193.593H48.7827V204.789H47.3126V194.998L47.3346 195.02Z" fill="#666666"/>
<path d="M60.324 199.081C60.324 202.879 58.9197 204.986 56.4404 204.986C54.2463 204.986 52.7763 202.945 52.7324 199.235C52.7324 195.481 54.356 193.418 56.616 193.418C58.8759 193.418 60.324 195.525 60.324 199.081ZM54.2463 199.257C54.2463 202.177 55.1459 203.823 56.5282 203.823C58.086 203.823 58.81 202.023 58.81 199.169C58.81 196.315 58.1079 194.603 56.5282 194.603C55.2117 194.603 54.2463 196.227 54.2463 199.279V199.257Z" fill="#666666"/>
<path d="M44.043 155.484V154.562L45.2278 153.398C48.0801 150.676 49.3746 149.227 49.3965 147.537C49.3965 146.396 48.848 145.342 47.1805 145.342C46.1712 145.342 45.3155 145.869 44.8109 146.286L44.3282 145.21C45.0961 144.552 46.1932 144.069 47.4877 144.069C49.9012 144.069 50.9105 145.715 50.9105 147.318C50.9105 149.381 49.4185 151.049 47.0489 153.332L46.1493 154.167V154.211H51.1737V155.462H44.043V155.484Z" fill="#666666"/>
<path d="M60.324 149.754C60.324 153.552 58.9197 155.659 56.4404 155.659C54.2463 155.659 52.7763 153.618 52.7324 149.908C52.7324 146.154 54.356 144.091 56.616 144.091C58.8759 144.091 60.324 146.198 60.324 149.754ZM54.2463 149.93C54.2463 152.85 55.1459 154.496 56.5282 154.496C58.086 154.496 58.81 152.696 58.81 149.82C58.81 146.944 58.1079 145.254 56.5282 145.254C55.2117 145.254 54.2463 146.878 54.2463 149.93Z" fill="#666666"/>
<path d="M44.4169 104.423C44.8557 104.708 45.843 105.125 46.8962 105.125C48.8489 105.125 49.4413 103.896 49.4194 102.952C49.4194 101.393 47.9932 100.713 46.5232 100.713H45.6894V99.5712H46.5232C47.6202 99.5712 49.0245 99.0005 49.0245 97.6833C49.0245 96.7833 48.454 95.993 47.0717 95.993C46.1721 95.993 45.3165 96.3881 44.8338 96.7394L44.4388 95.6418C45.0312 95.2027 46.1502 94.7856 47.3569 94.7856C49.551 94.7856 50.5603 96.1028 50.5603 97.4638C50.5603 98.6273 49.8801 99.5932 48.4979 100.098V100.142C49.8801 100.427 50.9991 101.459 50.9991 103.018C50.9991 104.818 49.5949 106.376 46.9181 106.376C45.6675 106.376 44.5705 105.981 44 105.608L44.4169 104.445V104.423Z" fill="#666666"/>
<path d="M60.324 100.449C60.324 104.247 58.9197 106.355 56.4404 106.355C54.2463 106.355 52.7763 104.313 52.7324 100.603C52.7324 96.8491 54.356 94.7856 56.616 94.7856C58.8759 94.7856 60.324 96.893 60.324 100.449ZM54.2463 100.625C54.2463 103.545 55.1459 105.191 56.5282 105.191C58.086 105.191 58.81 103.391 58.81 100.537C58.81 97.6833 58.1079 95.971 56.5282 95.971C55.2117 95.971 54.2463 97.5955 54.2463 100.647V100.625Z" fill="#666666"/>
<path d="M88.6716 225.095C88.6716 228.893 87.2674 231 84.7881 231C82.594 231 81.124 228.958 81.0801 225.248C81.0801 221.495 82.7037 219.431 84.9636 219.431C87.2235 219.431 88.6716 221.539 88.6716 225.095ZM82.594 225.27C82.594 228.19 83.4936 229.837 84.8758 229.837C86.4336 229.837 87.1577 228.036 87.1577 225.183C87.1577 222.329 86.4556 220.617 84.8758 220.617C83.5594 220.617 82.594 222.241 82.594 225.292V225.27Z" fill="#666666"/>
<path d="M141.022 221.034H140.978L139.025 222.087L138.74 220.924L141.176 219.607H142.47V230.802H141V221.012L141.022 221.034Z" fill="#666666"/>
<path d="M196.357 230.824V229.902L197.542 228.739C200.395 226.017 201.689 224.568 201.711 222.878C201.711 221.736 201.162 220.682 199.495 220.682C198.486 220.682 197.63 221.209 197.125 221.626L196.643 220.551C197.411 219.892 198.53 219.409 199.802 219.409C202.216 219.409 203.225 221.056 203.225 222.658C203.225 224.722 201.733 226.39 199.363 228.673L198.464 229.507V229.551H203.488V230.802H196.357V230.824Z" fill="#666666"/>
<path d="M255.356 229.09C255.795 229.376 256.782 229.793 257.836 229.793C259.788 229.793 260.381 228.563 260.359 227.619C260.359 226.061 258.933 225.38 257.463 225.38H256.629V224.239H257.463C258.56 224.239 259.964 223.668 259.964 222.351C259.964 221.451 259.393 220.66 258.011 220.66C257.112 220.66 256.256 221.056 255.773 221.407L255.378 220.309C255.971 219.87 257.09 219.453 258.296 219.453C260.49 219.453 261.5 220.77 261.5 222.131C261.5 223.295 260.82 224.261 259.437 224.766V224.809C260.82 225.095 261.939 226.127 261.939 227.685C261.939 229.485 260.556 231.044 257.858 231.044C256.607 231.044 255.51 230.649 254.939 230.276L255.356 229.112V229.09Z" fill="#666666"/>
<path d="M318.305 230.824V227.773H313.105V226.763L318.086 219.629H319.732V226.588H321.289V227.773H319.732V230.824H318.305ZM318.305 226.588V222.856C318.305 222.263 318.305 221.692 318.349 221.099H318.305C317.954 221.758 317.691 222.241 317.384 222.746L314.641 226.544V226.588H318.305Z" fill="#666666"/>
<path d="M378.927 220.902H374.649L374.21 223.778C374.473 223.734 374.715 223.712 375.131 223.712C375.987 223.712 376.843 223.909 377.545 224.305C378.423 224.809 379.147 225.775 379.147 227.18C379.147 229.376 377.413 231 374.978 231C373.749 231 372.718 230.649 372.191 230.319L372.564 229.156C373.025 229.441 373.947 229.771 374.956 229.771C376.382 229.771 377.611 228.849 377.611 227.334C377.611 225.885 376.623 224.853 374.385 224.853C373.749 224.853 373.245 224.919 372.828 224.985L373.552 219.607H378.905V220.88L378.927 220.902Z" fill="#666666"/>
<path d="M437.267 220.704C436.96 220.704 436.565 220.704 436.126 220.77C433.757 221.165 432.506 222.9 432.243 224.744H432.287C432.813 224.041 433.757 223.448 434.985 223.448C436.96 223.448 438.364 224.875 438.364 227.07C438.364 229.112 436.982 231.022 434.656 231.022C432.331 231.022 430.707 229.156 430.707 226.258C430.707 224.063 431.497 222.307 432.594 221.209C433.515 220.287 434.766 219.738 436.17 219.563C436.609 219.497 437.004 219.475 437.267 219.475V220.704ZM436.829 227.158C436.829 225.556 435.907 224.59 434.525 224.59C433.603 224.59 432.769 225.161 432.353 225.973C432.243 226.148 432.177 226.368 432.177 226.653C432.221 228.497 433.055 229.858 434.634 229.858C435.951 229.858 436.829 228.783 436.829 227.18V227.158Z" fill="#666666"/>
<path d="M496.793 219.629V220.638L491.922 230.824H490.364L495.213 220.924V220.88H489.75V219.629H496.793Z" fill="#666666"/>
<path d="M85.4902 201.211H495.367" stroke="#F5DFD6" stroke-width="0.5" stroke-linecap="round" stroke-linejoin="round"/>
<path d="M85.4902 151.642H495.367" stroke="#F5DFD6" stroke-width="0.5" stroke-linecap="round" stroke-linejoin="round"/>
<path d="M85.4902 102.074H495.367" stroke="#F5DFD6" stroke-width="0.5" stroke-linecap="round" stroke-linejoin="round"/>
<path d="M85.4904 200.486C85.4904 201.935 84.3056 203.121 82.8575 203.121C81.4094 203.121 80.2246 201.935 80.2246 200.486C80.2246 199.037 81.4094 197.852 82.8575 197.852C84.3056 197.852 85.4904 199.037 85.4904 200.486Z" fill="#262626"/>
<path d="M144.403 200.486C144.403 201.935 143.218 203.121 141.77 203.121C140.322 203.121 139.137 201.935 139.137 200.486C139.137 199.037 140.322 197.852 141.77 197.852C143.218 197.852 144.403 199.037 144.403 200.486Z" fill="#262626"/>
<path d="M203.336 200.486C203.336 201.935 202.151 203.121 200.703 203.121C199.255 203.121 198.07 201.935 198.07 200.486C198.07 199.037 199.255 197.852 200.703 197.852C202.151 197.852 203.336 199.037 203.336 200.486Z" fill="#262626"/>
<path d="M262.268 200.486C262.268 201.935 261.083 203.121 259.635 203.121C258.187 203.121 257.002 201.935 257.002 200.486C257.002 199.037 258.187 197.852 259.635 197.852C261.083 197.852 262.268 199.037 262.268 200.486Z" fill="#262626"/>
<path d="M321.201 200.486C321.201 201.935 320.017 203.121 318.568 203.121C317.12 203.121 315.936 201.935 315.936 200.486C315.936 199.037 317.12 197.852 318.568 197.852C320.017 197.852 321.201 199.037 321.201 200.486Z" fill="#262626"/>
<path d="M439.067 200.486C439.067 201.935 437.882 203.121 436.434 203.121C434.986 203.121 433.801 201.935 433.801 200.486C433.801 199.037 434.986 197.852 436.434 197.852C437.882 197.852 439.067 199.037 439.067 200.486Z" fill="#262626"/>
<path d="M380.135 200.486C380.135 201.935 378.95 203.121 377.502 203.121C376.054 203.121 374.869 201.935 374.869 200.486C374.869 199.037 376.054 197.852 377.502 197.852C378.95 197.852 380.135 199.037 380.135 200.486Z" fill="#262626"/>
<path d="M498 200.486C498 201.935 496.815 203.121 495.367 203.121C493.919 203.121 492.734 201.935 492.734 200.486C492.734 199.037 493.919 197.852 495.367 197.852C496.815 197.852 498 199.037 498 200.486Z" fill="#262626"/>
<path d="M112.346 201.211C112.346 202.177 111.578 202.945 110.612 202.945C109.647 202.945 108.879 202.177 108.879 201.211C108.879 200.245 109.647 199.476 110.612 199.476C111.578 199.476 112.346 200.245 112.346 201.211Z" fill="#353535"/>
<path d="M171.498 201.211C171.498 202.177 170.73 202.945 169.765 202.945C168.799 202.945 168.031 202.177 168.031 201.211C168.031 200.245 168.799 199.476 169.765 199.476C170.73 199.476 171.498 200.245 171.498 201.211Z" fill="#353535"/>
<path d="M230.629 201.211C230.629 202.177 229.861 202.945 228.895 202.945C227.93 202.945 227.162 202.177 227.162 201.211C227.162 200.245 227.93 199.476 228.895 199.476C229.861 199.476 230.629 200.245 230.629 201.211Z" fill="#353535"/>
<path d="M289.781 201.211C289.781 202.177 289.013 202.945 288.048 202.945C287.082 202.945 286.314 202.177 286.314 201.211C286.314 200.245 287.082 199.476 288.048 199.476C289.013 199.476 289.781 200.245 289.781 201.211Z" fill="#353535"/>
<path d="M348.933 201.211C348.933 202.177 348.166 202.945 347.2 202.945C346.235 202.945 345.467 202.177 345.467 201.211C345.467 200.245 346.235 199.476 347.2 199.476C348.166 199.476 348.933 200.245 348.933 201.211Z" fill="#353535"/>
<path d="M408.086 201.211C408.086 202.177 407.318 202.945 406.352 202.945C405.387 202.945 404.619 202.177 404.619 201.211C404.619 200.245 405.387 199.476 406.352 199.476C407.318 199.476 408.086 200.245 408.086 201.211Z" fill="#353535"/>
<path d="M467.24 201.211C467.24 202.177 466.472 202.945 465.507 202.945C464.541 202.945 463.773 202.177 463.773 201.211C463.773 200.245 464.541 199.476 465.507 199.476C466.472 199.476 467.24 200.245 467.24 201.211Z" fill="#353535"/>
<path d="M84.1074 159.04L120.836 176.251C133.409 182.156 148.219 180.597 159.299 172.234L183.499 153.969C196.159 144.42 213.427 143.871 226.679 152.586C244.824 164.55 269.31 158.601 279.951 139.634L293.972 114.674C307.246 91.0537 340.42 88.8804 356.657 110.569L365.257 122.072C372.344 131.534 383.446 137.11 395.273 137.11H420.834C428.293 137.11 435.578 139.327 441.765 143.498L495.367 179.61" stroke="#2B1845" stroke-width="2" stroke-linecap="round" stroke-linejoin="round"/>
<path d="M148.241 179.302C148.241 182.858 145.345 185.756 141.79 185.756C138.236 185.756 135.34 182.858 135.34 179.302C135.34 175.746 138.236 172.848 141.79 172.848C145.345 172.848 148.241 175.746 148.241 179.302Z" fill="#6F3EB2"/>
<path d="M207.173 146.396C207.173 149.952 204.277 152.85 200.722 152.85C197.168 152.85 194.271 149.952 194.271 146.396C194.271 142.839 197.168 139.942 200.722 139.942C204.277 139.942 207.173 142.839 207.173 146.396Z" fill="#6F3EB2"/>
<path d="M266.085 155.396C266.085 158.952 263.189 161.85 259.634 161.85C256.08 161.85 253.184 158.952 253.184 155.396C253.184 151.84 256.08 148.942 259.634 148.942C263.189 148.942 266.085 151.84 266.085 155.396Z" fill="#6F3EB2"/>
<path d="M325.018 96.454C325.018 100.01 322.122 102.908 318.568 102.908C315.013 102.908 312.117 100.01 312.117 96.454C312.117 92.8977 315.013 90 318.568 90C322.122 90 325.018 92.8977 325.018 96.454Z" fill="#6F3EB2"/>
<path d="M383.952 131.556C383.952 135.112 381.056 138.01 377.501 138.01C373.947 138.01 371.051 135.112 371.051 131.556C371.051 128 373.947 125.102 377.501 125.102C381.056 125.102 383.952 128 383.952 131.556Z" fill="#6F3EB2"/>
<path d="M442.886 140.908C442.886 144.464 439.989 147.362 436.435 147.362C432.881 147.362 429.984 144.464 429.984 140.908C429.984 137.351 432.881 134.454 436.435 134.454C439.989 134.454 442.886 137.351 442.886 140.908Z" fill="#6F3EB2"/>
</g>
</g>
<defs>
<filter id="filter0_ddddd_3268_16871" x="0" y="0" width="553" height="345" filterUnits="userSpaceOnUse" color-interpolation-filters="sRGB">
<feFlood flood-opacity="0" result="BackgroundImageFix"/>
<feColorMatrix in="SourceAlpha" type="matrix" values="0 0 0 0 0 0 0 0 0 0 0 0 0 0 0 0 0 0 127 0" result="hardAlpha"/>
<feOffset/>
<feColorMatrix type="matrix" values="0 0 0 0 0 0 0 0 0 0 0 0 0 0 0 0 0 0 0.1 0"/>
<feBlend mode="normal" in2="BackgroundImageFix" result="effect1_dropShadow_3268_16871"/>
<feColorMatrix in="SourceAlpha" type="matrix" values="0 0 0 0 0 0 0 0 0 0 0 0 0 0 0 0 0 0 127 0" result="hardAlpha"/>
<feOffset dy="3"/>
<feGaussianBlur stdDeviation="3.5"/>
<feColorMatrix type="matrix" values="0 0 0 0 0 0 0 0 0 0 0 0 0 0 0 0 0 0 0.1 0"/>
<feBlend mode="normal" in2="effect1_dropShadow_3268_16871" result="effect2_dropShadow_3268_16871"/>
<feColorMatrix in="SourceAlpha" type="matrix" values="0 0 0 0 0 0 0 0 0 0 0 0 0 0 0 0 0 0 127 0" result="hardAlpha"/>
<feOffset dy="12"/>
<feGaussianBlur stdDeviation="6"/>
<feColorMatrix type="matrix" values="0 0 0 0 0 0 0 0 0 0 0 0 0 0 0 0 0 0 0.09 0"/>
<feBlend mode="normal" in2="effect2_dropShadow_3268_16871" result="effect3_dropShadow_3268_16871"/>
<feColorMatrix in="SourceAlpha" type="matrix" values="0 0 0 0 0 0 0 0 0 0 0 0 0 0 0 0 0 0 127 0" result="hardAlpha"/>
<feOffset dy="27"/>
<feGaussianBlur stdDeviation="8"/>
<feColorMatrix type="matrix" values="0 0 0 0 0 0 0 0 0 0 0 0 0 0 0 0 0 0 0.05 0"/>
<feBlend mode="normal" in2="effect3_dropShadow_3268_16871" result="effect4_dropShadow_3268_16871"/>
<feColorMatrix in="SourceAlpha" type="matrix" values="0 0 0 0 0 0 0 0 0 0 0 0 0 0 0 0 0 0 127 0" result="hardAlpha"/>
<feOffset dy="48"/>
<feGaussianBlur stdDeviation="9.5"/>
<feColorMatrix type="matrix" values="0 0 0 0 0 0 0 0 0 0 0 0 0 0 0 0 0 0 0.01 0"/>
<feBlend mode="normal" in2="effect4_dropShadow_3268_16871" result="effect5_dropShadow_3268_16871"/>
<feBlend mode="normal" in="SourceGraphic" in2="effect5_dropShadow_3268_16871" result="shape"/>
</filter>
<clipPath id="clip0_3268_16871">
<rect width="515" height="274" fill="white" transform="translate(19 4)"/>
</clipPath>
</defs>
</svg>
