<svg width="15" height="9" viewBox="0 0 15 9" fill="none" xmlns="http://www.w3.org/2000/svg">
<path d="M0.734375 4.965C0.734375 5.08027 0.784894 5.19013 0.872198 5.2653L5.03712 8.85569C5.20312 8.99973 5.4538 8.97998 5.59665 8.81429C5.73968 8.6483 5.72094 8.3979 5.55525 8.25477L2.19914 5.36157L14.3377 5.36157C14.5568 5.36157 14.7344 5.18395 14.7344 4.96494C14.7344 4.74592 14.5568 4.56831 14.3377 4.56831L2.19914 4.56831L5.5555 1.67485C5.72119 1.53182 5.73994 1.28133 5.5969 1.11533C5.51862 1.02442 5.40756 0.977506 5.29619 0.977506C5.20427 0.977506 5.11206 1.00928 5.03738 1.07403L0.872456 4.66468C0.785151 4.73996 0.734632 4.84971 0.734632 4.96498L0.734375 4.965Z" fill="#FAFAFA"/>
</svg>
