<svg width="8" height="8" viewBox="0 0 8 8" fill="none" xmlns="http://www.w3.org/2000/svg">
<path d="M7.76622 7.50921C7.58907 7.68884 7.30042 7.69409 7.11752 7.51372L4.21398 4.65025L1.34729 7.55705C1.17013 7.73668 0.878213 7.73871 0.698579 7.56156C0.518945 7.3844 0.516917 7.09249 0.694072 6.91285L3.56076 4.00606L0.653957 1.13938C0.474323 0.962222 0.472295 0.670305 0.64945 0.490672C0.826605 0.311038 1.11852 0.30901 1.29816 0.486165L4.20496 3.35285L7.07165 0.44605C7.24881 0.266416 7.53746 0.261167 7.72036 0.441542C7.90326 0.621918 7.90202 0.910614 7.72487 1.09025L4.85818 3.99704L7.76171 6.8605C7.94461 7.04088 7.94338 7.32957 7.76622 7.50921Z" fill="#FF8383"/>
</svg>
