<svg width="25" height="30" viewBox="0 0 25 30" fill="none" xmlns="http://www.w3.org/2000/svg">
<path fill-rule="evenodd" clip-rule="evenodd" d="M3.57156 1.42848C2.38823 1.42848 1.42872 2.38798 1.42872 3.57132V26.4287C1.42872 27.612 2.38823 28.5715 3.57156 28.5715H20.7143C21.8976 28.5715 22.8571 27.612 22.8571 26.4287V10.5998C22.8571 9.97443 22.5838 9.38013 22.1088 8.97287L13.909 1.94435C13.5207 1.61145 13.0261 1.42849 12.5146 1.42849L3.57156 1.42848ZM0.000244761 3.57132C0.000244761 1.59899 1.59923 0 3.57156 0H12.5146C13.3672 0 14.1915 0.304926 14.8387 0.859768L23.0384 7.88828C23.8298 8.56677 24.2854 9.55737 24.2854 10.5998V26.4287C24.2854 28.401 22.6864 30 20.714 30H3.57132C1.59899 30 0 28.401 0 26.4287L0.000244761 3.57132Z" fill="#2B1845"/>
<path fill-rule="evenodd" clip-rule="evenodd" d="M12.8574 6.42851V1.42847H14.2859V6.42851C14.2859 7.61184 15.2454 8.57135 16.4287 8.57135H22.8572V9.99982H16.4287C14.4564 9.99982 12.8574 8.40084 12.8574 6.42851Z" fill="#2B1845"/>
<path fill-rule="evenodd" clip-rule="evenodd" d="M17.8569 24.2858H6.42883V22.8571H17.8569V24.2858Z" fill="#2B1845"/>
<path fill-rule="evenodd" clip-rule="evenodd" d="M12.8574 12.1425V20H11.4287V12.1425H12.8574Z" fill="#2B1845"/>
<path fill-rule="evenodd" clip-rule="evenodd" d="M11.6379 11.6374C11.9168 11.3586 12.3692 11.3586 12.6481 11.6374L16.9338 15.9231L15.9236 16.9335L12.143 13.1527L8.36241 16.9335L7.35222 15.9231L11.6379 11.6374Z" fill="#2B1845"/>
</svg>
