<svg width="15" height="9" viewBox="0 0 15 9" fill="none" xmlns="http://www.w3.org/2000/svg">
<path d="M14.7344 4.96481C14.7344 4.84954 14.6839 4.73968 14.5966 4.66451L10.4316 1.07412C10.2656 0.930079 10.015 0.949825 9.8721 1.11552C9.72907 1.28151 9.74781 1.53191 9.9135 1.67504L13.2696 4.56824H1.13101C0.91199 4.56824 0.734375 4.74586 0.734375 4.96487C0.734375 5.18389 0.911993 5.3615 1.13101 5.3615H13.2696L9.91325 8.25496C9.74756 8.39799 9.72881 8.64848 9.87185 8.81448C9.95013 8.90539 10.0612 8.9523 10.1726 8.9523C10.2645 8.9523 10.3567 8.92053 10.4314 8.85578L14.5963 5.26513C14.6836 5.18985 14.7341 5.0801 14.7341 4.96483L14.7344 4.96481Z" fill="#5C5C5C"/>
</svg>
